<?xml version="1.0" standalone="no"?>
<!DOCTYPE svg PUBLIC "-//W3C//DTD SVG 1.1//EN" "http://www.w3.org/Graphics/SVG/1.1/DTD/svg11.dtd" >
<svg>
<metadata>
Created by FontForge 20090622 at Mon Jan 13 11:36:40 2020
 By deploy user
Copyright (c) 2016 by Misti's Fonts. All rights reserved.
</metadata>
<defs>
<font id="AutumninNovember" horiz-adv-x="508" >
  <font-face 
    font-family="Autumn in November"
    font-weight="400"
    font-stretch="normal"
    units-per-em="1000"
    panose-1="0 0 0 0 0 0 0 0 0 0"
    ascent="800"
    descent="-200"
    x-height="383"
    cap-height="949"
    bbox="-277.643 -578 1935.53 1163.34"
    underline-thickness="50"
    underline-position="-50"
    unicode-range="U+000D-U+20AC"
  />
<missing-glyph horiz-adv-x="239" 
 />
    <glyph glyph-name=".notdef" horiz-adv-x="239" 
 />
    <glyph glyph-name="NULL" horiz-adv-x="0" 
 />
    <glyph glyph-name="NULL" horiz-adv-x="0" 
 />
    <glyph glyph-name="nonmarkingreturn" unicode="&#xd;" horiz-adv-x="239" 
 />
    <glyph glyph-name="space" unicode=" " horiz-adv-x="239" 
 />
    <glyph glyph-name="b" unicode="b" horiz-adv-x="714" 
d="M747 329q8 -4 11 -11.5t0 -15.5q-18 -41 -41.5 -71.5t-49.5 -53t-55 -39t-58 -28.5q-4 -56 -17 -106.5t-35 -92.5q-28 -56 -71 -88q-47 -35 -105 -35q-30 0 -52 15h-1l-1 1q-22 14 -33 42q-16 44 2 95q19 54 67 98q23 21 49.5 35.5t55.5 26.5q4 37 2.5 73t-8.5 68
q-8 42 -19.5 60.5t-25 20t-28.5 -11.5t-30 -32.5t-29 -44l-26 -45.5q-29 -54 -48 -100.5t-26 -65.5q-6 -17 -27.5 -24t-45.5 -6.5t-44 7t-22 17.5q-20 109 -31 218.5t-15 221.5q-2 73 0.5 135t9.5 113q17 124 59 177q33 41 78 41q38 1 71.5 -28t50.5 -79q17 -51 14 -109.5
t-26 -118.5q-26 -71 -78 -136q-8 -11 -17.5 -22l-19.5 -22q4 -85 12 -165t18 -144q10 24 23 52t29 57q102 188 212 188q33 0 61 -23q22 -19 39 -56q14 -32 21.5 -73.5t8.5 -89.5q24 11 47.5 25.5t44.5 34t39.5 45t33.5 59.5q4 8 11 11t15 0zM221 803q-11 28 -21.5 33.5
t-20 -6t-18 -37.5t-14.5 -60q-5 -29 -8.5 -61.5t-6 -66t-3 -66.5t-0.5 -62q1 -4 1 -11q54 68 80 136q14 36 19 67t5 56.5t-4.5 45t-8.5 32.5zM335 9q-22 -20 -36 -41t-20.5 -40.5t-7 -36.5t4.5 -30q7 -16 19.5 -12t26 17.5t26 31t18.5 29.5q29 55 41 128q-20 -10 -38 -21
t-34 -25z" />
    <glyph glyph-name="d" unicode="d" horiz-adv-x="713" 
d="M746 334q18 -7 13 -26q-1 -2 -8 -21.5t-20 -51t-31 -71.5t-41 -82q-99 -185 -197 -224h-1q-25 -11 -49 -11h-2q-37 0 -64 24q-26 23 -44 63q-27 61 -36 165l-39.5 -34.5t-39.5 -29.5t-42 -21.5t-47 -10.5q-42 -1 -73 28q-47 45 -47 160q0 85 31 137q31 53 82 64
q29 6 58.5 -3t58.5 -32q30 -24 55 -61q5 84 16.5 170t31.5 165q29 124 67 197q45 88 98 94q33 3 52 -8t29 -23q40 -55 9 -202q-8 -36 -18.5 -72.5t-22.5 -71.5t-24 -66.5t-23 -57.5q-14 -33 -33 -69.5t-42 -73.5q0 -9 -1 -13q-2 -44 -1.5 -93.5t4 -95t11.5 -83t22 -57.5
t34.5 -18.5t49.5 34.5q50 53 102 149q22 41 40 80.5t30.5 70t19.5 50l7 19.5q3 8 10 11.5t15 1.5zM118 176q0 -60 10 -85t29 -23.5t45.5 25t59.5 60.5q-1 16 -1 32.5v33.5q-12 18 -26 44t-30 42.5t-33.5 14.5t-35.5 -40q-18 -42 -18 -104zM527 698q13 59 15.5 87t-2.5 32
t-15.5 -11t-23 -42t-24.5 -62t-21 -70q-16 -60 -27.5 -126.5t-18.5 -134.5q9 17 16.5 33l14.5 32l22 56.5l24 65.5t22 69.5t18 70.5z" />
    <glyph glyph-name="f" unicode="f" horiz-adv-x="436" 
d="M467 328q8 -2 12 -9.5t2 -15.5q-21 -65 -79 -145q-26 -34 -57 -68t-66 -66q-26 -24 -52.5 -45t-52.5 -38q11 -14 21.5 -29t19.5 -33q13 -25 23.5 -54t17.5 -60q14 -61 14 -114q0 -58 -15 -94q-14 -30 -31.5 -38t-28.5 -8q-57 0 -96 80q-15 31 -28 73t-24 96
q-7 30 -11.5 61t-9.5 62q-31 1 -52 15q-25 16 -25 44q0 20 16 38t47 25l-7 97q-8 128 -8 247t8 218q9 115 29 197q22 90 58 129q27 30 61 30h1q38 0 66 -34q32 -42 43 -114q9 -75 -9 -157q-13 -65 -50 -128q-28 -48 -66 -89q-1 -73 0.5 -151.5t6.5 -159.5q2 -19 3.5 -48.5
t5.5 -66.5l48 36t50 42q72 66 122.5 135t67.5 127q3 8 10 11.5t15 1.5zM215 626q6 25 8 56.5t1 60t-5 49.5t-10.5 25.5t-15 -11.5t-19.5 -61q-10 -38 -16.5 -85.5t-11.5 -104.5l-6 -89q23 32 43.5 72t31.5 88zM179 -139l-6.5 13t-8.5 14l10.5 -70t12.5 -70q2 -10 6 -27.5
t9 -36t10 -34.5t9 -23.5t6.5 -3t2.5 27.5q0 52 -13.5 108.5t-37.5 101.5zM-4 -69q5 -3 11 -4.5l14 -3.5l-5 42q-14 -4 -20.5 -10.5t-6.5 -12.5q0 -4 2.5 -6.5z" />
    <glyph glyph-name="n" unicode="n" horiz-adv-x="610" 
d="M642 334q8 -2 11.5 -9.5t1.5 -15.5q0 -2 -5.5 -19t-15.5 -45t-24 -63t-31 -72q-43 -89 -84 -139q-57 -68 -115 -68q-37 0 -58 26q-15 18 -19.5 47t-2 64.5t10 76.5t16.5 84q8 37 14.5 70.5t9.5 62.5q3 35 0.5 51t-7.5 21q-2 2 -5 3.5t-9 1.5q-16 0 -35.5 -16.5
t-42.5 -58.5t-50.5 -113.5t-59.5 -180.5q-3 -23 -26.5 -35t-50.5 -14.5t-49.5 5t-22.5 23.5q-2 58 -1 111.5t3 94t3.5 65l1.5 24.5q1 22 23 31t48 5.5t47.5 -18.5t20.5 -40q0 -1 -1 -36l-3 -105l25.5 73t28.5 70q16 35 31 61.5t31 45.5q15 19 38.5 33t49.5 20.5t53 3
t50 -18.5q24 -17 37 -46t13 -65t-8 -79t-19 -87q-16 -72 -19 -115t6.5 -50.5t32 23.5t58.5 106q17 36 30.5 70.5l23.5 61.5t15 44l5 17q2 8 9.5 11.5t15.5 1.5z" />
    <glyph glyph-name="a" unicode="a" 
d="M537 334q8 -2 12.5 -9t2.5 -15q0 -2 -5 -20.5l-13.5 -48t-21 -67.5t-28.5 -77q-9 -23 -24.5 -58.5t-37.5 -69t-49 -57.5t-60 -24q-38 0 -61 33q-26 38 -29 120q-2 53 6 122q-12 -22 -28.5 -47.5t-37.5 -47t-47 -35.5t-58 -14q-12 1 -27 8t-27.5 26t-21.5 52t-9 86
q0 83 29 135q30 51 78 63q44 12 90 -7t80 -64l19 74q3 14 26 19.5t48 0t43 -22t12 -46.5q-5 -18 -9 -42q-4 -20 -8 -48.5l-9 -64.5q-9 -72 -10.5 -122.5t7 -67t27.5 8.5t51 105q15 38 27.5 75.5t21 66.5t13 47.5l4.5 18.5q2 8 9 12t15 2zM166 137q20 28 37 62t31 72
q-2 2 -2 3q-26 43 -48 51.5t-37.5 -7t-24.5 -50t-9 -78.5q0 -29 2 -51.5t8 -32.5t16 -4t27 35z" />
    <glyph glyph-name="t" unicode="t" horiz-adv-x="383" 
d="M822 910q6 16 28 24.5t43.5 8t36 -11.5t6.5 -35q-17 -50 -47.5 -85.5t-71 -58.5t-89 -35.5t-101.5 -15.5q-14 -1 -26.5 -1.5t-26.5 -0.5q-94 0 -197 15.5t-200 32.5q-5 0 -8.5 0.5t-7.5 1.5l-8 -130l-6.5 -123.5t-6.5 -131t-5 -133.5t-2 -130q0 -39 0.5 -85t3 -88.5
t7 -79t12 -57t18.5 -21.5t27 26q23 39 46.5 92t47.5 121q21 57 38 112.5t29 99.5t18.5 71l6.5 27q2 8 9 12.5t15 2.5t12.5 -9t2.5 -15l-7 -27.5l-19 -72t-29 -101t-38 -114.5q-25 -69 -49.5 -124t-47.5 -95q-65 -108 -127 -109h-1q-27 0 -48 21q-33 34 -49.5 128t-17.5 257
q0 67 1.5 138.5t4.5 144t7 142.5t7 134l8 140q-31 4 -67.5 7t-68.5 0.5t-55.5 -12.5t-28.5 -32q-2 -9 -15.5 -12t-28.5 -1.5t-26 7.5t-8 16q12 46 60 64q39 16 105 15q30 0 64 -3.5t71 -8.5q1 13 1.5 28l1 30t0.5 28v22q0 16 21 24.5t46.5 6.5t47 -15t23.5 -40q2 -20 1 -48
l-2 -58l116.5 -20.5t119 -18t117 -10.5t108.5 0q54 3 86.5 16.5t52.5 35t32.5 51.5z" />
    <glyph glyph-name="j" unicode="j" horiz-adv-x="339" 
d="M375 327q-8 4 -15.5 1.5t-11.5 -10.5q-58 -113 -106.5 -185t-92.5 -120v28q0 54 -2 103t-4.5 86t-5 59l-2.5 22q-2 21 -13.5 31t-27.5 12.5t-33.5 -1.5t-32.5 -11.5t-24 -17t-8 -17.5l2 -21.5t4.5 -58t4.5 -84.5t2 -102q0 -44 -2 -83.5t-6 -75.5q-35 -27 -70.5 -59
t-73.5 -79q-36 -44 -49 -94q-11 -46 5 -83q14 -35 35.5 -49t46 -13.5t50 13t49 31t43 39.5t31.5 39q44 64 65 189q5 31 8.5 65t5.5 72l48 52q48 55 94 128t94 167q4 8 1.5 15.5t-9.5 11.5zM-150 -418q-9 22 -3 58t41 79q28 34 53.5 59t51.5 46q-9 -57 -23.5 -101t-34.5 -73
q-7 -10 -19.5 -26.5t-25.5 -29.5t-24.5 -18.5t-15.5 6.5zM88 499q0 -20 -14.5 -34t-36.5 -14q-20 0 -34.5 14t-14.5 34q0 21 14.5 35t34.5 14q22 0 36.5 -14t14.5 -35z" />
    <glyph glyph-name="x" unicode="x" horiz-adv-x="693" 
d="M719 329q8 -2 13 -9t3 -15q0 -2 -5.5 -27t-16 -64t-26.5 -89t-37 -102q-50 -125 -108 -197q-76 -94 -163 -94q-90 0 -172 94q-54 63 -103 163q-39 -39 -66.5 -88.5t-22.5 -110.5q1 -17 -10.5 -29.5t-26 -16t-26 3.5t-9.5 29q6 69 45.5 130t97.5 121q-23 51 -40.5 100
t-29.5 87.5t-18 62.5t-7 26q-5 13 13 26.5t43 18t51 -5.5t38 -43q2 -3 11.5 -48t44.5 -130l12 9l80 69.5t66.5 70t45 79.5t16.5 98q0 9 14 18t31 11.5t31 -3.5t14 -26q-1 -56 -29 -104.5t-69 -91t-88 -80.5l-87 -71l-21 -18l6 -14q55 -127 107 -190.5t101.5 -66.5t96.5 54
t94 171q21 51 36.5 100.5t26 88.5t15.5 63l5 24q2 8 8.5 13t14.5 3z" />
    <glyph glyph-name="u" unicode="u" horiz-adv-x="547" 
d="M573 329q8 -2 13 -9t3 -15q0 -2 -4 -20.5t-11.5 -48.5t-18 -67.5t-23.5 -76.5q-33 -94 -68 -146q-16 -23 -39.5 -44.5t-55.5 -21.5q-2 0 -5 0.5t-5 0.5q-33 5 -52 33q-27 37 -34 117q-2 25 -2.5 54t1.5 63q-13 -28 -26.5 -51t-28.5 -40q-20 -26 -46 -42.5t-61 -16.5
q-56 0 -89 41q-43 55 -37 174q2 43 7.5 73.5t6.5 32.5q6 20 30 29t49.5 8t44.5 -12.5t15 -33.5q-3 -17 -6 -36l-4.5 -37.5t-2.5 -43.5q-2 -67 10 -94t30.5 -22.5t41 35.5t42.5 79q12 30 21 59t15 52t9 37.5l3 14.5q3 11 15 19t28 11.5t33.5 3.5t32.5 -5t23.5 -14t7.5 -23
l-2.5 -14.5t-6 -38.5t-7 -55t-6.5 -65q-5 -70 -3.5 -119t10.5 -64t27 10.5t46 104.5q13 38 23.5 75.5t17.5 66.5t11 47.5l4 18.5q2 8 8.5 13t14.5 3z" />
    <glyph glyph-name="v" unicode="v" horiz-adv-x="454" 
d="M502 323q5 -9 -2 -19v-1q-30 -59 -71 -83t-112 -21q-7 -32 -17 -63t-23 -59q-15 -31 -31.5 -55.5t-36.5 -41.5q-45 -42 -98 -42q-34 0 -58 26q-48 53 -56 210q-1 28 -0.5 57t2 52.5t3 39t1.5 16.5q3 19 25.5 28.5t47.5 7t45 -17.5t18 -44q-1 -19 -2 -42q-1 -20 -1 -45
t2 -53q3 -66 11.5 -100.5t20 -45t25.5 0.5t28.5 37t28.5 63t26 79q-48 16 -82 66q-18 27 -27.5 59.5t-7.5 61.5q2 42 25 66t61 24q6 0 15 -2t18 -7.5t18 -15.5t16 -27q18 -39 18 -106q0 -41 -8 -87q31 -3 53 1t37.5 14.5t27 26.5t22.5 39q2 4 4 7.5t8 5.5q8 4 15.5 1
t10.5 -11zM285 247q3 20 5 40t2 39q0 58 -15 90q-8 21 -17 25t-13 3q-13 -2 -18.5 -17t-5 -35.5t5 -44.5t13 -45t19.5 -36.5t24 -18.5z" />
    <glyph glyph-name="r" unicode="r" horiz-adv-x="447" 
d="M482 334q8 -3 11 -10.5t0 -15.5l-8 -20.5l-21.5 -53.5l-32 -74.5t-40.5 -83.5q-12 -24 -33 -62.5t-48 -75.5t-59.5 -63.5t-66.5 -26.5q-16 0 -30.5 7t-24.5 24q-40 68 24 298q14 49 28.5 93t25.5 74q-29 -11 -71.5 -21.5t-88.5 -10.5q-70 0 -110 52q-33 44 -33 107
q0 26 6 49.5t17 41.5q28 46 73 46q29 0 45.5 -11.5t24.5 -22.5q32 -49 5 -154q-5 -20 -10 -37.5t-10 -30.5q34 1 66 8t56.5 15.5t40 15.5l15.5 7q3 2 14.5 5.5t27.5 6t33 3t30.5 -3t20 -12t1.5 -24.5l-6 -16.5l-15.5 -44.5l-21.5 -64t-23 -76q-26 -91 -36 -146t-3 -68
t31.5 19.5t68.5 116.5q22 42 40 82.5l31.5 73l21.5 52.5l8 20q3 8 10.5 11.5t15.5 0.5zM37 429q3 11 6.5 37t2 51t-11.5 41.5t-34 9.5q-15 -4 -22.5 -21t-9.5 -40t1.5 -49t10 -48t15.5 -37t19 -16q5 12 11 31t12 41z" />
    <glyph glyph-name="m" unicode="m" horiz-adv-x="826" 
d="M859 334q8 -2 12 -9.5t1 -15.5l-6.5 -20t-18.5 -52.5t-29 -73.5t-37 -83q-48 -100 -94 -159q-14 -17 -27.5 -30.5t-26.5 -23.5q-1 0 -2 -1q-32 -23 -64 -23q-40 0 -61 27q-14 17 -17.5 42.5t-0.5 57t11 67l17 72.5q8 31 14.5 59.5t9.5 53.5q1 6 2 17t0 22.5t-5.5 19.5
t-16.5 8q-4 0 -12 -3.5t-20.5 -17.5t-29 -41t-35.5 -75q-11 -27 -20.5 -53.5t-16 -47t-10 -33.5l-3.5 -13q-3 -8 -14.5 -14t-28 -9t-34 -2.5t-32 4.5t-23.5 11t-7 18l2 12t4.5 32.5t5 47t4.5 56.5q1 20 2.5 45.5t1.5 50t-1.5 44.5t-5.5 29t-11 3t-18 -33
q-29 -69 -46.5 -140.5t-38.5 -143.5q-3 -11 -25 -16.5t-47.5 -4.5t-46.5 7.5t-21 18.5q-2 58 -1 113t2.5 97.5t3.5 68.5l2 26q0 15 22 21.5t48 3.5t47.5 -15.5t21.5 -36.5q0 -1 -1 -30.5l-3 -88.5l22 70.5t24 64.5q22 56 47 87q31 39 69 39t62 -29q14 -17 22.5 -44t13.5 -64
q2 -24 2.5 -52t-1.5 -60q11 25 22.5 45.5t22.5 36.5q18 25 45.5 40t57.5 19.5t59 -2.5t50 -26q29 -27 29 -79q0 -31 -8.5 -67.5t-19.5 -77.5q-3 -13 -8.5 -32.5t-10 -40.5t-7.5 -40t-1.5 -29.5t8 -10.5t20.5 18q22 27 44.5 65t45.5 86l35.5 82l28.5 71.5t18.5 51l6.5 19.5
q3 8 10 11.5t15 1.5z" />
    <glyph glyph-name="h" unicode="h" horiz-adv-x="651" 
d="M683 334q8 -2 12 -9.5t2 -15.5l-6.5 -20t-18 -52l-27.5 -73t-35 -83q-23 -51 -45.5 -90.5t-44.5 -68.5q-10 -14 -22.5 -28t-27.5 -25t-32 -18.5t-36 -7.5q-23 0 -37 8.5t-21 17.5q-15 19 -18.5 48t0.5 66t13.5 79t20.5 86q9 37 16.5 71.5t11.5 63.5q5 38 2.5 53.5
t-6.5 19.5q-3 5 -12 5q-23 0 -50.5 -27.5t-55.5 -79.5q-24 -47 -46.5 -108t-42.5 -130q-3 -10 -24 -16t-46 -6t-45.5 5.5t-23.5 17.5q-8 35 -15.5 84.5t-13.5 108t-11 122t-6 125.5q-2 73 0.5 135t9.5 113q17 124 59 177q33 41 78 41q38 2 67 -34q17 -20 27.5 -49t15.5 -64
q5 -37 2.5 -77t-10.5 -81q-15 -67 -51 -128q-25 -42 -56 -79q3 -82 11 -161.5t18 -142.5q16 48 33 89.5t35 75.5q31 58 63 90q17 18 43.5 30t55 15.5t56.5 -2.5t49 -24q14 -13 25.5 -37t6.5 -66q-4 -32 -12 -67.5t-19 -74.5l-18 -75.5t-14 -70.5q-2 -17 -4 -32t-1 -23
t6.5 -7t19.5 18q21 27 42 65t44 86q19 41 34.5 81t26.5 71.5t17 51.5l6 20q3 8 10 11.5t15 1.5zM201 626q11 48 12.5 88.5t-3 67t-13.5 38t-19.5 1t-21 -44t-17.5 -96.5q-5 -44 -7 -95.5t0 -111.5q21 31 40 69.5t29 83.5z" />
    <glyph glyph-name="y" unicode="y" horiz-adv-x="583" 
d="M620 327q7 -4 9.5 -11.5t-1.5 -15.5q-35 -71 -79.5 -126t-92.5 -102v-3q6 -311 -66 -428q-27 -43 -58 -73t-66 -45q-15 -6 -30.5 -9.5t-30.5 -3.5q-32 0 -60 15q-52 28 -66 90q-15 65 18 138q17 38 41 71.5t52.5 63.5t60.5 58l65 56v66l-4 91.5t-5 79.5l-20 -53
q-31 -72 -66 -112q-48 -56 -106 -56t-91 42q-42 52 -34 162q2 40 7.5 68t6.5 30q6 20 28.5 27.5t47 4t43 -19t15.5 -42.5q-2 -10 -4 -23q-2 -11 -3.5 -27.5t-1.5 -37.5q-2 -63 10 -87.5t30 -20t40 33.5t41 73q12 28 20.5 55.5t14 49t8.5 35l3 13.5q0 12 20 21t45 10.5
t47.5 -5.5t26.5 -27l2 -18t5 -48.5t6.5 -71.5t5.5 -88q38 40 74 86.5t65 104.5q4 8 11.5 10.5t15.5 -1.5zM118 -376q9 -41 26.5 -49t37.5 3t39.5 35.5t34.5 48.5q26 42 40.5 114t18.5 173q-57 -49 -105 -99t-77 -113q-27 -61 -15 -113z" />
    <glyph glyph-name="s" unicode="s" horiz-adv-x="377" 
d="M423 311q-14 -52 -49 -90.5t-78 -72.5q29 -31 46.5 -69.5t18.5 -92.5q0 -63 -30 -112q-25 -44 -72 -72q-46 -26 -93 -26q-49 0 -82 30.5t-33 83.5q0 82 58 152q11 14 24 26.5t27 24.5l-27.5 22.5l-30.5 24.5l-71.5 58t-66.5 72t-49.5 93.5t-19.5 122.5q0 44 18 79
q9 18 22 32t28 24q28 17 59 17q38 2 62 -11.5t36 -37.5t14.5 -55t-2.5 -64q-12 -73 -48 -139q23 -30 53 -54.5t62 -47.5l34.5 -26t33.5 -27q41 32 73 66t44 79q2 8 9.5 12t15.5 2t12 -9t2 -15zM92 476q5 29 4 53.5t-8 40.5q-5 9 -11.5 14.5t-16.5 -1.5q-2 -2 -6.5 -7
t-8.5 -16t-7 -29t-3 -45q0 -35 6.5 -63t17.5 -52q12 26 20.5 52.5t12.5 52.5zM188 64q-41 -35 -69 -76.5t-28 -97.5q0 -33 9.5 -45t24 -9.5t31.5 18t31.5 37t24 47t9.5 48.5t-8.5 42t-24.5 36z" />
    <glyph glyph-name="e" unicode="e" horiz-adv-x="347" 
d="M386 329q8 -4 10 -11.5t-2 -15.5q-29 -57 -60.5 -112t-63.5 -98l-29 -34t-33 -30.5t-38.5 -22.5t-44.5 -9q-35 0 -63 28.5t-47 82.5q-23 67 -25 143t25 146q10 23 22 40.5t28 29.5q30 24 66 30q36 5 62 -8q20 -10 31.5 -27.5t11.5 -40.5q0 -58 -109 -106q1 -24 3 -57.5
t5.5 -66.5t10.5 -61t19 -41.5t29.5 -9t43.5 37.5q31 42 61.5 95.5l59.5 108.5q4 8 11.5 10.5t15.5 -1.5zM136 362q20 10 32 19.5t18 17t8 13t2 8.5q0 12 -1.5 13.5t-9.5 -1.5q-33 -14 -49 -70z" />
    <glyph glyph-name="p" unicode="p" horiz-adv-x="486" 
d="M512 329q8 -2 13 -8.5t3 -14.5q-21 -128 -63.5 -218t-109.5 -148q-51 -44 -106.5 -67t-109.5 -38l-3 -19q-21 -125 -64 -188q-39 -58 -82.5 -89t-85.5 -31q-3 0 -5.5 0.5t-5.5 0.5q-26 2 -46 17.5t-31 40.5q-16 37 -5 83q12 50 49 95q28 34 63 55t75 35q7 45 10.5 96
t3.5 110q0 54 -2 102t-4.5 84.5t-4.5 58l-2 21.5q0 15 20.5 29t46 18.5t47.5 -4t25 -38.5q0 -1 3 -26.5t5 -67.5q8 27 18.5 51.5t24.5 46.5q11 19 23.5 33t25.5 25q30 24 58 24q61 0 91 -57q27 -48 27 -131q0 -45 -9 -83t-27 -67q-17 -27 -40 -42t-48 -15q-26 0 -47.5 10
t-38.5 25t-30 32.5t-22 32.5v-62q0 -45 -2 -85.5t-6 -77.5q56 16 109.5 41.5t99 72.5t81 123.5t55.5 196.5q2 8 8.5 13.5t14.5 3.5zM223 295q-19 -30 -32 -67.5t-19 -78.5q17 -45 35 -58.5t33 -2.5t24.5 43t9.5 79q0 20 -3 46.5t-9 45t-15.5 20.5t-23.5 -27zM-108 -281
q-17 -21 -27 -44.5t-13 -43.5t1 -33t14.5 -13.5t28.5 14.5t42 51q34 51 52 139q-29 -12 -53.5 -28.5t-44.5 -41.5z" />
    <glyph glyph-name="k" unicode="k" horiz-adv-x="683" 
d="M710 329q8 -2 12.5 -9t2.5 -15q0 -2 -5 -25t-15 -59t-24 -81.5t-33 -92.5q-23 -57 -47 -100t-50 -74q-61 -69 -125 -69q-6 0 -11.5 0.5t-11.5 1.5q-31 6 -48 25q-15 18 -19 45q-4 22 -1 48t8 54q6 39 8.5 76t-15.5 58q-21 24 -77 24q-8 0 -13.5 5t-6.5 13q0 11 9 19l7 6
q34 16 57.5 37t38.5 43.5t22 45.5t8 43q2 32 -3 45.5t-14 15t-21.5 -7.5t-25 -22.5t-24 -28.5t-18.5 -27q-38 -61 -64 -139t-37 -163q-2 -15 -23 -24t-46.5 -12t-47 0.5t-23.5 13.5q-8 34 -15.5 87t-14 115t-11 129t-5.5 129q-2 73 0.5 135t9.5 113q18 125 60 177
q32 41 77 41q26 0 43 -13.5t27.5 -34.5t15 -46t5.5 -49q2 -74 -21 -160q-17 -60 -36.5 -106t-39.5 -80q2 -80 9.5 -157t16.5 -143q15 59 36.5 111.5t50.5 97.5q38 60 84 97q47 37 95 37q41 0 68 -26t32 -69q4 -36 -10.5 -73.5t-43.5 -69.5q-36 -39 -90 -66q53 -6 80 -37
q25 -28 28 -80q1 -21 -1.5 -43t-4.5 -44q-8 -55 -3.5 -76t16.5 -18.5t28.5 23.5t33.5 49.5t32 59t24 52.5q19 46 33 91t23.5 80.5t14.5 58l5 22.5q2 8 9 13t15 3zM166 632q10 39 14.5 75t4 62.5t-5 40.5t-11 8.5t-14.5 -34t-16 -85.5q-5 -40 -8 -85t-3 -93q11 24 21 51.5
t18 59.5z" />
    <glyph glyph-name="z" unicode="z" horiz-adv-x="575" 
d="M614 335q8 -2 12 -9.5t2 -15.5q0 -1 -5 -16l-13 -38t-19.5 -53t-26.5 -61q-33 -73 -71 -118q-50 -59 -100 -59q-55 0 -102 32q-15 10 -28 22t-24 24q-50 -47 -107 -47h-3q-32 0 -56 11.5t-36 32.5q-11 17 -11 37t10 38q13 23 38 35t57 12q10 0 19 -2t18 -5l39 71
q17 34 36 67t41 60q-11 2 -20.5 4t-20.5 4q-38 8 -73.5 13t-63.5 0q-10 -2 -20 -6t-19.5 -12t-17.5 -22.5t-12 -36.5q-2 -8 -9 -12.5t-15 -2.5t-13 8.5t-3 14.5q10 48 38 76q24 25 64 33q34 6 72 0t80 -14q48 -9 95.5 -14.5t82.5 9.5q8 3 15 1t11 -9t2 -14.5t-8 -11.5
q-32 -23 -57.5 -66t-49.5 -91q-9 -17 -16 -32t-14 -28.5t-15.5 -27t-19.5 -27.5q37 -38 72.5 -48.5t68 0.5t61 42t49.5 76q14 30 25 59t19 52t12.5 37.5l4.5 14.5q2 8 9.5 11.5t15.5 1.5zM71 95q-12 -22 6 -42q20 11 36.5 28t31.5 39q-8 2 -14 2q-44 0 -60 -27z" />
    <glyph glyph-name="w" unicode="w" horiz-adv-x="798" 
d="M838 323q6 -14 -6 -24q-25 -24 -65 -36q-46 -15 -103 -14q-13 -57 -36.5 -114t-55 -102.5t-69.5 -74.5t-81 -30h-5q-44 0 -74 34q-52 56 -55 214q-29 -74 -67 -119q-48 -59 -107 -59q-56 0 -88 41q-43 54 -37 174q2 44 8 74t6 32q2 10 24.5 19.5t48.5 12t46.5 -6
t19.5 -33.5l-2 -10t-4.5 -26t-5 -37t-2.5 -44q-2 -67 10 -94t30.5 -23t40.5 35t42 79q24 61 33.5 101.5t9.5 41.5q0 24 24.5 35.5t53 12t50 -8.5t16.5 -26l-1.5 -14l-4 -36.5t-4 -51.5t-1.5 -61q1 -37 4 -68t9 -56q11 -47 27 -57.5t33.5 2.5t35.5 42t35 61q17 34 30.5 70.5
t22.5 73.5q-8 1 -16.5 1.5t-17.5 2.5q-43 8 -68.5 27t-39.5 37q-17 23 -25 50t-6 54q3 44 32 71q31 31 80 31h1q56 0 87 -49q13 -20 19 -47t7 -61q2 -38 -6 -80h2q30 0 52 4.5t38 10.5t26 12.5t15 11.5q4 4 8 5q8 4 15.5 1t10.5 -11zM631 291q8 41 6 77q0 57 -20 88
q-9 15 -22.5 23.5t-31.5 6.5q-18 -1 -28.5 -17t-13.5 -39.5t2 -49.5t18.5 -47t36 -33.5t53.5 -8.5z" />
    <glyph glyph-name="q" unicode="q" horiz-adv-x="540" 
d="M578 335q8 -3 11 -10.5t0 -15.5l-8 -20t-22 -51.5t-34 -72t-44 -82.5q-23 -39 -44.5 -72t-43.5 -59q5 -6 9.5 -12t8.5 -13q24 -37 36.5 -86.5t12.5 -105.5q0 -41 -7 -80t-20 -69q-15 -36 -36 -55.5t-45 -19.5q-9 0 -21 4t-24 18q-38 41 -53 180q-4 30 -5.5 64.5
t-3.5 73.5q-4 -1 -11 -1q-23 0 -40.5 7.5t-29 19.5t-17.5 27t-6 31q0 35 25 60q9 9 26 18t44 9h9l4 104t4 94q-27 -64 -65 -115q-37 -51 -74.5 -79t-71.5 -28q-5 0 -8 1q-14 2 -31 11.5t-30 36.5q-20 40 -20 112q0 34 10 72t27 73q20 40 47 66t56 35q25 7 47 3t41.5 -15.5
t36.5 -29t32 -37.5q5 15 7.5 31.5t8.5 30.5q8 19 31.5 28.5t48 9t43 -11t16.5 -32.5q-8 -92 -10 -184t-7 -187q14 20 28.5 43l29.5 49q23 40 42.5 79.5t33.5 70.5t22 50.5l8 19.5q7 19 26 12zM156 128q46 63 78 151l-2 2q-21 32 -39 42.5t-33.5 5t-28 -23.5t-21 -42.5
t-13 -52t-4.5 -51.5q0 -71 13.5 -78.5t49.5 47.5zM420 -265q0 47 -9.5 88t-27.5 73q-1 -41 -0.5 -82.5t3.5 -80.5q7 -96 19 -92.5t15 94.5zM244 -18h-8q-29 0 -42 -15t-13 -32t13 -31t40 -14q7 0 10 1v91z" />
    <glyph glyph-name="g" unicode="g" horiz-adv-x="528" 
d="M567 327q7 -4 9.5 -11.5t-1.5 -15.5q-23 -43 -65.5 -87t-96.5 -93q3 -29 4 -68.5t-0.5 -83t-6 -89t-12.5 -89t-20 -81t-29 -65.5q-29 -46 -64 -78t-75 -47q-31 -13 -68.5 -13.5t-68.5 17.5q-25 13 -42 34.5t-25 48.5q-15 60 15 128q21 46 49 88t61 81.5t69.5 76
t74.5 70.5q0 51 -3 101.5t-8 103.5q-17 -50 -37 -89t-41 -68q-9 -12 -22.5 -26t-29 -25t-33 -17t-35.5 -1q-43 6 -69.5 52t-26.5 116q0 74 36 130q18 26 41.5 42.5t49.5 21.5q48 8 91 -26q30 -25 50 -64q5 13 8.5 26.5t7.5 27.5q0 6 9.5 15t24 16.5t31.5 13.5t32 6.5t26 -6
t14 -21.5l2 -18l5 -46.5t6.5 -66t5.5 -76.5q44 40 77.5 76t52.5 71q4 7 11.5 9.5t15.5 -1.5zM154 122q35 47 65 125q-14 53 -32.5 66t-35.5 -0.5t-29 -46t-12 -69.5q0 -15 2 -37.5t7 -38.5t13.5 -19t21.5 20zM57 -282q-24 -55 -16 -92t34.5 -47.5t65 9t74.5 77.5
q28 46 43 129.5t17 201.5q-65 -62 -124 -131t-94 -147z" />
    <glyph glyph-name="o" unicode="o" horiz-adv-x="361" 
d="M396 304q6 -6 5.5 -14.5t-6.5 -13.5q-28 -25 -59 -25q-9 0 -17.5 2t-18.5 5l-18.5 8.5t-18.5 10.5q6 -24 6 -52q0 -66 -34 -114q-20 -26 -47.5 -40.5t-59.5 -14.5q-38 0 -68.5 13t-53.5 37q-20 21 -30 49t-10 60t11 62t31 53q47 53 126 53q33 0 59 -12.5t54 -32.5
q19 -15 35.5 -26.5t31.5 -16.5t28.5 -3t25.5 13q6 6 14.5 5.5t13.5 -6.5zM109 204q4 -44 23.5 -62t41 -14t38.5 29t17 68q0 24 -6 45.5t-18 37.5q-12 15 -27 24q-20 -9 -34 -23.5t-22.5 -31.5t-11.5 -36t-1 -37z" />
    <glyph glyph-name="A" unicode="A" horiz-adv-x="1025" 
d="M1053 335q8 -2 13 -9t3 -15l-5.5 -27.5t-16 -72t-26 -101.5t-35.5 -115q-113 -328 -258 -328q-52 0 -83 37q-27 31 -38.5 87.5t-9.5 146.5q3 76 13.5 164t22.5 178l10 80l10 79q-57 -6 -118 -7.5t-123 -3.5l-91 -2t-83 -4q-7 -41 -11.5 -84.5t-7.5 -91.5
q-5 -75 -4.5 -143t2 -119.5t4 -82t2.5 -31.5q1 -8 -4.5 -14.5t-13.5 -7.5t-14.5 4.5t-7.5 13.5q0 1 -2.5 32t-4 83.5t-1.5 121t5 145.5q2 45 6.5 87.5t9.5 82.5q-12 -2 -24 -3.5t-23 -3.5q-34 -7 -53.5 -16t-30 -18.5t-13.5 -19.5t-3 -19q0 -8 -6 -14t-14 -6t-14 6t-6 14
q0 48 40 76q31 24 92 36q28 6 62 9q5 28 10.5 54.5t12.5 51.5q22 86 53.5 151.5t72.5 110.5q32 35 74.5 58t88 32t91.5 5t85 -23t67 -53t39 -84q12 -50 12.5 -114t-6.5 -136q41 16 67.5 40t35.5 59q2 8 9 12t15 2t12 -9t2 -15q-22 -93 -145 -133q-5 -52 -12 -105.5
t-15 -107.5q-13 -97 -23.5 -184.5t-11.5 -162.5q-1 -55 4 -97.5t18 -61.5t35.5 -10t55.5 57q52 78 98 212q20 57 35 112.5t25.5 99.5t15.5 71t5 28q2 8 9 13t15 3zM412 468q62 2 124.5 3.5t121.5 8.5q4 41 7 79.5t4 73.5q0 18 0.5 43.5t-2 53t-9 55t-18.5 49t-30.5 35
t-46.5 13.5q-106 0 -182 -82q-48 -52 -82 -137t-55 -201q39 3 81 4z" />
    <glyph glyph-name="N" unicode="N" horiz-adv-x="1387" 
d="M1412 322q8 -2 13.5 -8.5t3.5 -14.5q0 -1 -5.5 -27.5t-15.5 -69.5t-25.5 -97.5t-35.5 -111.5q-115 -315 -266 -315q-54 0 -84 38q-25 31 -32 87.5t4 144.5q9 75 27.5 161.5l38.5 174.5l39.5 181t28.5 168q10 85 4 138.5t-27 80.5q-22 28 -65 28q-110 0 -203 -129
q-77 -105 -139 -296q-23 -69 -39.5 -135.5t-28.5 -123.5t-18.5 -99.5l-9.5 -61.5v-1q-1 -1 -1 -2v-1q-3 -19 -23.5 -31.5t-45 -15.5t-46 5t-25.5 31q0 1 -2 28t-5 72.5t-6.5 105t-5.5 125.5q-2 71 -2.5 132t1.5 113l-73 -23q-59 -18 -112 -37t-95 -46q-45 -29 -65.5 -65.5
t-20.5 -84.5q0 -8 -6 -14t-14 -6t-14 6t-6 14q0 116 104 184q45 29 102 49t115 38l44 13.5t43 14.5q8 125 27 185q17 49 50 79q33 28 70 34q31 5 58 -4.5t44 -30.5q5 -7 10.5 -18t7.5 -26.5t-1 -36t-14 -45.5q-17 -39 -45.5 -67.5t-65.5 -50.5q-3 -53 -4 -113t0.5 -121
t3.5 -120t5 -110q12 60 29.5 130t41.5 143q63 196 144 308q25 34 57.5 63t69 49.5t75.5 31t77 7.5t74 -20.5t66 -53.5q40 -49 49 -129q4 -47 -1 -103.5t-16 -119t-26 -129l-31 -132.5q-23 -94 -41.5 -178.5t-25.5 -155.5q-5 -55 -2 -94.5t15.5 -56t34.5 -6t55 55.5
q53 72 100 202q20 55 35 109t25 96t15 68l5 26q2 8 8.5 13.5t14.5 3.5zM634 792q15 33 13 54t-12 25.5t-25 -9.5t-27 -50q-7 -20 -11.5 -45.5t-7.5 -57.5q23 17 41 37.5t29 45.5zM577 33l-1 -2q0 1 0.5 1t0.5 1z" />
    <glyph glyph-name="B" unicode="B" horiz-adv-x="1314" 
d="M1353 333q8 -3 11 -10.5t0 -15.5q-20 -45 -50 -80t-75 -62l-19 -11t-19 -10q23 -34 35 -73t12 -82q0 -66 -28.5 -128.5t-79.5 -112.5q-52 -51 -123 -80q-75 -30 -162 -30q-62 0 -108.5 30t-65.5 83q-20 54 -1 115q20 62 78 111q70 58 143.5 90.5t141.5 56.5
q-32 49 -92 87t-154 55q-4 0 -9 4t-7.5 10t0 12.5t12.5 11.5q34 15 75.5 57.5t73.5 99.5q32 59 47 116.5t9 102.5q-8 61 -35.5 81t-62 13.5t-70.5 -34t-61 -62.5q-34 -48 -63.5 -115t-53.5 -153q-21 -73 -35 -140.5t-22 -120t-11 -84t-3 -32.5q-2 -12 -13 -23.5t-27 -20
t-34 -12.5t-33.5 -1t-26 13t-11.5 31q0 1 -2.5 28t-5.5 72.5t-6 105t-5 125.5q-2 71 -2.5 132t1.5 113q-18 -6 -36.5 -11.5l-37.5 -11.5q-59 -18 -112 -37t-94 -46q-45 -29 -65.5 -65.5t-20.5 -84.5q0 -8 -6 -14t-14 -6t-14 6t-6 14q0 116 104 184q45 29 101.5 49t114.5 38
l44.5 13.5t43.5 14.5q6 125 27 185q15 49 50 79q31 28 70 34q31 5 57.5 -4.5t43.5 -30.5q6 -7 11.5 -18t7.5 -26.5t-1 -36t-14 -45.5q-17 -39 -46 -67.5t-65 -50.5q-3 -52 -4 -111t0 -119t3 -118.5t5 -108.5q9 50 21 106.5t29 114.5q51 176 124 279q94 133 218 133
q95 0 143 -50q45 -45 45 -121q0 -63 -29 -133q-28 -67 -75 -127q-29 -35 -59.5 -61.5t-62.5 -43.5q45 -8 83 -18q81 -24 140 -70q10 -8 18.5 -16.5t16.5 -17.5q50 24 89 58t63 89q4 8 11 11t15 -1zM633 792q15 33 13.5 54t-11.5 25.5t-25 -9.5t-27 -50q-7 -20 -11.5 -45.5
t-8.5 -57.5q23 17 41 37.5t29 45.5zM719 -236q5 -14 16.5 -29t27 -27t33 -19t34.5 -4q68 12 117 42.5t80.5 71.5t46.5 88t15 91q0 27 -6 55t-19 56l-71 -25.5t-71 -30t-70 -37.5t-68 -49q-47 -39 -64.5 -88t-0.5 -95z" />
    <glyph glyph-name="D" unicode="D" horiz-adv-x="1447" 
d="M1485 332q8 -4 11 -11t-1 -15q-19 -46 -59 -81q-36 -30 -86 -52q-29 -12 -61 -21.5t-67 -17.5q-12 -60 -29 -114.5t-40 -102.5q-50 -110 -121 -172q-80 -68 -176 -68q-62 0 -108 30t-65 82q-21 54 -2 115q20 64 79 112q66 56 175 92q36 12 73.5 21t75.5 17q9 47 15 95.5
t8 99.5q4 93 -5 178t-30 153q-45 146 -110 158.5t-151 -103.5q-76 -105 -138 -289q-21 -63 -37.5 -125t-28.5 -115.5t-20.5 -95t-12.5 -63.5q-6 -27 -27.5 -35.5t-46 -5t-44.5 15t-22 24.5q0 1 -2 25.5t-4.5 66.5t-5.5 98.5t-5 122.5q-2 71 -2.5 132t1.5 113
q-18 -6 -36.5 -11.5l-37.5 -11.5q-59 -18 -112 -37t-94 -46q-45 -29 -65.5 -65.5t-20.5 -84.5q0 -8 -6 -14t-14 -6t-14 6t-6 14q0 116 104 184q45 29 101.5 49t114.5 38l44.5 13.5t43.5 14.5q6 125 27 185q15 49 50 79q31 28 70 34q31 5 57.5 -4.5t43.5 -30.5q6 -7 11.5 -18
t7.5 -26.5t-1 -36t-14 -45.5q-17 -39 -46 -67.5t-65 -50.5q-4 -53 -4.5 -113.5t0.5 -121.5t3.5 -120t5.5 -110q13 57 30.5 123t40.5 135q32 95 68 170t76 130q20 27 44 52.5t52.5 45.5t61.5 32t69 12q59 0 106 -39.5t79 -115.5q28 -66 42.5 -152.5t14.5 -186.5
q0 -114 -18 -222q28 7 54.5 15t49.5 18q48 20 78 47.5t47 64.5q3 8 10.5 10.5t15.5 -0.5zM633 792q15 33 13.5 54t-11.5 25.5t-25 -9.5t-27 -50q-7 -20 -11.5 -45.5t-8.5 -57.5q23 17 41 37.5t29 45.5zM720 -197q36 -44 76 -48.5t79 18t74.5 64t63 89.5t44 95.5t17.5 81.5
q-80 -17 -155 -43t-134 -75q-47 -39 -64.5 -87.5t-0.5 -94.5z" />
    <glyph glyph-name="H" unicode="H" horiz-adv-x="1225" 
d="M1260 334q8 -3 11.5 -10t1.5 -15l-7 -20t-19.5 -51.5l-29.5 -72t-38 -82.5q-49 -99 -98 -158q-11 -13 -25 -27t-29.5 -25t-33.5 -18.5t-37 -7.5h-2q-50 0 -89 58t-63 175q-11 52 -17 112t-8 124q-1 30 -0.5 59t1.5 58q-40 -16 -81 -30l-82 -28l-87 -30
q17 -161 17.5 -258.5t-22.5 -132.5q-9 -14 -34 -20t-51.5 -4.5t-46.5 8.5t-19 19q-1 6 2.5 10.5t9 9t10.5 9.5t7 14q3 14 5 35.5t1 49.5q0 43 -4 95t-9 110q-48 -24 -77 -51.5t-29 -60.5q0 -8 -6 -14t-14 -6t-14 6t-6 14q0 43 33 81q14 16 34 30.5t46 28.5l28 15
q0 58 -8.5 116.5t-12.5 120.5l-43.5 -17.5l-43.5 -16.5q-48 -18 -91 -36.5t-76 -40.5t-52 -51t-19 -68q0 -8 -6 -14t-14 -6t-14 6t-6 14q0 90 85 150q36 26 81.5 45t96.5 38l50.5 19.5t48.5 20.5q-3 66 -0.5 121t14.5 90q15 46 46 74q29 26 64 32q30 5 57.5 -5t44.5 -32
q19 -26 21 -60q3 -34 -16 -75q-29 -65 -92 -112q2 -60 8 -127l12 -133l78 27l89.5 31l88.5 33q3 43 9 85q8 60 20 110.5t29 87.5q34 79 83 123q46 41 94 44q31 2 56 -11.5t41 -40.5q26 -42 18 -104q-9 -68 -53 -138q-46 -73 -155 -134q-9 -105 -3 -220q4 -68 12 -128.5
t22 -110.5q13 -51 26.5 -77.5t28.5 -32.5t30.5 5t32 34.5t34.5 57.5l38 74q21 41 38 80.5t29 70t18.5 50l6.5 19.5q2 8 9.5 11.5t15.5 1.5zM1090 775q6 49 -13 80q-7 12 -20 5t-28 -25t-30 -42.5t-25 -48.5q-16 -36 -27.5 -85.5t-19.5 -109.5q38 23 67 49t49 57t32 61.5
t15 58.5zM560 774q12 26 11.5 51t-8 36t-20.5 2t-26 -51q-7 -20 -10 -49.5t-3 -65.5q17 17 31 35.5t25 41.5z" />
    <glyph glyph-name="P" unicode="P" horiz-adv-x="1305" 
d="M778 205q-13 7 -10 22t19 15q6 1 12 1h12q56 20 109 67.5t97 115.5q45 69 69 142t22 135q-2 48 -15 76t-34 40.5t-47.5 10t-55 -16.5t-57 -37t-52.5 -53q-83 -103 -156 -286q-26 -66 -46.5 -131.5t-35.5 -120.5t-24 -96l-13 -58q-5 -22 -26.5 -31t-46 -9t-45 8.5
t-22.5 20.5q0 1 -2 28t-5 72.5t-6.5 105t-5.5 125.5q-2 71 -2 132t2 113l-37.5 -11.5t-36.5 -11.5q-59 -18 -112 -37t-95 -46q-86 -56 -86 -150q0 -8 -6 -14t-14 -6t-14 6t-6 14q0 116 104 184q45 29 102 49t115 38l44 13.5t43 14.5q8 125 27 185q17 49 50 79q33 28 71 34
q30 5 57 -4.5t44 -30.5q5 -7 10.5 -18t8 -26.5t-0.5 -36t-15 -45.5q-17 -39 -45.5 -67.5t-64.5 -50.5q-4 -57 -4.5 -122t1 -130.5t4 -127.5t5.5 -113q16 60 39 134.5t53 152.5q76 190 162 297q90 111 191 134h1q13 3 25.5 4t25.5 1q51 0 90 -16t64 -45q48 -55 50 -147
q0 -75 -34 -158q-17 -42 -41 -81t-54 -73q-32 -38 -70 -67t-80 -50q-14 -7 -29 -13t-38 -11.5t-56.5 -11t-82.5 -10.5zM630 792q15 33 13 53.5t-12.5 25t-25.5 -9t-26 -49.5q-6 -20 -11 -45.5t-8 -57.5q23 17 41 37.5t29 45.5z" />
    <glyph glyph-name="C" unicode="C" horiz-adv-x="1099" 
d="M1130 327q8 -2 12 -9.5t1 -15.5q0 -2 -7 -21.5t-20.5 -51t-33 -71t-44.5 -81.5q-63 -101 -129 -157q-88 -74 -181 -74q-54 0 -100 31q-41 26 -79 79q-32 48 -57 111.5t-40 141.5q-17 85 -21.5 172.5t3.5 170.5q-65 -5 -127 -14t-113 -26q-71 -25 -106.5 -65.5
t-39.5 -101.5q-1 -8 -7 -14t-14 -5t-14 7t-5 14q4 77 54 131q43 46 119 71q57 20 123 29t136 15q8 56 24 111t45 106q47 79 115 108q51 23 104 15q49 -6 89 -37q40 -30 60 -79q11 -24 14 -51t-1 -54q-12 -89 -135 -123q-38 -11 -83.5 -16.5t-95.5 -10.5q-5 -34 -6.5 -70.5
t-0.5 -74.5q2 -91 17.5 -176.5t42.5 -157.5q38 -96 84 -133.5t95 -29.5t99 55t96 122q25 40 44 79t32 69.5t19.5 49.5l6.5 19q3 8 10 11.5t15 1.5zM851 718q6 44 -9.5 82.5t-48.5 63.5q-25 19 -49 16.5t-46 -20.5t-41.5 -48.5t-34.5 -65.5t-25.5 -72.5t-14.5 -70.5
q52 4 99 11t83.5 20t59 33t27.5 51z" />
    <glyph glyph-name="R" unicode="R" horiz-adv-x="1508" 
d="M1535 337q8 -1 13 -7.5t4 -14.5q0 -1 -4 -28t-12.5 -71.5t-22 -100t-31.5 -113.5q-22 -69 -47 -123.5t-52 -94.5q-47 -67 -102 -91l-1 -1q-29 -13 -62 -13q-38 0 -63 19q-23 17 -36 49q-12 28 -17.5 63t-10.5 73q-6 51 -16 105t-36 97q-57 94 -203 94q-8 0 -14 6t-6 14
t6 14t14 6q22 0 45 3q69 30 124 85t92 121.5t54.5 137t11.5 132.5q-7 73 -38.5 108t-75.5 37.5t-95 -24.5t-96 -78q-45 -52 -87 -124.5t-79 -165.5q-29 -70 -51 -140.5t-37.5 -130.5t-24.5 -103.5t-13 -59.5q-7 -30 -29 -36t-46 0t-42.5 18.5t-18.5 20.5q0 1 -2 28t-5 72.5
t-6.5 105t-5.5 125.5q-2 71 -2.5 132t1.5 113l-36.5 -12t-36.5 -11q-59 -18 -112 -37t-95 -46q-45 -29 -65.5 -65.5t-20.5 -84.5q0 -8 -6 -14t-14 -6t-14 6t-6 14q0 116 104 184q45 29 102 49t115 38l44 13.5t43 14.5q8 125 27 185q17 49 50 79q33 28 70 34q31 5 58 -4.5
t44 -30.5q5 -7 10.5 -18t7.5 -26.5t-1 -36t-14 -45.5q-17 -39 -45.5 -67.5t-65.5 -50.5q-4 -56 -4.5 -120t1 -128.5t4.5 -125.5t6 -112q15 61 38.5 137.5t55.5 156.5q79 192 174 301q21 24 53 49t69.5 45t78.5 33t81.5 12.5t77.5 -17t67 -54.5q51 -61 49 -160
q0 -82 -33 -166q-34 -88 -93 -159q-64 -77 -147 -121q-8 -5 -15 -8t-15 -7q24 -4 45 -10t40 -16q27 -14 49 -34.5t38 -47.5q16 -26 24 -62t11.5 -75.5t5.5 -78t7 -70.5t15.5 -53t30.5 -25t45 22.5t50 68t47 91t35 90.5q18 57 31 111.5t21 97.5t12 69.5t4 27.5q2 8 8.5 13
t14.5 4zM628 792q15 33 13 54t-12 25.5t-25 -9.5t-27 -50q-7 -20 -11.5 -46t-7.5 -57q23 17 41 37.5t29 45.5z" />
    <glyph glyph-name="J" unicode="J" horiz-adv-x="740" 
d="M779 327q8 -4 10 -11.5t-3 -15.5q-17 -29 -38.5 -48.5t-47 -32t-55 -21t-60.5 -15.5q5 -171 -15 -299q-17 -109 -49 -182q-36 -84 -94 -127q-85 -64 -166 -64h-2q-75 0 -129 57q-32 34 -49.5 82.5t-16.5 104.5q2 60 23.5 116.5t61.5 104.5q101 121 223 181q39 19 73 30
q-2 110 -12.5 216t-22.5 197l-3 -7q-62 -132 -142 -207q-105 -96 -233 -96q-8 0 -14 6t-6 14t6 14t14 6q208 0 339 280q25 53 42 104t27.5 91t15.5 65l5 25q3 17 20 17q7 0 12.5 -4t7.5 -12q0 -1 9 -48.5t22 -126.5t26 -182t21 -214q2 -26 3 -51l2 -50q28 7 53 14t46 17.5
t38 26t31 38.5q4 8 11.5 10t15.5 -3zM104 -246q-1 -50 13 -92t40.5 -65.5t63.5 -24t82 34.5q69 51 105 179q32 111 37 283q1 19 1 38v38q-31 -11 -63 -27.5t-65.5 -39.5t-68 -54.5t-69.5 -73.5q-36 -42 -55 -92.5t-21 -103.5z" />
    <glyph glyph-name="Q" unicode="Q" horiz-adv-x="1417" 
d="M1385 155q-47 -62 -112 -102l14 -22l14 -23q48 -83 79 -177q14 -47 22 -90t8 -80q0 -67 -26 -105q-6 -9 -13.5 -17.5t-17.5 -13.5q-24 -15 -58 -15q-56 0 -98 44q-49 51 -78 170q-22 96 -30 238q0 9 -0.5 17.5t-0.5 17.5q-8 -1 -16.5 -1.5t-17.5 -0.5q-60 0 -97 32
q-35 30 -35 75q0 21 9.5 41t26.5 35q38 33 99 33q15 0 29 -3q3 112 8 224l10 227q-25 -80 -56 -157q-64 -154 -148 -271q-26 -36 -62.5 -75.5t-79 -72.5t-88.5 -55t-90.5 -23t-86 23.5t-75.5 84.5q-57 104 -61 286q-2 56 3 107q-33 2 -64 -0.5t-60 -9.5
q-72 -18 -114.5 -67.5t-62.5 -135.5q-2 -8 -9 -12.5t-15 -2.5t-12.5 9t-2.5 15q43 192 207 232q32 8 66.5 11t70.5 1q8 65 25 117q16 53 40 95.5t55 74.5q38 39 86 61q48 20 95 20q101 0 184 -54q38 -24 66.5 -56.5t43.5 -70.5q22 -52 14 -102q-9 -54 -50 -95
q-59 -59 -174 -65q-50 -2 -103 4t-111 14l-36 4q-2 -22 -2.5 -45t0.5 -48q5 -153 44 -244q34 -73 71 -88.5t98 26.5q82 55 157 161q85 118 147.5 275.5t99.5 337.5q2 11 24 21t47 14t45 -1.5t20 -24.5q0 -14 -1.5 -49.5l-3.5 -86t-5 -110.5t-5.5 -123.5t-4.5 -125t-3.5 -115
t-2 -93.5t0.5 -60l24 -29q60 36 103 93q21 27 35 52.5t22.5 46t12.5 33.5l4 13q2 8 9 12t15 2t12 -9t2 -15q0 -1 -4 -15t-13 -36t-24.5 -50t-37.5 -57zM922 718q-26 66 -72 102t-98 39t-103.5 -28t-88.5 -99q-22 -41 -36 -90.5t-22 -108.5l19.5 -2t19.5 -3
q54 -7 105.5 -12.5t97.5 -4t84.5 13t66.5 39.5q21 21 30 43t10 42.5t-3.5 38.5t-9.5 30zM1370 -339q0 34 -7.5 74t-21 83t-32.5 86t-43 84q-14 25 -29 46q-2 -2 -5 -2.5t-6 -2.5l2 -51t3 -50q11 -147 39 -237q13 -42 30.5 -71.5t33 -38t26.5 9t10 70.5zM1054 35q8 0 16 0.5
t16 1.5q-1 32 -1 64.5v64.5q-15 5 -28 5q-49 0 -72 -22t-23 -47q0 -27 21 -45q25 -22 71 -22z" />
    <glyph glyph-name="X" unicode="X" horiz-adv-x="1122" 
d="M1151 334q8 -2 12 -9t2 -15q0 -2 -5.5 -22.5t-16 -53t-26.5 -73.5t-37 -84q-49 -102 -108 -162q-31 -31 -65.5 -50.5t-70.5 -24.5t-72.5 6t-71.5 40q-50 41 -102 121q-21 33 -42.5 72.5t-42.5 84.5q-38 -44 -62 -88t-38 -89.5t-19 -92.5t-5 -98q0 -9 -14 -20.5t-31 -16
t-31.5 2t-14.5 32.5q-1 42 7 81t23 76t35 72t43 70q20 28 42.5 55.5l46.5 55.5l-32 77l-32 84q-37 100 -65.5 196t-48.5 170l-4 -51q-10 -98 -35 -177q-31 -97 -84 -155q-66 -70 -163 -70q-8 0 -14 5.5t-6 14.5q0 8 6 14t14 6q79 0 134 58q42 45 69.5 122.5t38.5 184.5
q4 41 5.5 77.5t1.5 64.5q0 33 -2 60q1 12 19.5 25.5t42 22t45 6.5t27.5 -21q0 -1 10.5 -45t29.5 -115l44.5 -159.5t57.5 -178.5l20 -56.5t21 -53.5l45 46q61 63 111 127t85.5 131t54.5 138t19 147q0 9 16.5 20.5t36.5 16t36 -2.5t15 -33q-4 -82 -32 -157.5t-78 -147.5
q-49 -69 -111 -135.5l-125 -131.5l-57 -58l54 -111t52 -104t52 -85t54.5 -55t60 -13t67.5 41q54 54 101 151q21 42 36 82t25.5 71.5t16 51.5l5.5 20q2 8 9 12.5t15 2.5z" />
    <glyph glyph-name="E" unicode="E" horiz-adv-x="820" 
d="M848 338q8 -2 13 -9t3 -15q-24 -124 -69 -220t-109 -160q-42 -42 -97.5 -68t-112.5 -29t-110.5 20.5t-92.5 79.5q-31 45 -44 101.5t-8 122.5q9 108 61 186q43 64 109 100l26 14q-13 5 -30 17q-50 35 -80 113q-41 -23 -79.5 -47.5t-71.5 -51.5q-113 -89 -107 -172
q1 -9 -4.5 -15t-13.5 -7t-14.5 4.5t-7.5 13.5q-7 104 122 208q36 29 78 55.5t86 50.5q-10 47 -1 103q12 67 49 117q29 41 67.5 62t81.5 21q37 0 72.5 -18.5t49.5 -56.5q3 -9 4.5 -21.5t-3 -27.5t-16 -32.5t-34.5 -35.5q-24 -19 -58 -39l-76 -43q1 -10 3 -19l4 -18
q14 -43 46 -78.5t66 -50.5q15 -7 12 -20t-11 -17q-32 -16 -64 -44t-58.5 -66t-45 -85.5t-22.5 -102.5q-6 -81 17 -143.5t65.5 -93.5t98.5 -23.5t116 65.5q60 60 102 150.5t65 208.5q2 8 8.5 13t14.5 3zM576 845q-14 30 -32.5 31t-37 -14.5t-34.5 -40t-24 -44.5
q-13 -34 -18 -73l62 36t48 33q8 6 16 14.5t14 17.5t8 19t-2 21z" />
    <glyph glyph-name="O" unicode="O" horiz-adv-x="1152" 
d="M1201 313q2 -8 -2 -15t-12 -9q-33 -10 -56.5 -15t-44 -7t-41 -1.5t-48.5 2.5q-19 -49 -47 -92q-53 -84 -122 -131q-78 -51 -168 -51q-81 0 -147 39.5t-112 116.5q-39 66 -60 152q-9 41 -14 82.5t-5 84.5q0 34 3 66l-28 -11q-50 -19 -96 -38.5t-81 -43.5t-56 -53.5
t-19 -69.5q1 -8 -5 -14.5t-14 -6.5q-8 -1 -14 5t-7 14q-3 91 88 155q39 27 88.5 48l100.5 41q12 5 24.5 9.5t24.5 9.5q12 77 41 135q27 52 63 82q43 32 91 32q26 0 44.5 -11.5t24.5 -31.5q5 -12 3.5 -32t-17.5 -47q-26 -45 -85 -87q-8 -7 -19 -13q-12 -53 -14.5 -114
t6.5 -124q11 -78 37 -139t62.5 -102.5t80 -60.5t89.5 -12t91.5 41.5t86.5 100.5q11 17 21 36t19 39l-21 4l-21 4q-63 15 -119 49q-25 16 -47 34.5t-42 41.5q-19 23 -35 48t-28 53q-24 52 -33 110q-8 55 -3 106.5t25 93.5q21 46 54 71q37 28 85 28q69 0 123 -29t92 -86
q33 -50 50 -118q16 -63 16 -139q0 -96 -26 -192l-8 -27q39 -12 77 -11t81 14q8 2 15.5 -2t9.5 -12zM952 778q-41 62 -79.5 75t-68 -10t-44.5 -75.5t-8 -120.5q4 -44 19.5 -89.5t43.5 -87t68.5 -76.5t96.5 -57q32 101 32 206q0 71 -15.5 131t-44.5 104zM496 671q16 14 31 29
t24.5 28t12 23t-4.5 13q-11 5 -20 -3t-16.5 -23t-14 -33.5t-12.5 -33.5z" />
    <glyph glyph-name="V" unicode="V" horiz-adv-x="1099" 
d="M1156 319q3 -7 1 -13.5t-7 -10.5l-2 -2q-32 -33 -61 -56.5t-61.5 -37.5t-69.5 -18.5t-83 1.5l-10.5 -22.5t-11.5 -22.5q-55 -106 -127 -167q-32 -27 -71 -45t-80 -21.5t-80.5 10t-70.5 49.5q-56 67 -79 206q-9 55 -12.5 119t-1.5 139l4 81t6 74l-17 -35t-19 -36
q-55 -98 -116 -156q-80 -74 -165 -74q-8 0 -14 6t-6 14t6 14t14 6q70 0 138 63q55 52 108 146q3 6 11 23.5l18 40.5l21 49l20 48.5l15 38.5t7 19q2 14 14 23t28.5 13t34.5 2t32.5 -9t22.5 -20t5 -32q0 -1 -4.5 -32t-10 -81.5t-9.5 -116t-4 -135.5q0 -79 11.5 -152.5t33 -129
t52 -87t69 -28t84 48.5t96.5 143q5 8 9 17t9 18q-30 9 -62 23q-55 25 -96.5 83t-64.5 144q-21 75 -23.5 156.5t14.5 151.5q14 55 38.5 95t57.5 61.5t73 22t84 -21.5q23 -14 42 -36t33 -51q41 -90 38 -232q-3 -91 -23 -185.5t-54 -180.5l1 -1q53 -2 90 9t63.5 27.5t46 36
t39.5 36.5q6 5 14.5 1.5t11.5 -11.5zM927 588q4 64 -7 117t-30.5 88t-44.5 48.5t-48.5 -1.5t-42.5 -62t-26 -133q-5 -65 4 -132t29 -125q35 -101 94 -146q32 82 49 171t23 175z" />
    <glyph glyph-name="L" unicode="L" horiz-adv-x="1298" 
d="M1326 333q8 -1 13 -7.5t4 -14.5q-26 -175 -93 -282q-14 -21 -31.5 -42t-39 -37.5t-47.5 -27t-56 -10.5q-37 0 -75.5 12t-78 31.5t-79.5 44l-79 50.5l-38 25q-17 -25 -38.5 -40.5t-48.5 -24t-58.5 -11.5t-66.5 -3q-43 0 -71.5 21t-37.5 51q-5 16 -3.5 35t11 36.5t28 32.5
t47.5 25q31 10 65 4t72 -23v6q4 60 -3.5 134.5t-17.5 149.5l-6 45.5t-5 44.5q-51 -17 -105.5 -28t-109.5 -21q-62 -11 -118 -22.5t-101 -31.5q-48 -22 -73.5 -52t-33.5 -73q-2 -8 -8.5 -13t-14.5 -3t-13 8.5t-3 14.5q18 103 130 154q48 22 106.5 34.5t121.5 23.5
q57 10 112 21t105 29q-6 66 -6 122t13 98q14 42 40.5 68.5t62.5 33.5q26 4 49 -3t44 -22l13 -14q22 -28 24 -64.5t-15 -76.5q-30 -68 -88 -114q3 -38 8 -77.5l10 -79.5q5 -39 13 -84t12 -91t1 -91t-19 -83q30 -21 70.5 -41t84.5 -36t89.5 -25t86.5 -7q54 2 93 33.5t65.5 77
t42 98t21.5 96.5q2 8 8.5 13t14.5 3zM477 43q30 -14 76 -1q33 9 51 45q10 20 16 49l-7 3q-51 24 -86 24q-7 0 -13.5 -1t-12.5 -3q-39 -14 -51.5 -37t-6.5 -43q8 -24 34 -36zM776 757q10 23 9.5 47t-7.5 35.5t-19.5 4t-25.5 -46.5q-7 -23 -9.5 -53.5t-1.5 -65.5
q17 17 30.5 36.5t23.5 42.5z" />
    <glyph glyph-name="G" unicode="G" horiz-adv-x="1347" 
d="M1389 328q17 -11 7 -28q-28 -47 -67 -69.5t-87 -35.5q-6 -91 -17 -168.5t-27 -144.5q-24 -107 -62 -181q-42 -84 -99 -126q-85 -64 -166 -64h-2q-75 0 -129 57q-32 34 -49.5 82.5t-16.5 104.5q2 60 23.5 116.5t61.5 104.5q101 121 223 181q32 16 62 26.5t59 18.5
q2 29 3.5 60t2.5 63q4 121 0.5 231.5t-7.5 190.5q-33 -130 -81 -245q-63 -154 -148 -271q-78 -109 -161 -167t-158 -58q-9 0 -14 1q-94 8 -149 106q-55 102 -60 286q-1 28 -0.5 54.5t2.5 52.5q-68 3 -123 -10q-72 -18 -115 -67.5t-63 -135.5q-2 -8 -9 -12.5t-15 -2.5
t-12.5 9t-2.5 15q43 192 207 232q32 8 66.5 11t70.5 1q5 32 11 61t14 56q33 106 96 170q38 39 86 61q46 20 95 20q50 0 96 -14t88 -40q77 -50 110 -127q22 -53 13 -102q-7 -53 -49 -95q-59 -59 -174 -65q-50 -2 -103.5 4t-110.5 14l-37 4q-2 -22 -2 -45t1 -48
q3 -153 44 -244q32 -73 70.5 -88.5t98.5 26.5q82 55 157 161q85 118 147.5 275.5t99.5 337.5q5 24 26.5 38t46.5 18t46 -3.5t24 -26.5q0 -1 4.5 -49t8.5 -127t6 -181.5t-1 -213.5q-1 -22 -1.5 -43.5t-2.5 -42.5q38 11 67 29.5t50 53.5q4 8 11.5 10t15.5 -2zM714 -246
q-1 -49 13.5 -91t41 -66t63.5 -24.5t81 34.5q74 55 121 194.5t65 358.5q-35 -11 -72 -26.5t-76 -39.5t-79.5 -59.5t-81.5 -84.5q-36 -42 -55 -92.5t-21 -103.5zM896 718q-24 57 -70 91t-99.5 38.5t-105.5 -23t-87 -92.5q-45 -83 -58 -199l19.5 -2t18.5 -3q54 -7 106 -12.5
t98 -4t84.5 13t65.5 39.5q21 21 30 43t10.5 42.5t-3 38.5t-9.5 30z" />
    <glyph glyph-name="S" unicode="S" horiz-adv-x="817" 
d="M845 331q8 -2 12 -9.5t2 -15.5q-22 -79 -108 -128l-26 -13q64 -95 64 -202q1 -71 -40 -134q-36 -52 -102 -92q-35 -20 -78 -35.5t-88.5 -21t-90.5 0.5t-83 29q-32 17 -51 48t-19 72q0 144 108 224q46 34 102.5 55t114.5 39q-22 26 -47 51.5l-51 52.5l-97 101t-87 112
q-5 6 -8.5 12.5t-7.5 12.5l-55 -21q-34 -12 -64 -24.5t-52 -29.5t-34.5 -41.5t-12.5 -61.5q0 -8 -6 -14t-14 -6t-14 6t-6 14q0 84 61 133q26 21 59 34.5l69 27.5l50 18q-55 110 -55 228q0 57 20 105q21 45 58 70q27 17 58 21t59 -5t49 -31t29 -56q6 -29 5.5 -64.5
t-7.5 -76.5q-18 -98 -83 -159q34 -65 84.5 -117.5t104.5 -102.5l70 -67t64 -72q45 20 76.5 48t43.5 71q2 8 9 12t15 2zM277 -170q0 -56 50 -86q31 -17 67 -17.5t71.5 11.5t69 35t59 53t40.5 65t15 72q0 40 -16 77.5t-44 74.5l-10 -3q-57 -18 -112 -38t-98 -52
q-48 -35 -70 -81.5t-22 -110.5zM421 723q7 36 7 68.5t-5 57.5q-2 9 -6.5 20.5t-12 19.5t-17 10t-20.5 -7q-4 -3 -10.5 -11.5t-12.5 -24.5t-10 -41t-4 -62q0 -45 8 -83.5t22 -73.5q22 23 37.5 53.5t23.5 73.5z" />
    <glyph glyph-name="W" unicode="W" horiz-adv-x="1477" 
d="M1532 320q7 -13 -4 -22q0 -1 -1 -1q-22 -31 -51 -49.5t-62.5 -27t-69.5 -7.5t-72 9l-22 -66.5t-25 -62.5q-25 -60 -53.5 -106.5t-60.5 -81.5q-23 -27 -54.5 -48t-65.5 -29.5t-68.5 -0.5t-63.5 39q-98 107 -96 470q1 34 1.5 66.5t2.5 63.5q-10 -32 -21.5 -65.5
t-25.5 -67.5q-69 -171 -141.5 -257t-150.5 -86q-64 0 -107 51q-42 51 -59.5 152t-9.5 252q1 10 1.5 19t0.5 19q-17 -38 -37 -69t-42 -54q-67 -70 -151 -70q-8 0 -14 6t-6 14t6 14t14 6q45 0 81 23.5t63.5 60.5t47.5 82.5t34 89t22 80t12 56.5q2 10 13 19t26 15.5t33 9t33 0
t25.5 -11.5t11.5 -26q0 -1 -5 -29.5t-11 -74.5t-12 -104t-8 -118q-2 -70 2 -127.5t15 -102.5q23 -107 61.5 -116t98.5 70q58 79 116 222q24 60 42 115t30 97.5t18.5 68.5t6.5 28q2 17 25.5 32.5t50 21t48 -3t20.5 -39.5q0 -1 -3.5 -33t-7.5 -84.5t-7 -120t-2 -139.5
q1 -84 8 -152t20 -121q11 -46 24 -78t30.5 -45t40.5 -5t55 42q58 64 107 177q25 60 44 124l-28 10.5l-28 11.5q-58 26 -106 91q-42 57 -68 136q-25 77 -30.5 156t10.5 145q17 70 56 109q45 45 110 41q38 0 66 -17t48 -45t33 -64t20.5 -74.5t10 -76t2.5 -68.5
q0 -59 -7 -122.5t-21 -128.5l-15 -63l7 -3q57 -25 112 -11.5t90 60.5q6 8 11 10q8 4 15.5 1t10.5 -11zM1254 807q-18 40 -35 55t-32.5 11.5t-29 -22t-23 -46t-15.5 -60.5t-7 -65q-2 -62 10.5 -126t35.5 -121q19 -44 42.5 -78t50.5 -57q18 73 27.5 147t10.5 143
q1 68 -8.5 123.5t-26.5 95.5z" />
    <glyph glyph-name="U" unicode="U" horiz-adv-x="1386" 
d="M1414 333q8 -2 13 -8.5t3 -14.5q0 -2 -3.5 -21.5t-11 -50t-19 -69.5t-27.5 -80q-20 -48 -41 -86.5t-45 -67.5q-62 -75 -137 -75q-41 0 -70 34q-52 59 -68 227q-12 131 -3 324q1 17 1.5 32.5t2.5 31.5l-10 -32l-10 -32q-61 -182 -142 -289q-104 -136 -235 -136
q-108 0 -175 82q-61 79 -80 227q-7 59 -7.5 127t5.5 146l5 48l-16 -39q-30 -68 -62 -122t-66 -93q-89 -103 -191 -103q-8 0 -14 6t-6 14t6 14t14 6q83 0 161 89q32 37 62 88t59 117q22 51 38.5 99.5t28 89t19 70t12.5 44.5v1q1 11 23.5 19.5t48.5 9.5t47 -7.5t20 -31.5
q0 -1 -7 -34t-16 -88t-18 -125.5t-12 -145.5q-8 -176 23 -290q21 -76 53.5 -116.5t72 -47t84.5 20t91 85.5q38 51 72 120t64 157q22 67 38.5 129.5t27.5 114.5t16.5 91t7.5 60q0 15 11 25t27.5 15.5t35.5 7t34.5 -2t25.5 -11t8 -19.5q0 -1 -5 -39.5t-11.5 -101t-13 -142.5
t-9.5 -164q-5 -114 -1.5 -205t13.5 -154.5t26.5 -96t38.5 -30t50 43.5t60 126q15 39 26.5 77t19 68t11 49l3.5 19q2 8 8.5 13t14.5 3z" />
    <glyph glyph-name="I" unicode="I" horiz-adv-x="961" 
d="M982 333q8 0 13.5 -6.5t5.5 -14.5q-6 -100 -36 -172q-26 -67 -78 -113q-79 -70 -216 -83q-61 -8 -121.5 -5t-124.5 7q-65 5 -123.5 6.5t-106.5 -7.5q-49 -10 -76 -32.5t-36 -61.5q-5 -15 -20 -15h-5q-8 2 -12 9.5t-2 15.5q24 101 144 123q51 10 112 8.5t128 -6.5
q24 -2 48.5 -3l49.5 -2q-22 35 -32.5 98t-12.5 161q-1 94 5.5 199t13.5 204q5 68 9 130t5 110q-47 -3 -92 -9.5t-88 -20.5t-82 -36t-72 -55q-69 -69 -103 -180t-34 -269q0 -8 -6 -14t-14 -6t-14 6t-6 14q0 86 10 159.5t30 134.5q36 112 109 183q92 92 249 120q68 12 137 14
t133 1q74 0 135 2.5t102 20.5q8 4 15.5 1t10.5 -11q4 -8 1 -15t-11 -11q-46 -21 -110.5 -24t-142.5 -3h-17q-1 -49 -5 -112t-9 -133q-3 -48 -6.5 -98t-6.5 -100.5t-4.5 -100t-1.5 -94.5q3 -200 47 -247q12 -12 29 -12q48 7 89.5 23.5t74.5 45.5q90 79 100 257q1 9 7 14.5
t14 4.5z" />
    <glyph glyph-name="Y" unicode="Y" horiz-adv-x="1310" 
d="M1351 328q8 -5 10 -12.5t-2 -15.5q-28 -47 -67.5 -69.5t-86.5 -35.5q-7 -91 -18 -168.5t-26 -144.5q-26 -108 -63 -181q-42 -83 -98 -126q-85 -64 -166 -64h-3q-75 0 -129 57q-32 34 -49.5 82.5t-15.5 104.5q1 60 22.5 116.5t61.5 104.5q52 62 106.5 106.5t116.5 74.5
q32 16 62 26.5t59 18.5q4 58 6 123q4 106 2 203.5t-6 175.5q-12 -57 -28.5 -123.5t-39.5 -135.5q-61 -182 -142 -289q-104 -136 -235 -136q-108 0 -175 82q-61 79 -80 227q-7 59 -7.5 127t5.5 146l5 48l-16 -39q-30 -68 -62 -122t-66 -93q-89 -103 -191 -103q-8 0 -14 6
t-6 14t6 14t14 6q83 0 161 89q32 37 62 88t59 117q22 51 40 103t31 97t21.5 78.5t11.5 48.5q2 9 23.5 12t46.5 -2.5t44 -20t16 -39.5q0 -1 -6.5 -31.5t-15 -82t-17 -119.5t-11.5 -143q-8 -176 23 -290q21 -76 53.5 -116.5t72 -47t84.5 20t91 85.5q38 51 72 120t64 157
q28 85 46 161t28.5 136.5t14.5 102t5 56.5q0 5 9.5 8.5t24 5.5t32 2t32.5 -4t26 -11.5t14 -19.5q0 -1 4.5 -49t8.5 -127t6.5 -181.5t-1.5 -213.5q-1 -22 -1.5 -43.5t-2.5 -42.5q38 11 67.5 29.5t49.5 53.5q4 8 12 10t15 -2zM677 -246q-1 -48 13 -90t40 -66t63 -24.5t83 33.5
q74 55 120.5 194.5t65.5 358.5q-35 -11 -72.5 -26.5t-76.5 -39.5t-79.5 -59.5t-81.5 -84.5q-35 -42 -54.5 -92.5t-20.5 -103.5z" />
    <glyph glyph-name="K" unicode="K" horiz-adv-x="1179" 
d="M1204 328q8 -2 13 -8.5t3 -14.5q-6 -27 -16.5 -61.5t-26 -70.5t-36 -70.5t-45 -62t-53.5 -44t-62 -16.5q-29 0 -52 11t-42.5 29t-37.5 41l-36 47l-46 60.5t-54 54.5t-69 38.5t-90 12.5l5.5 -95.5l4.5 -76t3.5 -50.5t1.5 -19q0 -9 -19.5 -22t-44.5 -21t-46.5 -6t-24.5 23
q0 1 -2 20.5t-5 51.5t-6 75t-5 90l-12 -4q-7 -3 -13.5 -0.5t-10.5 7.5q-9 14 2 26q15 13 31 25l-2 53q-2 71 -2.5 132t1.5 113l-73 -23q-59 -18 -112 -37t-95 -46q-45 -29 -65.5 -65.5t-20.5 -84.5q0 -8 -6 -14t-14 -6t-14 6t-6 14q0 116 104 184q45 29 102 49t115 38
l44 13.5t43 14.5q8 125 27 185q17 49 50 79q33 28 70 34q31 5 58 -4.5t44 -30.5q5 -7 10.5 -18t7.5 -26.5t-1 -36t-14 -45.5q-17 -39 -45.5 -67.5t-65.5 -50.5q-4 -66 -4 -142t2 -151l45 16.5t47 16.5q72 25 141.5 52.5t125.5 64.5q61 42 89 89.5t26 107.5q-2 43 -15.5 75
t-33.5 50.5t-42.5 22t-41.5 -9.5t-31.5 -44t-12.5 -83q0 -9 -14.5 -18t-33 -12t-35 2t-20.5 23q-8 33 4 65.5t36 58t57.5 41.5t70.5 17q62 0 103 -45q44 -49 49 -142q3 -74 -35 -135q-34 -54 -98 -96q-59 -39 -131 -67.5t-145 -54.5l-53 -18t-51 -19q0 -2 0.5 -4t0.5 -4
q74 15 134 3.5t108 -39.5t85 -67.5t66 -79.5q36 -52 63.5 -68t49 -5t40 43t37.5 76q14 34 23 59t14 42q5 19 8 32q2 8 8.5 13.5t14.5 3.5zM628 792q15 33 13 54t-12 25.5t-25 -9.5t-27 -50q-7 -20 -11.5 -45.5t-7.5 -57.5q23 17 41 37.5t29 45.5z" />
    <glyph glyph-name="T" unicode="T" horiz-adv-x="864" 
d="M1296 942q8 -2 12 -9t2 -15q-16 -71 -81 -119q-57 -40 -146 -62q-85 -20 -188 -26.5t-208 -11.5h-14.5t-14.5 -1q-2 -32 -4 -68.5t-5 -75.5q-7 -109 -13.5 -225.5t-5.5 -224.5q0 -32 1 -70t3.5 -73.5t7 -65t12 -45.5t18.5 -15.5t26 26.5q23 38 46.5 91t47.5 121
q42 116 57.5 174.5t15.5 60.5q2 8 9 12.5t15 2.5t12.5 -9t2.5 -15q0 -2 -16 -61.5t-58 -177.5q-50 -138 -98 -220q-64 -108 -126 -109h-2q-30 0 -51 24q-31 32 -46 111t-17 214q-1 112 5.5 235t13.5 238q6 75 9 138q-67 -4 -129.5 -11.5t-117 -21.5t-98.5 -36t-74 -54
q-57 -62 -53 -163q0 -19 -19 -21h-1q-8 0 -14 6t-6 14q-3 59 14 108q15 46 49 83q44 47 114 76q60 25 149 40q44 8 91 13t97 8q2 24 2 45v39q0 17 21 32t46.5 19.5t48 -6.5t24.5 -45q1 -17 0.5 -36.5t-2.5 -41.5q48 2 107.5 6t122.5 12t125.5 21t114.5 33t89.5 49t52.5 68
q3 8 9.5 12.5t14.5 2.5z" />
    <glyph glyph-name="M" unicode="M" horiz-adv-x="1892" 
d="M1918 332q8 -2 13.5 -8.5t3.5 -14.5q0 -2 -3.5 -22t-11 -52.5t-19.5 -73t-28 -83.5q-20 -51 -43.5 -92t-49.5 -70q-68 -78 -153 -78q-65 0 -101 43q-24 29 -34 77t-6 120q3 60 13.5 128t22.5 136l20.5 124.5t12.5 110.5q7 108 -23 144q-21 25 -50 21.5t-58 -21.5
t-54 -43.5t-38 -43.5q-32 -45 -64 -106t-63 -139q-25 -63 -45 -124t-34.5 -110.5t-22.5 -83l-10 -41.5q-3 -12 -16 -22.5t-30.5 -17t-36 -8t-33 3.5t-22 17.5t-1.5 33.5l7 32t16.5 84.5t19 119.5t15.5 139q14 168 -6 273q-13 69 -35 101t-50 33.5t-61.5 -25t-68.5 -75.5
q-36 -51 -68.5 -120.5t-60.5 -158.5q-25 -78 -42.5 -151.5t-28.5 -131t-16 -93.5t-5 -39q-2 -16 -24 -27.5t-47.5 -14.5t-47 5t-21.5 32q0 1 -2 28t-5 72.5t-6.5 105t-5.5 125.5q-2 71 -2.5 132t1.5 113l-36.5 -12t-36.5 -11q-59 -18 -112 -37t-95 -46q-45 -29 -65.5 -65.5
t-20.5 -84.5q0 -8 -6 -14t-14 -6t-14 6t-6 14q0 116 104 184q45 29 102 49t115 38l44 13.5t43 14.5q8 125 27 185q17 49 50 79q33 28 70 34q31 5 58 -4.5t44 -30.5q5 -7 10.5 -18t7.5 -26.5t-1 -36t-14 -45.5q-17 -39 -45.5 -67.5t-65.5 -50.5q-3 -53 -4 -113t0.5 -120.5
t3.5 -119.5t5 -109q11 56 27 121.5t38 134.5q29 92 63 164.5t72 125.5q99 138 223 138q69 0 111 -54q93 -117 55 -471q-1 -3 -1 -9l10.5 28.5t11.5 28.5q73 187 152.5 279t170.5 99q77 6 132.5 -27.5t69.5 -111.5q9 -63 -3 -147.5t-29 -178.5q-14 -74 -25 -146t-12 -133
q0 -60 14 -99q10 -28 23.5 -37.5t28 -6t30 16.5t30.5 31q47 53 85 150q16 41 27.5 81t18.5 71.5t10.5 51l3.5 19.5q2 8 8.5 13t14.5 4zM628 792q15 33 13 54t-12 25.5t-25 -9.5t-27 -50q-7 -20 -11.5 -46t-7.5 -57q23 17 41 37.5t29 45.5z" />
    <glyph glyph-name="F" unicode="F" horiz-adv-x="1130" 
d="M1165 332q8 -3 11 -10.5t0 -15.5q-1 -1 -7 -14t-18.5 -34t-31 -47.5t-44.5 -53.5q-60 -64 -134 -102l-4 -2q15 -23 28 -47q19 -36 34 -76.5t25.5 -82t16 -82t5.5 -77.5q0 -73 -23 -119q-28 -54 -82 -54q-67 0 -112 75q-36 59 -58 160q-14 65 -21.5 133t-12.5 126
q-23 1 -37.5 9t-22.5 17q-11 11 -16.5 26t-5.5 32q0 37 23 63q21 23 49 27q-5 78 -8.5 157.5t-2.5 156.5q-65 -7 -131.5 -7t-130.5 2q-94 2 -169.5 0t-128.5 -18.5t-82 -51.5t-30 -99q-1 -8 -6.5 -14t-13.5 -6h-1q-8 1 -14 7t-5 14q3 147 146 189q62 18 140 19.5t165 -0.5
q65 -2 131 -2t131 7l2 50t3 47q12 123 43 193q39 85 110 100q60 12 114 -17q52 -28 79 -80q26 -52 18 -106q-9 -62 -59 -107q-36 -35 -79.5 -57.5t-91.5 -36.5q-2 -94 3 -194.5t11 -194.5q24 -23 44 -48q72 34 132 99q24 25 41.5 49t28.5 44q13 23 23 43q3 8 10.5 11t15.5 0
zM1032 811q-20 40 -41 53t-40.5 5t-35.5 -33.5t-27 -61.5q-11 -35 -18 -79t-11 -101q0 -7 -0.5 -14t-0.5 -15q40 13 76 32.5t66 48.5q38 35 46.5 78.5t-14.5 86.5zM1006 -312q0 34 -5.5 72.5t-15.5 77.5t-24 77t-32 72q-13 26 -29 50l-24 -9q3 -48 8.5 -106t16.5 -117
q8 -44 17.5 -80t20.5 -65q19 -38 31 -52.5t19.5 -9.5t11 28t5.5 62zM706 62q12 -12 28 -13l-2 41q0 5 -0.5 8.5t-0.5 8.5l-1 24q-1 4 -1 12q-19 -6 -26.5 -21t-7.5 -29q0 -18 11 -31zM873 69q1 1 2 1q0 1 -2 3v-4z" />
    <glyph glyph-name="Z" unicode="Z" horiz-adv-x="1258" 
d="M1285 315q8 -2 12 -9t2 -15q-42 -162 -119.5 -255.5t-182 -117.5t-231.5 23t-269 167q-44 -52 -88 -81q-66 -43 -140 -48q-59 -3 -104 14q-41 17 -63 51q-17 26 -17.5 58.5t16.5 61.5q22 40 65 62t98 22q38 0 76 -12.5t77 -32.5q35 56 67 119.5t62 129.5l53.5 111
t56.5 104q49 84 100 130q-29 6 -60 14.5l-63 17.5l-102.5 28t-105 20t-104 2t-100 -25t-93.5 -62t-84 -108q-4 -8 -12 -10t-15 3q-8 4 -10 12t3 15q114 196 306 215q42 4 84 0.5t83.5 -11t82 -18.5l78.5 -22l78 -22t71 -15q71 -10 111 7q7 3 14 0.5t11 -9.5t2.5 -14
t-7.5 -12q-35 -25 -66 -63t-59.5 -85.5t-55.5 -102l-54 -111.5l-79 -158.5t-89 -143.5q66 -52 141.5 -83.5t151.5 -42t148.5 1.5t132.5 47.5t103.5 95t61.5 144.5q2 8 9.5 11.5t15.5 1.5zM136 65q17 -27 39.5 -35t47 -2t50 22t48.5 36.5t42 43t31 40.5q-34 17 -66.5 27.5
t-63.5 10.5q-44 0 -77.5 -17t-50.5 -46q-11 -20 -11 -41.5t11 -38.5z" />
    <glyph glyph-name="dotaccent" unicode="&#x2d9;" horiz-adv-x="215" 
d="M158 599q0 -20 -14.5 -34t-36.5 -14q-20 0 -34.5 14t-14.5 34q0 21 14.5 35t34.5 14q22 0 36.5 -14t14.5 -35z" />
    <glyph glyph-name="dieresis" unicode="&#xa8;" horiz-adv-x="423" 
d="M172 599q0 -20 -14.5 -34t-36.5 -14q-20 0 -34.5 14t-14.5 34q0 21 14.5 35t34.5 14q22 0 36.5 -14t14.5 -35zM352 599q0 -20 -14.5 -34t-36.5 -14q-20 0 -34.5 14t-14.5 34q0 21 14.5 35t34.5 14q22 0 36.5 -14t14.5 -35z" />
    <glyph glyph-name="grave" unicode="`" horiz-adv-x="232" 
d="M195 556l9 -13t0 -14q-6 -11 -18 -11q-3 0 -9 2q-2 1 -21 9t-43 20.5t-46.5 28.5t-31.5 33q-9 18 2.5 36t30 30.5t38 16t25.5 -7.5q6 -10 14.5 -28l17.5 -37.5l17.5 -37.5t14.5 -27z" />
    <glyph glyph-name="acute" unicode="&#xb4;" horiz-adv-x="232" 
d="M37 556q6 9 14.5 27l17.5 37.5l17.5 37.5t14.5 28q6 11 25.5 7.5t38 -16t30 -30.5t2.5 -36q-9 -17 -31.5 -33t-46.5 -28.5t-43.5 -20.5t-20.5 -9q-6 -2 -9 -2q-12 0 -18 11q-4 8 0 14z" />
    <glyph glyph-name="hungarumlaut" unicode="&#x2dd;" horiz-adv-x="464" 
d="M37 556q6 9 14.5 27l17.5 37.5l17.5 37.5t14.5 28q6 11 25.5 7.5t38 -16t30 -30.5t2.5 -36q-9 -17 -31.5 -33t-46.5 -28.5t-43.5 -20.5t-20.5 -9q-6 -2 -9 -2q-12 0 -18 11q-4 8 0 14zM209 556q6 9 14.5 27l17.5 37.5l17.5 37.5t14.5 28q6 11 25.5 7.5t38 -16t30 -30.5
t2.5 -36q-9 -17 -31.5 -33t-46.5 -28.5t-43.5 -20.5t-20.5 -9q-6 -2 -9 -2q-12 0 -18 11q-4 8 0 14z" />
    <glyph glyph-name="breve" unicode="&#x2d8;" horiz-adv-x="345" 
d="M59 648q0 8 6 14t14 6t14 -6t6 -14q0 -12 11 -19.5t27.5 -11.5t36 -4t36 5t27.5 13.5t11 22.5q0 8 6 14t14 6t14 -6t6 -14q0 -55 -32 -91.5t-90 -36.5q-29 0 -49 10.5t-33 27.5t-19 39t-6 45z" />
    <glyph glyph-name="circumflex" unicode="&#x2c6;" horiz-adv-x="267" 
d="M217 541q-10 0 -17 10l-8 5.5l-18.5 12.5t-21 13t-15.5 6q-6 0 -18.5 -5.5t-25 -12l-22 -11.5t-8.5 -4q-5 -7 -13 -8t-15 4t-8 13t4 15q1 1 11.5 14t25.5 29q23 24 40.5 34.5t33 9t30 -14.5t32.5 -35q6 -8 11 -16t10 -14q4 -7 9 -14q5 -8 3 -15.5t-10 -12.5q-5 -3 -10 -3
z" />
    <glyph glyph-name="caron" unicode="&#x2c7;" horiz-adv-x="256" 
d="M45 687q10 0 17 -10l8 -5.5l18.5 -12.5t21 -13t15.5 -6q6 0 18.5 5.5t25 12l22 11.5t8.5 4q5 7 13 8t15 -4t8 -13t-4 -15q-1 -1 -11.5 -14t-25.5 -29q-23 -24 -40.5 -34.5t-33 -9t-30 14t-32.5 35.5l-11.5 16l-9.5 14q-5 7 -9 14q-5 8 -3 15.5t10 12.5q4 3 10 3z" />
    <glyph glyph-name="ogonek" unicode="&#x2db;" horiz-adv-x="257" 
d="M209 -189q5 -6 5 -14t-6 -14q-10 -8 -33 -17.5t-50 -9.5q-12 0 -24 3q-42 9 -57 50q-21 56 38 142q21 30 39.5 50t20.5 22q6 5 14 5t14 -6q6 -5 6 -13.5t-6 -14.5q-12 -13 -23 -35.5t-18.5 -47.5t-10.5 -49t2 -39.5t19.5 -20t40.5 9.5q8 4 15.5 4.5t13.5 -5.5z" />
    <glyph glyph-name="tilde" unicode="&#x2dc;" horiz-adv-x="312" 
d="M281 634q8 0 14 -6t6 -14q0 -44 -17.5 -65.5t-42 -25t-52.5 8t-49 32.5q-13 13 -28.5 16t-29.5 0t-23.5 -10.5t-9.5 -15.5t-7 -13.5t-15 -3.5q-8 1 -13 7.5t-5 14.5q0 35 17.5 58t43 31t54 1.5t50.5 -30.5q10 -12 25 -18.5t29 -7.5t23.5 4t9.5 17q0 8 6 14t14 6z" />
    <glyph glyph-name="dotlessi" unicode="&#x131;" horiz-adv-x="274" 
d="M299 329q8 -2 13 -8.5t3 -14.5l-3.5 -20.5t-10 -52.5t-16 -73t-22.5 -83q-16 -51 -32 -90t-33 -67q-20 -36 -47 -54t-53.5 -16t-49.5 24t-35 65q-18 58 -21 156q-1 40 0 80t3 72t4 52.5t2 22.5q2 13 24 18.5t47.5 1.5t46.5 -18t20 -41q0 -1 -3.5 -40t-4.5 -106
q0 -173 25 -181.5t68 132.5q12 41 22 81t16.5 71.5t10 51.5l3.5 20q2 8 8.5 13.5t14.5 3.5z" />
    <glyph glyph-name="ring" unicode="&#x2da;" horiz-adv-x="304" 
d="M248 639q6 -34 -4 -64q-9 -29 -30 -49t-50 -26q-12 -3 -22 -3q-17 0 -29 5t-20 11q-26 18 -35 56q-5 21 -2.5 44.5t12.5 43.5q22 48 72 61q49 11 81 -22q10 -11 17 -25.5t10 -31.5zM206 586q7 22 3 45t-17 37q-13 13 -29 13q-4 0 -7 -0.5t-7 -1.5q-17 -5 -28.5 -16
t-17.5 -25.5t-7.5 -30.5t1.5 -29q2 -7 5.5 -15.5t10.5 -14.5t17.5 -9t25.5 0q25 5 36 20.5t14 26.5z" />
    <glyph glyph-name="cedilla" unicode="&#xb8;" horiz-adv-x="225" 
d="M81 -251q-5 0 -10.5 0.5t-10.5 1.5q-8 2 -13 8.5t-4 14.5q2 8 8.5 13.5t14.5 3.5q13 -2 25.5 13.5t18 35t1.5 36.5t-25 17q-13 0 -19 6q-8 8 -5 19l28 98q2 8 9.5 12t15.5 2t12 -9.5t2 -15.5l-20 -69q31 1 48 -10t25 -21q15 -22 14 -50q0 -14 -4 -26.5t-11 -24.5
q-19 -30 -47 -43q-24 -12 -53 -12z" />
    <glyph glyph-name="comma" unicode="," horiz-adv-x="213" 
d="M54 -54q15 0 26.5 19t17 44t4 49.5t-13.5 35.5q-6 6 -9 12.5t1 14.5t11.5 10t15.5 -2q22 -12 35 -32.5t17.5 -44.5t1 -48.5t-14 -44.5t-28 -32.5t-40.5 -12.5q-19 0 -26 5t-7.5 11t3 11t6.5 5z" />
    <glyph glyph-name="agrave" unicode="&#xe0;" 
d="M537 334q8 -2 12.5 -9t2.5 -15q0 -2 -5 -20.5l-13.5 -48t-21 -67.5t-28.5 -77q-9 -23 -24.5 -58.5t-37.5 -69t-49 -57.5t-60 -24q-38 0 -61 33q-26 38 -29 120q-2 53 6 122q-12 -22 -28.5 -47.5t-37.5 -47t-47 -35.5t-58 -14q-12 1 -27 8t-27.5 26t-21.5 52t-9 86
q0 83 29 135q30 51 78 63q44 12 90 -7t80 -64l19 74q3 14 26 19.5t48 0t43 -22t12 -46.5q-5 -18 -9 -42q-4 -20 -8 -48.5l-9 -64.5q-9 -72 -10.5 -122.5t7 -67t27.5 8.5t51 105q15 38 27.5 75.5t21 66.5t13 47.5l4.5 18.5q2 8 9 12t15 2zM166 137q20 28 37 62t31 72
q-2 2 -2 3q-26 43 -48 51.5t-37.5 -7t-24.5 -50t-9 -78.5q0 -29 2 -51.5t8 -32.5t16 -4t27 35zM209 536l9 -13t0 -14q-6 -11 -18 -11q-3 0 -9 2q-2 1 -21 9t-43 20.5t-46.5 28.5t-31.5 33q-9 18 2.5 36t30 30.5t38 16t25.5 -7.5q6 -10 14.5 -28l17.5 -37.5l17.5 -37.5
t14.5 -27z" />
    <glyph glyph-name="aacute" unicode="&#xe1;" 
d="M537 334q8 -2 12.5 -9t2.5 -15q0 -2 -5 -20.5l-13.5 -48t-21 -67.5t-28.5 -77q-9 -23 -24.5 -58.5t-37.5 -69t-49 -57.5t-60 -24q-38 0 -61 33q-26 38 -29 120q-2 53 6 122q-12 -22 -28.5 -47.5t-37.5 -47t-47 -35.5t-58 -14q-12 1 -27 8t-27.5 26t-21.5 52t-9 86
q0 83 29 135q30 51 78 63q44 12 90 -7t80 -64l19 74q3 14 26 19.5t48 0t43 -22t12 -46.5q-5 -18 -9 -42q-4 -20 -8 -48.5l-9 -64.5q-9 -72 -10.5 -122.5t7 -67t27.5 8.5t51 105q15 38 27.5 75.5t21 66.5t13 47.5l4.5 18.5q2 8 9 12t15 2zM166 137q20 28 37 62t31 72
q-2 2 -2 3q-26 43 -48 51.5t-37.5 -7t-24.5 -50t-9 -78.5q0 -29 2 -51.5t8 -32.5t16 -4t27 35zM139 536q6 9 14.5 27l17.5 37.5l17.5 37.5t14.5 28q6 11 25.5 7.5t38 -16t30 -30.5t2.5 -36q-9 -17 -31.5 -33t-46.5 -28.5t-43.5 -20.5t-20.5 -9q-6 -2 -9 -2q-12 0 -18 11
q-4 8 0 14z" />
    <glyph glyph-name="acircumflex" unicode="&#xe2;" 
d="M537 334q-8 2 -15 -2t-9 -12l-4.5 -18.5t-13 -47.5t-21 -66.5t-27.5 -75.5q-32 -80 -51 -105t-27.5 -8.5t-7 67t10.5 122.5l9 64.5t8 48.5q4 24 9 42q6 30 -12 46.5t-43 22t-48 0t-26 -19.5l-19 -74q-34 45 -80 64t-90 7q-48 -12 -78 -63q-29 -52 -29 -135q0 -53 9 -86
t21.5 -52t27.5 -26t27 -8q32 0 58 14t47 35.5t37.5 47t28.5 47.5q-8 -69 -6 -122q3 -82 29 -120q23 -33 61 -33q33 0 60 24t49 57.5t37.5 69t24.5 58.5q16 39 28.5 77t21 67.5l13.5 48t5 20.5q2 8 -2.5 15t-12.5 9zM166 137q-17 -29 -27 -35t-16 4t-8 32.5t-2 51.5
q0 44 9 78.5t24.5 50t37.5 7t48 -51.5q0 -1 2 -3q-14 -38 -31 -72t-37 -62zM218 501q-10 0 -17 10l-8 5.5l-18.5 12.5t-21 13t-15.5 6q-6 0 -18.5 -5.5t-25 -12l-22 -11.5t-8.5 -4q-5 -7 -13 -8t-15 4t-8 13t4 15q1 1 11.5 14t25.5 29q23 24 40.5 34.5t33 9t30 -14.5
t32.5 -35q6 -8 11 -16t10 -14q4 -7 9 -14q5 -8 3 -15.5t-10 -12.5q-5 -3 -10 -3z" />
    <glyph glyph-name="atilde" unicode="&#xe3;" 
d="M537 334q8 -2 12.5 -9t2.5 -15q0 -2 -5 -20.5l-13.5 -48t-21 -67.5t-28.5 -77q-9 -23 -24.5 -58.5t-37.5 -69t-49 -57.5t-60 -24q-38 0 -61 33q-26 38 -29 120q-2 53 6 122q-12 -22 -28.5 -47.5t-37.5 -47t-47 -35.5t-58 -14q-12 1 -27 8t-27.5 26t-21.5 52t-9 86
q0 83 29 135q30 51 78 63q44 12 90 -7t80 -64l19 74q3 14 26 19.5t48 0t43 -22t12 -46.5q-5 -18 -9 -42q-4 -20 -8 -48.5l-9 -64.5q-9 -72 -10.5 -122.5t7 -67t27.5 8.5t51 105q15 38 27.5 75.5t21 66.5t13 47.5l4.5 18.5q2 8 9 12t15 2zM280 614q8 0 14 -6t6 -14
q0 -44 -17.5 -65.5t-42 -25t-52.5 8t-49 32.5q-13 13 -28.5 16t-29.5 0t-23.5 -10.5t-9.5 -15.5t-7 -13.5t-15 -3.5q-8 1 -13 7.5t-5 14.5q0 35 17.5 58t43 31t54 1.5t50.5 -30.5q10 -12 25 -18.5t29 -7.5t23.5 4t9.5 17q0 8 6 14t14 6zM166 137q20 28 37 62t31 72
q-2 2 -2 3q-26 43 -48 51.5t-37.5 -7t-24.5 -50t-9 -78.5q0 -29 2 -51.5t8 -32.5t16 -4t27 35z" />
    <glyph glyph-name="adieresis" unicode="&#xe4;" 
d="M537 334q-8 2 -15 -2t-9 -12l-4.5 -18.5t-13 -47.5t-21 -66.5t-27.5 -75.5q-32 -80 -51 -105t-27.5 -8.5t-7 67t10.5 122.5l9 64.5t8 48.5q4 24 9 42q6 30 -12 46.5t-43 22t-48 0t-26 -19.5l-19 -74q-34 45 -80 64t-90 7q-48 -12 -78 -63q-29 -52 -29 -135q0 -53 9 -86
t21.5 -52t27.5 -26t27 -8q32 0 58 14t47 35.5t37.5 47t28.5 47.5q-8 -69 -6 -122q3 -82 29 -120q23 -33 61 -33q33 0 60 24t49 57.5t37.5 69t24.5 58.5q16 39 28.5 77t21 67.5l13.5 48t5 20.5q2 8 -2.5 15t-12.5 9zM166 137q-17 -29 -27 -35t-16 4t-8 32.5t-2 51.5
q0 44 9 78.5t24.5 50t37.5 7t48 -51.5q0 -1 2 -3q-14 -38 -31 -72t-37 -62zM104 549q0 -20 -14.5 -34t-36.5 -14q-20 0 -34.5 14t-14.5 34q0 21 14.5 35t34.5 14q22 0 36.5 -14t14.5 -35zM284 549q0 -20 -14.5 -34t-36.5 -14q-20 0 -34.5 14t-14.5 34q0 21 14.5 35t34.5 14
q22 0 36.5 -14t14.5 -35z" />
    <glyph glyph-name="aring" unicode="&#xe5;" 
d="M537 334q8 -2 12.5 -9t2.5 -15q0 -2 -5 -20.5l-13.5 -48t-21 -67.5t-28.5 -77q-9 -23 -24.5 -58.5t-37.5 -69t-49 -57.5t-60 -24q-38 0 -61 33q-26 38 -29 120q-2 53 6 122q-12 -22 -28.5 -47.5t-37.5 -47t-47 -35.5t-58 -14q-12 1 -27 8t-27.5 26t-21.5 52t-9 86
q0 83 29 135q30 51 78 63q44 12 90 -7t80 -64l19 74q3 14 26 19.5t48 0t43 -22t12 -46.5q-5 -18 -9 -42q-4 -20 -8 -48.5l-9 -64.5q-9 -72 -10.5 -122.5t7 -67t27.5 8.5t51 105q15 38 27.5 75.5t21 66.5t13 47.5l4.5 18.5q2 8 9 12t15 2zM220 579q6 -34 -4 -64
q-9 -29 -30 -49t-50 -26q-12 -3 -22 -3q-17 0 -29 5t-20 11q-26 18 -35 56q-5 21 -2.5 44.5t12.5 43.5q22 48 72 61q49 11 81 -22q10 -11 17 -25.5t10 -31.5zM166 137q20 28 37 62t31 72q-2 2 -2 3q-26 43 -48 51.5t-37.5 -7t-24.5 -50t-9 -78.5q0 -29 2 -51.5t8 -32.5
t16 -4t27 35zM178 526q7 22 3 45t-17 37q-13 13 -29 13q-4 0 -7 -0.5t-7 -1.5q-17 -5 -28.5 -16t-17.5 -25.5t-7.5 -30.5t1.5 -29q2 -7 5.5 -15.5t10.5 -14.5t17.5 -9t25.5 0q25 5 36 20.5t14 26.5z" />
    <glyph glyph-name="egrave" unicode="&#xe8;" horiz-adv-x="347" 
d="M386 329q8 -4 10 -11.5t-2 -15.5q-29 -57 -60.5 -112t-63.5 -98l-29 -34t-33 -30.5t-38.5 -22.5t-44.5 -9q-35 0 -63 28.5t-47 82.5q-23 67 -25 143t25 146q10 23 22 40.5t28 29.5q30 24 66 30q36 5 62 -8q20 -10 31.5 -27.5t11.5 -40.5q0 -58 -109 -106q1 -24 3 -57.5
t5.5 -66.5t10.5 -61t19 -41.5t29.5 -9t43.5 37.5q31 42 61.5 95.5l59.5 108.5q4 8 11.5 10.5t15.5 -1.5zM136 362q20 10 32 19.5t18 17t8 13t2 8.5q0 12 -1.5 13.5t-9.5 -1.5q-33 -14 -49 -70zM168 606l9 -13t0 -14q-6 -11 -18 -11q-3 0 -9 2q-2 1 -21 9t-43 20.5
t-46.5 28.5t-31.5 33q-9 18 2.5 36t30 30.5t38 16t25.5 -7.5q6 -10 14.5 -28l17.5 -37.5l17.5 -37.5t14.5 -27z" />
    <glyph glyph-name="eacute" unicode="&#xe9;" horiz-adv-x="347" 
d="M386 329q8 -4 10 -11.5t-2 -15.5q-29 -57 -60.5 -112t-63.5 -98l-29 -34t-33 -30.5t-38.5 -22.5t-44.5 -9q-35 0 -63 28.5t-47 82.5q-23 67 -25 143t25 146q10 23 22 40.5t28 29.5q30 24 66 30q36 5 62 -8q20 -10 31.5 -27.5t11.5 -40.5q0 -58 -109 -106q1 -24 3 -57.5
t5.5 -66.5t10.5 -61t19 -41.5t29.5 -9t43.5 37.5q31 42 61.5 95.5l59.5 108.5q4 8 11.5 10.5t15.5 -1.5zM136 362q20 10 32 19.5t18 17t8 13t2 8.5q0 12 -1.5 13.5t-9.5 -1.5q-33 -14 -49 -70zM118 606q6 9 14.5 27l17.5 37.5l17.5 37.5t14.5 28q6 11 25.5 7.5t38 -16
t30 -30.5t2.5 -36q-9 -17 -31.5 -33t-46.5 -28.5t-43.5 -20.5t-20.5 -9q-6 -2 -9 -2q-12 0 -18 11q-4 8 0 14z" />
    <glyph glyph-name="ecircumflex" unicode="&#xea;" horiz-adv-x="347" 
d="M386 329q-8 4 -15.5 1.5t-11.5 -10.5l-59.5 -108.5t-61.5 -95.5q-26 -33 -43.5 -37.5t-29.5 9t-19 41.5t-10.5 61t-5.5 66.5t-3 57.5q109 48 109 106q0 23 -11.5 40.5t-31.5 27.5q-26 13 -62 8q-36 -6 -66 -30q-16 -12 -28 -29.5t-22 -40.5q-27 -70 -25 -146t25 -143
q19 -54 47 -82.5t63 -28.5q24 0 44.5 9t38.5 22.5t33 30.5l29 34q32 43 63.5 98t60.5 112q4 8 2 15.5t-10 11.5zM136 362q16 56 49 70q8 3 9.5 1.5t1.5 -13.5q0 -3 -2 -8.5t-8 -13t-18 -17t-32 -19.5zM228 571q-10 0 -17 10l-8 5.5l-18.5 12.5t-21 13t-15.5 6
q-6 0 -18.5 -5.5t-25 -12l-22 -11.5t-8.5 -4q-5 -7 -13 -8t-15 4t-8 13t4 15q1 1 11.5 14t25.5 29q23 24 40.5 34.5t33 9t30 -14.5t32.5 -35q6 -8 11 -16t10 -14q4 -7 9 -14q5 -8 3 -15.5t-10 -12.5q-5 -3 -10 -3z" />
    <glyph glyph-name="edieresis" unicode="&#xeb;" horiz-adv-x="347" 
d="M386 329q-8 4 -15.5 1.5t-11.5 -10.5l-59.5 -108.5t-61.5 -95.5q-26 -33 -43.5 -37.5t-29.5 9t-19 41.5t-10.5 61t-5.5 66.5t-3 57.5q109 48 109 106q0 23 -11.5 40.5t-31.5 27.5q-26 13 -62 8q-36 -6 -66 -30q-16 -12 -28 -29.5t-22 -40.5q-27 -70 -25 -146t25 -143
q19 -54 47 -82.5t63 -28.5q24 0 44.5 9t38.5 22.5t33 30.5l29 34q32 43 63.5 98t60.5 112q4 8 2 15.5t-10 11.5zM136 362q16 56 49 70q8 3 9.5 1.5t1.5 -13.5q0 -3 -2 -8.5t-8 -13t-18 -17t-32 -19.5zM124 619q0 -20 -14.5 -34t-36.5 -14q-20 0 -34.5 14t-14.5 34
q0 21 14.5 35t34.5 14q22 0 36.5 -14t14.5 -35zM304 619q0 -20 -14.5 -34t-36.5 -14q-20 0 -34.5 14t-14.5 34q0 21 14.5 35t34.5 14q22 0 36.5 -14t14.5 -35z" />
    <glyph glyph-name="igrave" unicode="&#xec;" horiz-adv-x="274" 
d="M299 329q8 -2 13 -8.5t3 -14.5l-3.5 -20.5t-10 -52.5t-16 -73t-22.5 -83q-16 -51 -32 -90t-33 -67q-20 -36 -47 -54t-53.5 -16t-49.5 24t-35 65q-18 58 -21 156q-1 40 0 80t3 72t4 52.5t2 22.5q2 13 24 18.5t47.5 1.5t46.5 -18t20 -41q0 -1 -3.5 -40t-4.5 -106
q0 -173 25 -181.5t68 132.5q12 41 22 81t16.5 71.5t10 51.5l3.5 20q2 8 8.5 13.5t14.5 3.5zM132 496l9 -13t0 -14q-6 -11 -18 -11q-3 0 -9 2q-2 1 -21 9t-43 20.5t-46.5 28.5t-31.5 33q-9 18 2.5 36t30 30.5t38 16t25.5 -7.5q6 -10 14.5 -28l17.5 -37.5l17.5 -37.5t14.5 -27
z" />
    <glyph glyph-name="iacute" unicode="&#xed;" horiz-adv-x="274" 
d="M299 329q8 -2 13 -8.5t3 -14.5l-3.5 -20.5t-10 -52.5t-16 -73t-22.5 -83q-16 -51 -32 -90t-33 -67q-20 -36 -47 -54t-53.5 -16t-49.5 24t-35 65q-18 58 -21 156q-1 40 0 80t3 72t4 52.5t2 22.5q2 13 24 18.5t47.5 1.5t46.5 -18t20 -41q0 -1 -3.5 -40t-4.5 -106
q0 -173 25 -181.5t68 132.5q12 41 22 81t16.5 71.5t10 51.5l3.5 20q2 8 8.5 13.5t14.5 3.5zM42 506q6 9 14.5 27l17.5 37.5l17.5 37.5t14.5 28q6 11 25.5 7.5t38 -16t30 -30.5t2.5 -36q-9 -17 -31.5 -33t-46.5 -28.5t-43.5 -20.5t-20.5 -9q-6 -2 -9 -2q-12 0 -18 11
q-4 8 0 14z" />
    <glyph glyph-name="icircumflex" unicode="&#xee;" horiz-adv-x="274" 
d="M299 329q-8 2 -14.5 -3.5t-8.5 -13.5l-3.5 -20t-10 -51.5t-16.5 -71.5t-22 -81q-43 -141 -68 -132.5t-25 181.5q1 67 4.5 106t3.5 40q1 27 -20 41t-46.5 18t-47.5 -1.5t-24 -18.5q0 -2 -2 -22.5t-4 -52.5t-3 -72t0 -80q3 -98 21 -156q12 -43 35 -65t49.5 -24t53.5 16
t47 54q17 28 33 67t32 90q13 42 22.5 83t16 73t10 52.5l3.5 20.5q2 8 -3 14.5t-13 8.5zM151 461q-10 0 -17 10l-8 5.5l-18.5 12.5t-21 13t-15.5 6q-6 0 -18.5 -5.5t-25 -12l-22 -11.5t-8.5 -4q-5 -7 -13 -8t-15 4t-8 13t4 15q1 1 11.5 14t25.5 29q23 24 40.5 34.5t33 9
t30 -14.5t32.5 -35q6 -8 11 -16t10 -14q4 -7 9 -14q5 -8 3 -15.5t-10 -12.5q-5 -3 -10 -3z" />
    <glyph glyph-name="idieresis" unicode="&#xef;" horiz-adv-x="274" 
d="M299 329q-8 2 -14.5 -3.5t-8.5 -13.5l-3.5 -20t-10 -51.5t-16.5 -71.5t-22 -81q-43 -141 -68 -132.5t-25 181.5q1 67 4.5 106t3.5 40q1 27 -20 41t-46.5 18t-47.5 -1.5t-24 -18.5q0 -2 -2 -22.5t-4 -52.5t-3 -72t0 -80q3 -98 21 -156q12 -43 35 -65t49.5 -24t53.5 16
t47 54q17 28 33 67t32 90q13 42 22.5 83t16 73t10 52.5l3.5 20.5q2 8 -3 14.5t-13 8.5zM37 509q0 -20 -14.5 -34t-36.5 -14q-20 0 -34.5 14t-14.5 34q0 21 14.5 35t34.5 14q22 0 36.5 -14t14.5 -35zM217 509q0 -20 -14.5 -34t-36.5 -14q-20 0 -34.5 14t-14.5 34
q0 21 14.5 35t34.5 14q22 0 36.5 -14t14.5 -35z" />
    <glyph glyph-name="ntilde" unicode="&#xf1;" horiz-adv-x="610" 
d="M642 334q8 -2 11.5 -9.5t1.5 -15.5q0 -2 -5.5 -19t-15.5 -45t-24 -63t-31 -72q-43 -89 -84 -139q-57 -68 -115 -68q-37 0 -58 26q-15 18 -19.5 47t-2 64.5t10 76.5t16.5 84q8 37 14.5 70.5t9.5 62.5q3 35 0.5 51t-7.5 21q-2 2 -5 3.5t-9 1.5q-16 0 -35.5 -16.5
t-42.5 -58.5t-50.5 -113.5t-59.5 -180.5q-3 -23 -26.5 -35t-50.5 -14.5t-49.5 5t-22.5 23.5q-2 58 -1 111.5t3 94t3.5 65l1.5 24.5q1 22 23 31t48 5.5t47.5 -18.5t20.5 -40q0 -1 -1 -36l-3 -105l25.5 73t28.5 70q16 35 31 61.5t31 45.5q15 19 38.5 33t49.5 20.5t53 3
t50 -18.5q24 -17 37 -46t13 -65t-8 -79t-19 -87q-16 -72 -19 -115t6.5 -50.5t32 23.5t58.5 106q17 36 30.5 70.5l23.5 61.5t15 44l5 17q2 8 9.5 11.5t15.5 1.5zM461 614q8 0 14 -6t6 -14q0 -44 -17.5 -65.5t-42 -25t-52.5 8t-49 32.5q-13 13 -28.5 16t-29.5 0t-23.5 -10.5
t-9.5 -15.5t-7 -13.5t-15 -3.5q-8 1 -13 7.5t-5 14.5q0 35 17.5 58t43 31t54 1.5t50.5 -30.5q10 -12 25 -18.5t29 -7.5t23.5 4t9.5 17q0 8 6 14t14 6z" />
    <glyph glyph-name="ccedilla" unicode="&#xe7;" horiz-adv-x="375" 
d="M413 329q8 -4 10 -11.5t-2 -15.5l-28 -56l-55 -104t-60 -92q-60 -77 -125 -90l-6 -24q31 1 48 -10t25 -21q15 -22 14 -50q0 -14 -4 -26.5t-11 -24.5q-19 -30 -47 -43q-24 -12 -53 -12q-5 0 -10.5 0.5t-10.5 1.5q-8 2 -13 8.5t-4 14.5q2 8 8.5 13.5t14.5 3.5
q13 -2 25.5 13.5t18 35t1.5 36.5t-25 17q-13 0 -19 6q-8 8 -5 19l11 39q-49 5 -83 49q-17 20 -28.5 48t-18.5 61q-8 41 -7.5 82.5t10.5 78.5q9 39 29 68q22 31 53 45q30 13 51 7.5t34 -15.5q20 -16 30.5 -38.5t15.5 -41.5q6 -23 7 -49t-2 -49q-2 -8 -8.5 -13t-14.5 -4
q-8 2 -13 8.5t-4 14.5q3 20 2 46.5t-6.5 42t-14.5 11.5t-21 -43q-12 -44 -9 -99q3 -45 13 -80t26.5 -51t40 -8.5t54.5 47.5q29 38 55.5 87l54.5 103l29 55q4 8 11.5 10.5t15.5 -1.5z" />
    <glyph glyph-name="ograve" unicode="&#xf2;" horiz-adv-x="361" 
d="M396 304q6 -6 5.5 -14.5t-6.5 -13.5q-28 -25 -59 -25q-9 0 -17.5 2t-18.5 5l-18.5 8.5t-18.5 10.5q6 -24 6 -52q0 -66 -34 -114q-20 -26 -47.5 -40.5t-59.5 -14.5q-38 0 -68.5 13t-53.5 37q-20 21 -30 49t-10 60t11 62t31 53q47 53 126 53q33 0 59 -12.5t54 -32.5
q19 -15 35.5 -26.5t31.5 -16.5t28.5 -3t25.5 13q6 6 14.5 5.5t13.5 -6.5zM109 204q4 -44 23.5 -62t41 -14t38.5 29t17 68q0 24 -6 45.5t-18 37.5q-12 15 -27 24q-20 -9 -34 -23.5t-22.5 -31.5t-11.5 -36t-1 -37zM195 486l9 -13t0 -14q-6 -11 -18 -11q-3 0 -9 2q-2 1 -21 9
t-43 20.5t-46.5 28.5t-31.5 33q-9 18 2.5 36t30 30.5t38 16t25.5 -7.5q6 -10 14.5 -28l17.5 -37.5l17.5 -37.5t14.5 -27z" />
    <glyph glyph-name="oacute" unicode="&#xf3;" horiz-adv-x="361" 
d="M396 304q6 -6 5.5 -14.5t-6.5 -13.5q-28 -25 -59 -25q-9 0 -17.5 2t-18.5 5l-18.5 8.5t-18.5 10.5q6 -24 6 -52q0 -66 -34 -114q-20 -26 -47.5 -40.5t-59.5 -14.5q-38 0 -68.5 13t-53.5 37q-20 21 -30 49t-10 60t11 62t31 53q47 53 126 53q33 0 59 -12.5t54 -32.5
q19 -15 35.5 -26.5t31.5 -16.5t28.5 -3t25.5 13q6 6 14.5 5.5t13.5 -6.5zM109 204q4 -44 23.5 -62t41 -14t38.5 29t17 68q0 24 -6 45.5t-18 37.5q-12 15 -27 24q-20 -9 -34 -23.5t-22.5 -31.5t-11.5 -36t-1 -37zM95 486q6 9 14.5 27l17.5 37.5l17.5 37.5t14.5 28
q6 11 25.5 7.5t38 -16t30 -30.5t2.5 -36q-9 -17 -31.5 -33t-46.5 -28.5t-43.5 -20.5t-20.5 -9q-6 -2 -9 -2q-12 0 -18 11q-4 8 0 14z" />
    <glyph glyph-name="ocircumflex" unicode="&#xf4;" horiz-adv-x="361" 
d="M396 304q-5 6 -13.5 6.5t-14.5 -5.5q-12 -11 -25.5 -13t-28.5 3t-31.5 16.5t-35.5 26.5q-28 20 -54 32.5t-59 12.5q-79 0 -126 -53q-20 -23 -31 -53t-11 -62t10 -60t30 -49q23 -24 53.5 -37t68.5 -13q32 0 59.5 14.5t47.5 40.5q34 48 34 114q0 28 -6 52q9 -6 18.5 -10.5
l18.5 -8.5q10 -3 18.5 -5t17.5 -2q31 0 59 25q6 5 6.5 13.5t-5.5 14.5zM109 204q-2 18 1 37t11.5 36t22.5 31.5t34 23.5q15 -9 27 -24q12 -16 18 -37.5t6 -45.5q0 -43 -17 -68t-38.5 -29t-41 14t-23.5 62zM215 451q-10 0 -17 10l-8 5.5l-18.5 12.5t-21 13t-15.5 6
q-6 0 -18.5 -5.5t-25 -12l-22 -11.5t-8.5 -4q-5 -7 -13 -8t-15 4t-8 13t4 15q1 1 11.5 14t25.5 29q23 24 40.5 34.5t33 9t30 -14.5t32.5 -35q6 -8 11 -16t10 -14q4 -7 9 -14q5 -8 3 -15.5t-10 -12.5q-5 -3 -10 -3z" />
    <glyph glyph-name="otilde" unicode="&#xf5;" horiz-adv-x="361" 
d="M396 304q6 -6 5.5 -14.5t-6.5 -13.5q-28 -25 -59 -25q-9 0 -17.5 2t-18.5 5l-18.5 8.5t-18.5 10.5q6 -24 6 -52q0 -66 -34 -114q-20 -26 -47.5 -40.5t-59.5 -14.5q-38 0 -68.5 13t-53.5 37q-20 21 -30 49t-10 60t11 62t31 53q47 53 126 53q33 0 59 -12.5t54 -32.5
q19 -15 35.5 -26.5t31.5 -16.5t28.5 -3t25.5 13q6 6 14.5 5.5t13.5 -6.5zM109 204q4 -44 23.5 -62t41 -14t38.5 29t17 68q0 24 -6 45.5t-18 37.5q-12 15 -27 24q-20 -9 -34 -23.5t-22.5 -31.5t-11.5 -36t-1 -37zM276 544q8 0 14 -6t6 -14q0 -44 -17.5 -65.5t-42 -25t-52.5 8
t-49 32.5q-13 13 -28.5 16t-29.5 0t-23.5 -10.5t-9.5 -15.5t-7 -13.5t-15 -3.5q-8 1 -13 7.5t-5 14.5q0 35 17.5 58t43 31t54 1.5t50.5 -30.5q10 -12 25 -18.5t29 -7.5t23.5 4t9.5 17q0 8 6 14t14 6z" />
    <glyph glyph-name="odieresis" unicode="&#xf6;" horiz-adv-x="361" 
d="M396 304q-5 6 -13.5 6.5t-14.5 -5.5q-12 -11 -25.5 -13t-28.5 3t-31.5 16.5t-35.5 26.5q-28 20 -54 32.5t-59 12.5q-79 0 -126 -53q-20 -23 -31 -53t-11 -62t10 -60t30 -49q23 -24 53.5 -37t68.5 -13q32 0 59.5 14.5t47.5 40.5q34 48 34 114q0 28 -6 52q9 -6 18.5 -10.5
l18.5 -8.5q10 -3 18.5 -5t17.5 -2q31 0 59 25q6 5 6.5 13.5t-5.5 14.5zM109 204q-2 18 1 37t11.5 36t22.5 31.5t34 23.5q15 -9 27 -24q12 -16 18 -37.5t6 -45.5q0 -43 -17 -68t-38.5 -29t-41 14t-23.5 62zM101 499q0 -20 -14.5 -34t-36.5 -14q-20 0 -34.5 14t-14.5 34
q0 21 14.5 35t34.5 14q22 0 36.5 -14t14.5 -35zM281 499q0 -20 -14.5 -34t-36.5 -14q-20 0 -34.5 14t-14.5 34q0 21 14.5 35t34.5 14q22 0 36.5 -14t14.5 -35z" />
    <glyph glyph-name="ugrave" unicode="&#xf9;" horiz-adv-x="547" 
d="M573 329q8 -2 13 -9t3 -15q0 -2 -4 -20.5t-11.5 -48.5t-18 -67.5t-23.5 -76.5q-33 -94 -68 -146q-16 -23 -39.5 -44.5t-55.5 -21.5q-2 0 -5 0.5t-5 0.5q-33 5 -52 33q-27 37 -34 117q-2 25 -2.5 54t1.5 63q-13 -28 -26.5 -51t-28.5 -40q-20 -26 -46 -42.5t-61 -16.5
q-56 0 -89 41q-43 55 -37 174q2 43 7.5 73.5t6.5 32.5q6 20 30 29t49.5 8t44.5 -12.5t15 -33.5q-3 -17 -6 -36l-4.5 -37.5t-2.5 -43.5q-2 -67 10 -94t30.5 -22.5t41 35.5t42.5 79q12 30 21 59t15 52t9 37.5l3 14.5q3 11 15 19t28 11.5t33.5 3.5t32.5 -5t23.5 -14t7.5 -23
l-2.5 -14.5t-6 -38.5t-7 -55t-6.5 -65q-5 -70 -3.5 -119t10.5 -64t27 10.5t46 104.5q13 38 23.5 75.5t17.5 66.5t11 47.5l4 18.5q2 8 8.5 13t14.5 3zM258 496l9 -13t0 -14q-6 -11 -18 -11q-3 0 -9 2q-2 1 -21 9t-43 20.5t-46.5 28.5t-31.5 33q-9 18 2.5 36t30 30.5t38 16
t25.5 -7.5q6 -10 14.5 -28l17.5 -37.5l17.5 -37.5t14.5 -27z" />
    <glyph glyph-name="uacute" unicode="&#xfa;" horiz-adv-x="547" 
d="M573 329q8 -2 13 -9t3 -15q0 -2 -4 -20.5t-11.5 -48.5t-18 -67.5t-23.5 -76.5q-33 -94 -68 -146q-16 -23 -39.5 -44.5t-55.5 -21.5q-2 0 -5 0.5t-5 0.5q-33 5 -52 33q-27 37 -34 117q-2 25 -2.5 54t1.5 63q-13 -28 -26.5 -51t-28.5 -40q-20 -26 -46 -42.5t-61 -16.5
q-56 0 -89 41q-43 55 -37 174q2 43 7.5 73.5t6.5 32.5q6 20 30 29t49.5 8t44.5 -12.5t15 -33.5q-3 -17 -6 -36l-4.5 -37.5t-2.5 -43.5q-2 -67 10 -94t30.5 -22.5t41 35.5t42.5 79q12 30 21 59t15 52t9 37.5l3 14.5q3 11 15 19t28 11.5t33.5 3.5t32.5 -5t23.5 -14t7.5 -23
l-2.5 -14.5t-6 -38.5t-7 -55t-6.5 -65q-5 -70 -3.5 -119t10.5 -64t27 10.5t46 104.5q13 38 23.5 75.5t17.5 66.5t11 47.5l4 18.5q2 8 8.5 13t14.5 3zM188 486q6 9 14.5 27l17.5 37.5l17.5 37.5t14.5 28q6 11 25.5 7.5t38 -16t30 -30.5t2.5 -36q-9 -17 -31.5 -33t-46.5 -28.5
t-43.5 -20.5t-20.5 -9q-6 -2 -9 -2q-12 0 -18 11q-4 8 0 14z" />
    <glyph glyph-name="ucircumflex" unicode="&#xfb;" horiz-adv-x="547" 
d="M573 329q-8 2 -14.5 -3t-8.5 -13l-4 -18.5t-11 -47.5t-17.5 -66.5t-23.5 -75.5q-28 -79 -46 -104.5t-27 -10.5t-10.5 64t3.5 119q3 34 6.5 65t7 55t6 38.5l2.5 14.5q1 14 -7.5 23t-23.5 14t-32.5 5t-33.5 -3.5t-28 -11.5t-15 -19l-3 -14.5t-9 -37.5t-15 -52t-21 -59
q-20 -48 -42.5 -79t-41 -35.5t-30.5 22.5t-10 94q0 23 2.5 43.5l4.5 37.5q3 19 6 36q4 22 -15 33.5t-44.5 12.5t-49.5 -8t-30 -29q-1 -2 -6.5 -32.5t-7.5 -73.5q-6 -119 37 -174q33 -41 89 -41q35 0 61 16.5t46 42.5q15 17 28.5 40t26.5 51q-2 -34 -1.5 -63t2.5 -54
q7 -80 34 -117q19 -28 52 -33q2 0 5 -0.5t5 -0.5q32 0 55.5 21.5t39.5 44.5q35 52 68 146q13 39 23.5 76.5t18 67.5t11.5 48.5t4 20.5q2 8 -3 15t-13 9zM288 461q-10 0 -17 10l-8 5.5l-18.5 12.5t-21 13t-15.5 6q-6 0 -18.5 -5.5t-25 -12l-22 -11.5t-8.5 -4q-5 -7 -13 -8
t-15 4t-8 13t4 15q1 1 11.5 14t25.5 29q23 24 40.5 34.5t33 9t30 -14.5t32.5 -35q6 -8 11 -16t10 -14q4 -7 9 -14q5 -8 3 -15.5t-10 -12.5q-5 -3 -10 -3z" />
    <glyph glyph-name="udieresis" unicode="&#xfc;" horiz-adv-x="547" 
d="M573 329q-8 2 -14.5 -3t-8.5 -13l-4 -18.5t-11 -47.5t-17.5 -66.5t-23.5 -75.5q-28 -79 -46 -104.5t-27 -10.5t-10.5 64t3.5 119q3 34 6.5 65t7 55t6 38.5l2.5 14.5q1 14 -7.5 23t-23.5 14t-32.5 5t-33.5 -3.5t-28 -11.5t-15 -19l-3 -14.5t-9 -37.5t-15 -52t-21 -59
q-20 -48 -42.5 -79t-41 -35.5t-30.5 22.5t-10 94q0 23 2.5 43.5l4.5 37.5q3 19 6 36q4 22 -15 33.5t-44.5 12.5t-49.5 -8t-30 -29q-1 -2 -6.5 -32.5t-7.5 -73.5q-6 -119 37 -174q33 -41 89 -41q35 0 61 16.5t46 42.5q15 17 28.5 40t26.5 51q-2 -34 -1.5 -63t2.5 -54
q7 -80 34 -117q19 -28 52 -33q2 0 5 -0.5t5 -0.5q32 0 55.5 21.5t39.5 44.5q35 52 68 146q13 39 23.5 76.5t18 67.5t11.5 48.5t4 20.5q2 8 -3 15t-13 9zM173 519q0 -20 -14.5 -34t-36.5 -14q-20 0 -34.5 14t-14.5 34q0 21 14.5 35t34.5 14q22 0 36.5 -14t14.5 -35zM353 519
q0 -20 -14.5 -34t-36.5 -14q-20 0 -34.5 14t-14.5 34q0 21 14.5 35t34.5 14q22 0 36.5 -14t14.5 -35z" />
    <glyph glyph-name="yacute" unicode="&#xfd;" horiz-adv-x="583" 
d="M620 327q7 -4 9.5 -11.5t-1.5 -15.5q-35 -71 -79.5 -126t-92.5 -102v-3q6 -311 -66 -428q-27 -43 -58 -73t-66 -45q-15 -6 -30.5 -9.5t-30.5 -3.5q-32 0 -60 15q-52 28 -66 90q-15 65 18 138q17 38 41 71.5t52.5 63.5t60.5 58l65 56v66l-4 91.5t-5 79.5l-20 -53
q-31 -72 -66 -112q-48 -56 -106 -56t-91 42q-42 52 -34 162q2 40 7.5 68t6.5 30q6 20 28.5 27.5t47 4t43 -19t15.5 -42.5q-2 -10 -4 -23q-2 -11 -3.5 -27.5t-1.5 -37.5q-2 -63 10 -87.5t30 -20t40 33.5t41 73q12 28 20.5 55.5t14 49t8.5 35l3 13.5q0 12 20 21t45 10.5
t47.5 -5.5t26.5 -27l2 -18t5 -48.5t6.5 -71.5t5.5 -88q38 40 74 86.5t65 104.5q4 8 11.5 10.5t15.5 -1.5zM118 -376q9 -41 26.5 -49t37.5 3t39.5 35.5t34.5 48.5q26 42 40.5 114t18.5 173q-57 -49 -105 -99t-77 -113q-27 -61 -15 -113zM166 486q6 9 14.5 27l17.5 37.5
l17.5 37.5t14.5 28q6 11 25.5 7.5t38 -16t30 -30.5t2.5 -36q-9 -17 -31.5 -33t-46.5 -28.5t-43.5 -20.5t-20.5 -9q-6 -2 -9 -2q-12 0 -18 11q-4 8 0 14z" />
    <glyph glyph-name="ydieresis" unicode="&#xff;" horiz-adv-x="583" 
d="M620 327q-8 4 -15.5 1.5t-11.5 -10.5q-29 -58 -65 -104.5t-74 -86.5q-2 47 -5.5 88t-6.5 71.5t-5 48.5l-2 18q-4 20 -26.5 27t-47.5 5.5t-45 -10.5t-20 -21l-3 -13.5t-8.5 -35t-14 -49t-20.5 -55.5q-19 -44 -41 -73t-40 -33.5t-30 20t-10 87.5q0 21 1.5 37.5t3.5 27.5
q2 13 4 23q3 27 -15.5 42.5t-43 19t-47 -4t-28.5 -27.5q-1 -2 -6.5 -30t-7.5 -68q-8 -110 34 -162q33 -42 91 -42t106 56q35 40 66 112l20 53q3 -36 5 -79.5l4 -91.5v-66l-65 -56t-60.5 -58t-52.5 -63.5t-41 -71.5q-33 -73 -18 -138q14 -62 66 -90q28 -15 60 -15
q15 0 30.5 3.5t30.5 9.5q35 15 66 45t58 73q72 117 66 428v3q48 47 92.5 102t79.5 126q4 8 1.5 15.5t-9.5 11.5zM118 -376q-12 52 15 113q29 63 77 113t105 99q-4 -101 -18.5 -173t-40.5 -114q-15 -24 -34.5 -48.5t-39.5 -35.5t-37.5 -3t-26.5 49zM151 509q0 -20 -14.5 -34
t-36.5 -14q-20 0 -34.5 14t-14.5 34q0 21 14.5 35t34.5 14q22 0 36.5 -14t14.5 -35zM331 509q0 -20 -14.5 -34t-36.5 -14q-20 0 -34.5 14t-14.5 34q0 21 14.5 35t34.5 14q22 0 36.5 -14t14.5 -35z" />
    <glyph glyph-name="scaron" unicode="&#x161;" horiz-adv-x="377" 
d="M423 311q2 8 -2 15t-12 9t-15.5 -2t-9.5 -12q-12 -45 -44 -79t-73 -66q-16 14 -33.5 27l-34.5 26q-32 23 -62 47.5t-53 54.5q36 66 48 139q5 33 2.5 64t-14.5 55t-36 37.5t-62 11.5q-31 0 -59 -17q-15 -10 -28 -24t-22 -32q-18 -35 -18 -79q0 -70 19.5 -122.5t49.5 -93.5
t66.5 -72l71.5 -58l30.5 -24.5l27.5 -22.5q-14 -12 -27 -24.5t-24 -26.5q-58 -70 -58 -152q0 -53 33 -83.5t82 -30.5q47 0 93 26q47 28 72 72q30 49 30 112q-1 54 -18.5 92.5t-46.5 69.5q43 34 78 72.5t49 90.5zM92 476q-4 -26 -12.5 -52.5t-20.5 -52.5q-11 24 -17.5 52
t-6.5 63q0 27 3 45t7 29t8.5 16t6.5 7q10 7 16.5 1.5t11.5 -14.5q7 -16 8 -40.5t-4 -53.5zM188 64q16 -17 24.5 -36t8.5 -42t-9.5 -48.5t-24 -47t-31.5 -37t-31.5 -18t-24 9.5t-9.5 45q0 56 28 97.5t69 76.5zM-56 812q10 0 17 -10l8 -5.5l18.5 -12.5t21 -13t15.5 -6
q6 0 18.5 5.5t25 12l22 11.5t8.5 4q5 7 13 8t15 -4t8 -13t-4 -15q-1 -1 -11.5 -14t-25.5 -29q-23 -24 -40.5 -34.5t-33 -9t-30 14t-32.5 35.5l-11.5 16l-9.5 14q-5 7 -9 14q-5 8 -3 15.5t10 12.5q4 3 10 3z" />
    <glyph glyph-name="zcaron" unicode="&#x17e;" horiz-adv-x="575" 
d="M614 335q-8 2 -15.5 -1.5t-9.5 -11.5l-4.5 -14.5t-12.5 -37.5t-19 -52t-25 -59q-21 -45 -49.5 -76t-61 -42t-68 -0.5t-72.5 48.5q11 14 19.5 27.5t15.5 27t14 28.5t16 32q24 48 49.5 91t57.5 66q6 4 8 11.5t-2 14.5t-11 9t-15 -1q-35 -15 -82.5 -9.5t-95.5 14.5
q-42 8 -80 14t-72 0q-40 -8 -64 -33q-28 -28 -38 -76q-2 -8 3 -14.5t13 -8.5t15 2.5t9 12.5q4 22 12 36.5t17.5 22.5t19.5 12t20 6q28 5 63.5 0t73.5 -13q11 -2 20.5 -4t20.5 -4q-22 -27 -41 -60t-36 -67l-39 -71q-9 3 -18 5t-19 2q-32 0 -57 -12t-38 -35q-10 -18 -10 -38
t11 -37q12 -21 36 -32.5t56 -11.5h3q57 0 107 47q11 -12 24 -24t28 -22q47 -32 102 -32q50 0 100 59q38 45 71 118q15 31 26.5 61t19.5 53l13 38t5 16q2 8 -2 15.5t-12 9.5zM163 597q10 0 17 -10l8 -5.5l18.5 -12.5t21 -13t15.5 -6q6 0 18.5 5.5t25 12l22 11.5t8.5 4
q5 7 13 8t15 -4t8 -13t-4 -15q-1 -1 -11.5 -14t-25.5 -29q-23 -24 -40.5 -34.5t-33 -9t-30 14t-32.5 35.5l-11.5 16l-9.5 14q-5 7 -9 14q-5 8 -3 15.5t10 12.5q4 3 10 3zM71 95q16 27 60 27q6 0 14 -2q-15 -22 -31.5 -39t-36.5 -28q-18 20 -6 42z" />
    <glyph glyph-name="oslash" unicode="&#xf8;" horiz-adv-x="361" 
d="M396 304q6 -6 5.5 -14.5t-6.5 -13.5q-28 -25 -59 -25q-9 0 -17.5 2t-18.5 5q-17 7 -32 15l-3 -4q4 -19 4 -44q0 -66 -34 -114q-20 -26 -47.5 -40.5t-59.5 -14.5q-8 0 -16 0.5t-16 1.5l-30.5 -37t-12.5 -14q-6 -2 -9 -2q-12 0 -18 11q-4 8 0 14l9 13l16 29q-26 14 -45 34
q-20 21 -30 49t-10 60t11 62t31 53q47 53 126 53q33 0 63 -14l27 52q6 11 25.5 7.5t38 -16t30 -30.5t2.5 -36q-3 -6 -10 -16.5t-18 -24.5q22 -13 40.5 -14.5t35.5 14.5q6 6 14.5 5.5t13.5 -6.5zM109 204q0 -3 0.5 -6t0.5 -6l35.5 71l33.5 68q-1 0 -1 1q-20 -9 -34 -23.5
t-22.5 -31.5t-11.5 -36t-1 -37zM154 129q26 -8 50 17t25 76z" />
    <glyph glyph-name="racute" unicode="&#x155;" horiz-adv-x="447" 
d="M482 334q8 -3 11 -10.5t0 -15.5l-8 -20.5l-21.5 -53.5l-32 -74.5t-40.5 -83.5q-12 -24 -33 -62.5t-48 -75.5t-59.5 -63.5t-66.5 -26.5q-16 0 -30.5 7t-24.5 24q-40 68 24 298q14 49 28.5 93t25.5 74q-29 -11 -71.5 -21.5t-88.5 -10.5q-70 0 -110 52q-33 44 -33 107
q0 26 6 49.5t17 41.5q28 46 73 46q29 0 45.5 -11.5t24.5 -22.5q32 -49 5 -154q-5 -20 -10 -37.5t-10 -30.5q34 1 66 8t56.5 15.5t40 15.5l15.5 7q3 2 14.5 5.5t27.5 6t33 3t30.5 -3t20 -12t1.5 -24.5l-6 -16.5l-15.5 -44.5l-21.5 -64t-23 -76q-26 -91 -36 -146t-3 -68
t31.5 19.5t68.5 116.5q22 42 40 82.5l31.5 73l21.5 52.5l8 20q3 8 10.5 11.5t15.5 0.5zM37 429q3 11 6.5 37t2 51t-11.5 41.5t-34 9.5q-15 -4 -22.5 -21t-9.5 -40t1.5 -49t10 -48t15.5 -37t19 -16q5 12 11 31t12 41zM198 536q6 9 14.5 27l17.5 37.5l17.5 37.5t14.5 28
q6 11 25.5 7.5t38 -16t30 -30.5t2.5 -36q-9 -17 -31.5 -33t-46.5 -28.5t-43.5 -20.5t-20.5 -9q-6 -2 -9 -2q-12 0 -18 11q-4 8 0 14z" />
    <glyph glyph-name="abreve" unicode="&#x103;" 
d="M537 334q-8 2 -15 -2t-9 -12l-4.5 -18.5t-13 -47.5t-21 -66.5t-27.5 -75.5q-32 -80 -51 -105t-27.5 -8.5t-7 67t10.5 122.5l9 64.5t8 48.5q4 24 9 42q6 30 -12 46.5t-43 22t-48 0t-26 -19.5l-19 -74q-34 45 -80 64t-90 7q-48 -12 -78 -63q-29 -52 -29 -135q0 -53 9 -86
t21.5 -52t27.5 -26t27 -8q32 0 58 14t47 35.5t37.5 47t28.5 47.5q-8 -69 -6 -122q3 -82 29 -120q23 -33 61 -33q33 0 60 24t49 57.5t37.5 69t24.5 58.5q16 39 28.5 77t21 67.5l13.5 48t5 20.5q2 8 -2.5 15t-12.5 9zM49 591q0 8 6 14t14 6t14 -6t6 -14q0 -12 11 -19.5
t27.5 -11.5t36 -4t36 5t27.5 14t11 22q0 8 6 14t14 6t14 -6t6 -14q0 -55 -32 -91.5t-90 -36.5q-29 0 -49 10.5t-33 27.5t-19 39t-6 45zM166 137q-17 -29 -27 -35t-16 4t-8 32.5t-2 51.5q0 44 9 78.5t24.5 50t37.5 7t48 -51.5q0 -1 2 -3q-14 -38 -31 -72t-37 -62z" />
    <glyph glyph-name="lacute" unicode="&#x13a;" horiz-adv-x="503" 
d="M532 335q8 -2 13 -9t3 -15q0 -1 -7 -28.5l-19 -72t-29.5 -101t-38.5 -115.5q-51 -139 -104 -220q-11 -17 -25.5 -36t-32 -35t-38.5 -26t-45 -10q-57 0 -101 55q-37 48 -63 134q-22 76 -33.5 178t-11.5 219q0 122 12.5 238.5t35.5 209.5q24 98 58 154q39 67 91 67
q27 0 48.5 -10.5t37 -28.5t25.5 -41.5t15 -48.5q11 -62 -2 -134.5t-48 -141.5q-19 -38 -43 -70t-53 -60q-8 -8 -17 -15.5l-18 -15.5q-6 -133 3 -257q4 -49 11 -101.5t17.5 -99.5t24.5 -84t31.5 -54.5t39.5 -11t48 47.5q49 76 99 212q21 58 38 113.5t29 99.5t18.5 71l6.5 27
q2 8 9 13t15 3zM283 786q-6 42 -16 50.5t-22 -5t-24.5 -44.5t-23.5 -69t-20 -77.5t-14 -70.5q-6 -38 -10.5 -77.5t-7.5 -80.5q55 51 92 123q32 62 44 129t2 122zM196 1008q6 9 14.5 27l17.5 37.5l17.5 37.5t14.5 28q6 11 25.5 7.5t38 -16t30 -30.5t2.5 -36q-9 -17 -31.5 -33
t-46.5 -28.5t-43.5 -20.5t-20.5 -9q-6 -2 -9 -2q-12 0 -18 11q-4 8 0 14z" />
    <glyph glyph-name="cacute" unicode="&#x107;" horiz-adv-x="375" 
d="M413 329q8 -4 10 -11.5t-2 -15.5l-28 -56l-55 -104t-60 -92q-73 -94 -156 -94q-56 0 -94 50q-17 20 -28.5 48t-18.5 61q-8 41 -7.5 82.5t10.5 78.5q9 39 29 68q22 31 53 45q30 13 51 7.5t34 -15.5q20 -16 30.5 -38.5t15.5 -41.5q6 -23 7 -49t-2 -49q-2 -8 -8.5 -13
t-14.5 -4q-8 2 -13 8.5t-4 14.5q3 20 2 46.5t-6.5 42t-14.5 11.5t-21 -43q-12 -44 -9 -99q3 -45 13 -80t26.5 -51t40 -8.5t54.5 47.5q29 38 55.5 87l54.5 103l29 55q4 8 11.5 10.5t15.5 -1.5zM82 496q6 9 14.5 27l17.5 37.5l17.5 37.5t14.5 28q6 11 25.5 7.5t38 -16
t30 -30.5t2.5 -36q-9 -17 -31.5 -33t-46.5 -28.5t-43.5 -20.5t-20.5 -9q-6 -2 -9 -2q-12 0 -18 11q-4 8 0 14z" />
    <glyph glyph-name="ccaron" unicode="&#x10d;" horiz-adv-x="375" 
d="M413 329q-8 4 -15.5 1.5t-11.5 -10.5l-29 -55l-54.5 -103t-55.5 -87q-31 -40 -54.5 -47.5t-40 8.5t-26.5 51t-13 80q-3 55 9 99q12 39 21 43t14.5 -11.5t6.5 -42t-2 -46.5q-1 -8 4 -14.5t13 -8.5q8 -1 14.5 4t8.5 13q3 23 2 49t-7 49q-5 19 -15.5 41.5t-30.5 38.5
q-13 10 -34 15.5t-51 -7.5q-31 -14 -53 -45q-20 -29 -29 -68q-10 -37 -10.5 -78.5t7.5 -82.5q7 -33 18.5 -61t28.5 -48q38 -50 94 -50q83 0 156 94q32 41 60 92l55 104l28 56q4 8 2 15.5t-10 11.5zM13 597q10 0 17 -10l8 -5.5l18.5 -12.5t21 -13t15.5 -6q6 0 18.5 5.5t25 12
l22 11.5t8.5 4q5 7 13 8t15 -4t8 -13t-4 -15q-1 -1 -11.5 -14t-25.5 -29q-23 -24 -40.5 -34.5t-33 -9t-30 14t-32.5 35.5l-11.5 16l-9.5 14q-5 7 -9 14q-5 8 -3 15.5t10 12.5q4 3 10 3z" />
    <glyph glyph-name="eogonek" unicode="&#x119;" horiz-adv-x="347" 
d="M255 -144q5 -6 5 -14t-6 -14q-10 -8 -33 -17.5t-50 -9.5q-12 0 -24 3q-42 9 -57 50q-21 56 38 142h-3q-35 0 -63 28.5t-47 82.5q-23 67 -25 143t25 146q10 23 22 40.5t28 29.5q30 24 66 30q36 5 62 -8q20 -10 31.5 -27.5t11.5 -40.5q0 -58 -109 -106q1 -24 3 -57.5
t5.5 -66.5t10.5 -61t19 -41.5t29.5 -9t43.5 37.5q31 42 61.5 95.5l59.5 108.5q4 8 11.5 10.5t15.5 -1.5t10 -11.5t-2 -15.5q-29 -57 -60.5 -112t-63.5 -98q-14 -17 -29.5 -34t-33.5 -31q-11 -16 -20.5 -38.5t-15.5 -45.5t-7.5 -44.5t4.5 -35t19.5 -16.5t38.5 10
q8 4 15.5 4.5t13.5 -5.5zM136 362q20 10 32 19.5t18 17t8 13t2 8.5q0 12 -1.5 13.5t-9.5 -1.5q-33 -14 -49 -70z" />
    <glyph glyph-name="ecaron" unicode="&#x11b;" horiz-adv-x="347" 
d="M386 329q-8 4 -15.5 1.5t-11.5 -10.5l-59.5 -108.5t-61.5 -95.5q-26 -33 -43.5 -37.5t-29.5 9t-19 41.5t-10.5 61t-5.5 66.5t-3 57.5q109 48 109 106q0 23 -11.5 40.5t-31.5 27.5q-26 13 -62 8q-36 -6 -66 -30q-16 -12 -28 -29.5t-22 -40.5q-27 -70 -25 -146t25 -143
q19 -54 47 -82.5t63 -28.5q24 0 44.5 9t38.5 22.5t33 30.5l29 34q32 43 63.5 98t60.5 112q4 8 2 15.5t-10 11.5zM136 362q16 56 49 70q8 3 9.5 1.5t1.5 -13.5q0 -3 -2 -8.5t-8 -13t-18 -17t-32 -19.5zM59 687q10 0 17 -10l8 -5.5l18.5 -12.5t21 -13t15.5 -6q6 0 18.5 5.5
t25 12l22 11.5t8.5 4q5 7 13 8t15 -4t8 -13t-4 -15q-1 -1 -11.5 -14t-25.5 -29q-23 -24 -40.5 -34.5t-33 -9t-30 14t-32.5 35.5l-11.5 16l-9.5 14q-5 7 -9 14q-5 8 -3 15.5t10 12.5q4 3 10 3z" />
    <glyph glyph-name="nacute" unicode="&#x144;" horiz-adv-x="610" 
d="M642 334q8 -2 11.5 -9.5t1.5 -15.5q0 -2 -5.5 -19t-15.5 -45t-24 -63t-31 -72q-43 -89 -84 -139q-57 -68 -115 -68q-37 0 -58 26q-15 18 -19.5 47t-2 64.5t10 76.5t16.5 84q8 37 14.5 70.5t9.5 62.5q3 35 0.5 51t-7.5 21q-2 2 -5 3.5t-9 1.5q-16 0 -35.5 -16.5
t-42.5 -58.5t-50.5 -113.5t-59.5 -180.5q-3 -23 -26.5 -35t-50.5 -14.5t-49.5 5t-22.5 23.5q-2 58 -1 111.5t3 94t3.5 65l1.5 24.5q1 22 23 31t48 5.5t47.5 -18.5t20.5 -40q0 -1 -1 -36l-3 -105l25.5 73t28.5 70q16 35 31 61.5t31 45.5q15 19 38.5 33t49.5 20.5t53 3
t50 -18.5q24 -17 37 -46t13 -65t-8 -79t-19 -87q-16 -72 -19 -115t6.5 -50.5t32 23.5t58.5 106q17 36 30.5 70.5l23.5 61.5t15 44l5 17q2 8 9.5 11.5t15.5 1.5zM340 556q6 9 14.5 27l17.5 37.5l17.5 37.5t14.5 28q6 11 25.5 7.5t38 -16t30 -30.5t2.5 -36q-9 -17 -31.5 -33
t-46.5 -28.5t-43.5 -20.5t-20.5 -9q-6 -2 -9 -2q-12 0 -18 11q-4 8 0 14z" />
    <glyph glyph-name="ncaron" unicode="&#x148;" horiz-adv-x="610" 
d="M642 334q-8 2 -15.5 -1.5t-9.5 -11.5l-5 -17t-15 -44l-23.5 -61.5t-30.5 -70.5q-36 -75 -58.5 -106t-32 -23.5t-6.5 50.5t19 115q11 44 19 87t8 79t-13 65t-37 46q-23 15 -50 18.5t-53 -3t-49.5 -20.5t-38.5 -33q-16 -19 -31 -45.5t-31 -61.5q-15 -33 -28.5 -70
l-25.5 -73l3 105t1 36q1 25 -20.5 40t-47.5 18.5t-48 -5.5t-23 -31l-1.5 -24.5t-3.5 -65t-3 -94t1 -111.5q0 -16 22.5 -23.5t49.5 -5t50.5 14.5t26.5 35q32 109 59.5 180.5t50.5 113.5t42.5 58.5t35.5 16.5q6 0 9 -1.5t5 -3.5q5 -5 7.5 -21t-0.5 -51q-3 -29 -9.5 -62.5
t-14.5 -70.5q-9 -43 -16.5 -84t-10 -76.5t2 -64.5t19.5 -47q21 -26 58 -26q58 0 115 68q41 50 84 139q17 37 31 72t24 63t15.5 45t5.5 19q2 8 -1.5 15.5t-11.5 9.5zM280 647q10 0 17 -10l8 -5.5l18.5 -12.5t21 -13t15.5 -6q6 0 18.5 5.5t25 12l22 11.5t8.5 4q5 7 13 8t15 -4
t8 -13t-4 -15q-1 -1 -11.5 -14t-25.5 -29q-23 -24 -40.5 -34.5t-33 -9t-30 14t-32.5 35.5l-11.5 16l-9.5 14q-5 7 -9 14q-5 8 -3 15.5t10 12.5q4 3 10 3z" />
    <glyph glyph-name="ohungarumlaut" unicode="&#x151;" horiz-adv-x="361" 
d="M396 304q6 -6 5.5 -14.5t-6.5 -13.5q-28 -25 -59 -25q-9 0 -17.5 2t-18.5 5l-18.5 8.5t-18.5 10.5q6 -24 6 -52q0 -66 -34 -114q-20 -26 -47.5 -40.5t-59.5 -14.5q-38 0 -68.5 13t-53.5 37q-20 21 -30 49t-10 60t11 62t31 53q47 53 126 53q33 0 59 -12.5t54 -32.5
q19 -15 35.5 -26.5t31.5 -16.5t28.5 -3t25.5 13q6 6 14.5 5.5t13.5 -6.5zM109 204q4 -44 23.5 -62t41 -14t38.5 29t17 68q0 24 -6 45.5t-18 37.5q-12 15 -27 24q-20 -9 -34 -23.5t-22.5 -31.5t-11.5 -36t-1 -37zM30 476q6 9 14.5 27l17.5 37.5l17.5 37.5t14.5 28
q6 11 25.5 7.5t38 -16t30 -30.5t2.5 -36q-9 -17 -31.5 -33t-46.5 -28.5t-43.5 -20.5t-20.5 -9q-6 -2 -9 -2q-12 0 -18 11q-4 8 0 14zM202 476q6 9 14.5 27l17.5 37.5l17.5 37.5t14.5 28q6 11 25.5 7.5t38 -16t30 -30.5t2.5 -36q-9 -17 -31.5 -33t-46.5 -28.5t-43.5 -20.5
t-20.5 -9q-6 -2 -9 -2q-12 0 -18 11q-4 8 0 14z" />
    <glyph glyph-name="rcaron" unicode="&#x159;" horiz-adv-x="447" 
d="M482 334q8 -3 11 -10.5t0 -15.5l-8 -20.5l-21.5 -53.5l-32 -74.5t-40.5 -83.5q-12 -24 -33 -62.5t-48 -75.5t-59.5 -63.5t-66.5 -26.5q-16 0 -30.5 7t-24.5 24q-40 68 24 298q14 49 28.5 93t25.5 74q-29 -11 -71.5 -21.5t-88.5 -10.5q-70 0 -110 52q-33 44 -33 107
q0 26 6 49.5t17 41.5q28 46 73 46q29 0 45.5 -11.5t24.5 -22.5q32 -49 5 -154q-5 -20 -10 -37.5t-10 -30.5q34 1 66 8t56.5 15.5t40 15.5l15.5 7q3 2 14.5 5.5t27.5 6t33 3t30.5 -3t20 -12t1.5 -24.5l-6 -16.5l-15.5 -44.5l-21.5 -64t-23 -76q-26 -91 -36 -146t-3 -68
t31.5 19.5t68.5 116.5q22 42 40 82.5l31.5 73l21.5 52.5l8 20q3 8 10.5 11.5t15.5 0.5zM37 429q3 11 6.5 37t2 51t-11.5 41.5t-34 9.5q-15 -4 -22.5 -21t-9.5 -40t1.5 -49t10 -48t15.5 -37t19 -16q5 12 11 31t12 41zM139 607q10 0 17 -10l8 -5.5l18.5 -12.5t21 -13t15.5 -6
q6 0 18.5 5.5t25 12l22 11.5t8.5 4q5 7 13 8t15 -4t8 -13t-4 -15q-1 -1 -11.5 -14t-25.5 -29q-23 -24 -40.5 -34.5t-33 -9t-30 14t-32.5 35.5l-11.5 16l-9.5 14q-5 7 -9 14q-5 8 -3 15.5t10 12.5q4 3 10 3z" />
    <glyph glyph-name="uring" unicode="&#x16f;" horiz-adv-x="547" 
d="M573 329q8 -2 13 -9t3 -15q0 -2 -4 -20.5t-11.5 -48.5t-18 -67.5t-23.5 -76.5q-33 -94 -68 -146q-16 -23 -39.5 -44.5t-55.5 -21.5q-2 0 -5 0.5t-5 0.5q-33 5 -52 33q-27 37 -34 117q-2 25 -2.5 54t1.5 63q-13 -28 -26.5 -51t-28.5 -40q-20 -26 -46 -42.5t-61 -16.5
q-56 0 -89 41q-43 55 -37 174q2 43 7.5 73.5t6.5 32.5q6 20 30 29t49.5 8t44.5 -12.5t15 -33.5q-3 -17 -6 -36l-4.5 -37.5t-2.5 -43.5q-2 -67 10 -94t30.5 -22.5t41 35.5t42.5 79q12 30 21 59t15 52t9 37.5l3 14.5q3 11 15 19t28 11.5t33.5 3.5t32.5 -5t23.5 -14t7.5 -23
l-2.5 -14.5t-6 -38.5t-7 -55t-6.5 -65q-5 -70 -3.5 -119t10.5 -64t27 10.5t46 104.5q13 38 23.5 75.5t17.5 66.5t11 47.5l4 18.5q2 8 8.5 13t14.5 3zM299 529q6 -34 -4 -64q-9 -29 -30 -49t-50 -26q-12 -3 -22 -3q-17 0 -29 5t-20 11q-26 18 -35 56q-5 21 -2.5 44.5
t12.5 43.5q22 48 72 61q49 11 81 -22q10 -11 17 -25.5t10 -31.5zM257 476q7 22 3 45t-17 37q-13 13 -29 13q-4 0 -7 -0.5t-7 -1.5q-17 -5 -28.5 -16t-17.5 -25.5t-7.5 -30.5t1.5 -29q2 -7 5.5 -15.5t10.5 -14.5t17.5 -9t25.5 0q25 5 36 20.5t14 26.5z" />
    <glyph glyph-name="uhungarumlaut" unicode="&#x171;" horiz-adv-x="547" 
d="M573 329q8 -2 13 -9t3 -15q0 -2 -4 -20.5t-11.5 -48.5t-18 -67.5t-23.5 -76.5q-33 -94 -68 -146q-16 -23 -39.5 -44.5t-55.5 -21.5q-2 0 -5 0.5t-5 0.5q-33 5 -52 33q-27 37 -34 117q-2 25 -2.5 54t1.5 63q-13 -28 -26.5 -51t-28.5 -40q-20 -26 -46 -42.5t-61 -16.5
q-56 0 -89 41q-43 55 -37 174q2 43 7.5 73.5t6.5 32.5q6 20 30 29t49.5 8t44.5 -12.5t15 -33.5q-3 -17 -6 -36l-4.5 -37.5t-2.5 -43.5q-2 -67 10 -94t30.5 -22.5t41 35.5t42.5 79q12 30 21 59t15 52t9 37.5l3 14.5q3 11 15 19t28 11.5t33.5 3.5t32.5 -5t23.5 -14t7.5 -23
l-2.5 -14.5t-6 -38.5t-7 -55t-6.5 -65q-5 -70 -3.5 -119t10.5 -64t27 10.5t46 104.5q13 38 23.5 75.5t17.5 66.5t11 47.5l4 18.5q2 8 8.5 13t14.5 3zM102 556q6 9 14.5 27l17.5 37.5l17.5 37.5t14.5 28q6 11 25.5 7.5t38 -16t30 -30.5t2.5 -36q-9 -17 -31.5 -33t-46.5 -28.5
t-43.5 -20.5t-20.5 -9q-6 -2 -9 -2q-12 0 -18 11q-4 8 0 14zM274 556q6 9 14.5 27l17.5 37.5l17.5 37.5t14.5 28q6 11 25.5 7.5t38 -16t30 -30.5t2.5 -36q-9 -17 -31.5 -33t-46.5 -28.5t-43.5 -20.5t-20.5 -9q-6 -2 -9 -2q-12 0 -18 11q-4 8 0 14z" />
    <glyph glyph-name="sacute" unicode="&#x15b;" horiz-adv-x="377" 
d="M423 311q-14 -52 -49 -90.5t-78 -72.5q29 -31 46.5 -69.5t18.5 -92.5q0 -63 -30 -112q-25 -44 -72 -72q-46 -26 -93 -26q-49 0 -82 30.5t-33 83.5q0 82 58 152q11 14 24 26.5t27 24.5l-27.5 22.5l-30.5 24.5l-71.5 58t-66.5 72t-49.5 93.5t-19.5 122.5q0 44 18 79
q9 18 22 32t28 24q28 17 59 17q38 2 62 -11.5t36 -37.5t14.5 -55t-2.5 -64q-12 -73 -48 -139q23 -30 53 -54.5t62 -47.5l34.5 -26t33.5 -27q41 32 73 66t44 79q2 8 9.5 12t15.5 2t12 -9t2 -15zM92 476q5 29 4 53.5t-8 40.5q-5 9 -11.5 14.5t-16.5 -1.5q-2 -2 -6.5 -7
t-8.5 -16t-7 -29t-3 -45q0 -35 6.5 -63t17.5 -52q12 26 20.5 52.5t12.5 52.5zM188 64q-41 -35 -69 -76.5t-28 -97.5q0 -33 9.5 -45t24 -9.5t31.5 18t31.5 37t24 47t9.5 48.5t-8.5 42t-24.5 36zM-12 716q6 9 14.5 27l17.5 37.5l17.5 37.5t14.5 28q6 11 25.5 7.5t38 -16
t30 -30.5t2.5 -36q-9 -17 -31.5 -33t-46.5 -28.5t-43.5 -20.5t-20.5 -9q-6 -2 -9 -2q-12 0 -18 11q-4 8 0 14z" />
    <glyph glyph-name="zacute" unicode="&#x17a;" horiz-adv-x="575" 
d="M614 335q8 -2 12 -9.5t2 -15.5q0 -1 -5 -16l-13 -38t-19.5 -53t-26.5 -61q-33 -73 -71 -118q-50 -59 -100 -59q-55 0 -102 32q-15 10 -28 22t-24 24q-50 -47 -107 -47h-3q-32 0 -56 11.5t-36 32.5q-11 17 -11 37t10 38q13 23 38 35t57 12q10 0 19 -2t18 -5l39 71
q17 34 36 67t41 60q-11 2 -20.5 4t-20.5 4q-38 8 -73.5 13t-63.5 0q-10 -2 -20 -6t-19.5 -12t-17.5 -22.5t-12 -36.5q-2 -8 -9 -12.5t-15 -2.5t-13 8.5t-3 14.5q10 48 38 76q24 25 64 33q34 6 72 0t80 -14q48 -9 95.5 -14.5t82.5 9.5q8 3 15 1t11 -9t2 -14.5t-8 -11.5
q-32 -23 -57.5 -66t-49.5 -91q-9 -17 -16 -32t-14 -28.5t-15.5 -27t-19.5 -27.5q37 -38 72.5 -48.5t68 0.5t61 42t49.5 76q14 30 25 59t19 52t12.5 37.5l4.5 14.5q2 8 9.5 11.5t15.5 1.5zM235 513q6 9 14.5 27l17.5 37.5l17.5 37.5t14.5 28q6 11 25.5 7.5t38 -16t30 -30.5
t2.5 -36q-9 -17 -31.5 -33t-46.5 -28.5t-43.5 -20.5t-20.5 -9q-6 -2 -9 -2q-12 0 -18 11q-4 8 0 14zM71 95q-12 -22 6 -42q20 11 36.5 28t31.5 39q-8 2 -14 2q-44 0 -60 -27z" />
    <glyph glyph-name="zdotaccent" unicode="&#x17c;" horiz-adv-x="575" 
d="M614 335q-8 2 -15.5 -1.5t-9.5 -11.5l-4.5 -14.5t-12.5 -37.5t-19 -52t-25 -59q-21 -45 -49.5 -76t-61 -42t-68 -0.5t-72.5 48.5q11 14 19.5 27.5t15.5 27t14 28.5t16 32q24 48 49.5 91t57.5 66q6 4 8 11.5t-2 14.5t-11 9t-15 -1q-35 -15 -82.5 -9.5t-95.5 14.5
q-42 8 -80 14t-72 0q-40 -8 -64 -33q-28 -28 -38 -76q-2 -8 3 -14.5t13 -8.5t15 2.5t9 12.5q4 22 12 36.5t17.5 22.5t19.5 12t20 6q28 5 63.5 0t73.5 -13q11 -2 20.5 -4t20.5 -4q-22 -27 -41 -60t-36 -67l-39 -71q-9 3 -18 5t-19 2q-32 0 -57 -12t-38 -35q-10 -18 -10 -38
t11 -37q12 -21 36 -32.5t56 -11.5h3q57 0 107 47q11 -12 24 -24t28 -22q47 -32 102 -32q50 0 100 59q38 45 71 118q15 31 26.5 61t19.5 53l13 38t5 16q2 8 -2 15.5t-12 9.5zM297 529q0 -20 -14.5 -34t-36.5 -14q-20 0 -34.5 14t-14.5 34q0 21 14.5 35t34.5 14q22 0 36.5 -14
t14.5 -35zM71 95q16 27 60 27q6 0 14 -2q-15 -22 -31.5 -39t-36.5 -28q-18 20 -6 42z" />
    <glyph glyph-name="aogonek" unicode="&#x105;" 
d="M456 -221q5 -6 5 -14t-6 -14q-10 -8 -33 -17.5t-50 -9.5q-12 0 -24 3q-42 9 -57 50q-9 23 -4 51t22 60q-17 1 -31.5 8.5t-25.5 24.5q-26 38 -29 120q-2 53 6 122q-12 -22 -28.5 -47.5t-37.5 -47t-47 -35.5t-58 -14q-12 1 -27 8t-27.5 26t-21.5 52t-9 86q0 83 29 135
q30 51 78 63q44 12 90 -7t80 -64l19 74q3 14 26 19.5t48 0t43 -22t12 -46.5q-5 -18 -9 -42q-4 -20 -8 -48.5l-9 -64.5q-9 -72 -10.5 -122.5t7 -67t27.5 8.5t51 105q15 38 27.5 75.5t21 66.5t13 47.5l4.5 18.5q2 8 9 12t15 2t12.5 -9t2.5 -15q0 -2 -5 -20.5l-13.5 -48
t-21 -67.5t-28.5 -77q-9 -23 -25 -59t-38 -69q-3 -5 -4 -6q-4 -5 -7 -10.5t-8 -10.5q-10 -17 -19 -39t-14 -44t-5.5 -42t6 -32.5t20 -15t37.5 10.5q8 4 15.5 4.5t13.5 -5.5zM166 137q20 28 37 62t31 72q-2 2 -2 3q-26 43 -48 51.5t-37.5 -7t-24.5 -50t-9 -78.5
q0 -29 2 -51.5t8 -32.5t16 -4t27 35z" />
    <glyph glyph-name="dcaron" unicode="&#x10f;" horiz-adv-x="758" 
d="M746 334q18 -7 13 -26q-1 -2 -8 -21.5t-20 -51t-31 -71.5t-41 -82q-99 -185 -197 -224h-1q-25 -11 -49 -11h-2q-37 0 -64 24q-26 23 -44 63q-27 61 -36 165l-39.5 -34.5t-39.5 -29.5t-42 -21.5t-47 -10.5q-42 -1 -73 28q-47 45 -47 160q0 85 31 137q31 53 82 64
q29 6 58.5 -3t58.5 -32q30 -24 55 -61q5 84 16.5 170t31.5 165q29 124 67 197q45 88 98 94q33 3 52 -8t29 -23q40 -55 9 -202q-8 -36 -18.5 -72.5t-22.5 -71.5t-24 -66.5t-23 -57.5q-14 -33 -33 -69.5t-42 -73.5q0 -9 -1 -13q-2 -44 -1.5 -93.5t4 -95t11.5 -83t22 -57.5
t34.5 -18.5t49.5 34.5q50 53 102 149q22 41 40 80.5t30.5 70t19.5 50l7 19.5q3 8 10 11.5t15 1.5zM118 176q0 -60 10 -85t29 -23.5t45.5 25t59.5 60.5q-1 16 -1 32.5v33.5q-12 18 -26 44t-30 42.5t-33.5 14.5t-35.5 -40q-18 -42 -18 -104zM527 698q13 59 15.5 87t-2.5 32
t-15.5 -11t-23 -42t-24.5 -62t-21 -70q-16 -60 -27.5 -126.5t-18.5 -134.5q9 17 16.5 33l14.5 32l22 56.5l24 65.5t22 69.5t18 70.5zM603 568q15 0 26.5 19t17 44t4 49.5t-13.5 35.5q-14 14 -8 27q4 8 11.5 10t15.5 -2q22 -12 35 -32.5t17.5 -44.5t1 -48.5t-14 -44.5
t-28 -32.5t-40.5 -12.5q-19 0 -26 5t-7.5 11t3 11t6.5 5z" />
    <glyph glyph-name="tcaron" unicode="&#x165;" horiz-adv-x="383" 
d="M822 910l-26.5 -66t-32.5 -51.5t-52.5 -35t-86.5 -16.5q-51 -3 -108.5 0t-117 10.5t-119 18l-116.5 20.5l2 58t-1 48q-2 27 -23.5 40t-47 15t-46.5 -6.5t-21 -24.5v-22t-0.5 -28l-1 -30t-1.5 -28q-37 5 -71 8.5t-64 3.5q-66 1 -105 -15q-48 -18 -60 -64q-3 -10 8 -16
t26 -7.5t28.5 1.5t15.5 12q5 22 28.5 32t55.5 12.5t68.5 -0.5t67.5 -7l-8 -140q-3 -64 -7 -134t-7 -142.5t-4.5 -144t-1.5 -138.5q1 -163 17.5 -257t49.5 -128q21 -21 48 -21h1q62 1 127 109q23 40 47.5 95t49.5 124q21 58 38 114.5t29 101l19 72l7 27.5q2 8 -2.5 15
t-12.5 9t-15 -2.5t-9 -12.5l-6.5 -27t-18.5 -71t-29 -99.5t-38 -112.5q-24 -68 -47.5 -121t-46.5 -92q-16 -27 -27 -26t-18.5 21.5t-12 57t-7 79t-3 88.5t-0.5 85q0 63 2 130t5 133.5t6.5 131l6.5 123.5l8 130q4 -1 7.5 -1.5t8.5 -0.5q97 -17 200 -32.5t197 -15.5
q14 0 26.5 0.5t26.5 1.5q53 3 101.5 15.5t89 35.5t71 58.5t47.5 85.5q8 24 -6.5 35t-36 11.5t-43.5 -8t-28 -24.5zM273 841q15 0 26.5 19t17 44t4 49.5t-13.5 35.5q-14 14 -8 27q4 8 11.5 10t15.5 -2q22 -12 35 -32.5t17.5 -44.5t1 -48.5t-14 -44.5t-28 -32.5t-40.5 -12.5
q-19 0 -26 5t-7.5 11t3 11t6.5 5z" />
    <glyph glyph-name="lcaron" unicode="&#x13e;" horiz-adv-x="547" 
d="M393 568q15 0 26.5 19t17 44t4 49.5t-13.5 35.5q-14 14 -8 27q4 8 11.5 10t15.5 -2q22 -12 35 -32.5t17.5 -44.5t1 -48.5t-14 -44.5t-28 -32.5t-40.5 -12.5q-19 0 -26 5t-7.5 11t3 11t6.5 5zM532 335q8 -2 13 -9t3 -15q0 -1 -7 -28.5l-19 -72t-29.5 -101t-38.5 -115.5
q-51 -139 -104 -220q-11 -17 -25.5 -36t-32 -35t-38.5 -26t-45 -10q-57 0 -101 55q-37 48 -63 134q-22 76 -33.5 178t-11.5 219q0 122 12.5 238.5t35.5 209.5q24 98 58 154q39 67 91 67q27 0 48.5 -10.5t37 -28.5t25.5 -41.5t15 -48.5q11 -62 -2 -134.5t-48 -141.5
q-19 -38 -43 -70t-53 -60q-8 -8 -17 -15.5l-18 -15.5q-6 -133 3 -257q4 -49 11 -101.5t17.5 -99.5t24.5 -84t31.5 -54.5t39.5 -11t48 47.5q49 76 99 212q21 58 38 113.5t29 99.5t18.5 71l6.5 27q2 8 9 13t15 3zM283 786q-6 42 -16 50.5t-22 -5t-24.5 -44.5t-23.5 -69
t-20 -77.5t-14 -70.5q-6 -38 -10.5 -77.5t-7.5 -80.5q55 51 92 123q32 62 44 129t2 122z" />
    <glyph glyph-name="Lcaron" unicode="&#x13d;" horiz-adv-x="1298" 
d="M1326 333q8 -1 13 -7.5t4 -14.5q-26 -175 -93 -282q-14 -21 -31.5 -42t-39 -37.5t-47.5 -27t-56 -10.5q-37 0 -75.5 12t-78 31.5t-79.5 44l-79 50.5l-38 25q-17 -25 -38.5 -40.5t-48.5 -24t-58.5 -11.5t-66.5 -3q-43 0 -71.5 21t-37.5 51q-5 16 -3.5 35t11 36.5t28 32.5
t47.5 25q31 10 65 4t72 -23v6q4 60 -3.5 134.5t-17.5 149.5l-6 45.5t-5 44.5q-51 -17 -105.5 -28t-109.5 -21q-62 -11 -118 -22.5t-101 -31.5q-48 -22 -73.5 -52t-33.5 -73q-2 -8 -8.5 -13t-14.5 -3t-13 8.5t-3 14.5q18 103 130 154q48 22 106.5 34.5t121.5 23.5
q57 10 112 21t105 29q-6 66 -6 122t13 98q14 42 40.5 68.5t62.5 33.5q26 4 49 -3t44 -22l13 -14q22 -28 24 -64.5t-15 -76.5q-30 -68 -88 -114q3 -38 8 -77.5l10 -79.5q5 -39 13 -84t12 -91t1 -91t-19 -83q30 -21 70.5 -41t84.5 -36t89.5 -25t86.5 -7q54 2 93 33.5t65.5 77
t42 98t21.5 96.5q2 8 8.5 13t14.5 3zM477 43q30 -14 76 -1q33 9 51 45q10 20 16 49l-7 3q-51 24 -86 24q-7 0 -13.5 -1t-12.5 -3q-39 -14 -51.5 -37t-6.5 -43q8 -24 34 -36zM903 568q15 0 26.5 19t17 44t4 49.5t-13.5 35.5q-14 14 -8 27q4 8 11.5 10t15.5 -2
q22 -12 35 -32.5t17.5 -44.5t1 -48.5t-14 -44.5t-28 -32.5t-40.5 -12.5q-19 0 -26 5t-7.5 11t3 11t6.5 5zM776 757q10 23 9.5 47t-7.5 35.5t-19.5 4t-25.5 -46.5q-7 -23 -9.5 -53.5t-1.5 -65.5q17 17 30.5 36.5t23.5 42.5z" />
    <glyph glyph-name="scedilla" unicode="&#x15f;" horiz-adv-x="377" 
d="M112 -432q15 0 26.5 19t17 44t4 49.5t-13.5 35.5q-6 6 -9 12.5t1 14.5t11.5 10t15.5 -2q22 -12 35 -32.5t17.5 -44.5t1 -48.5t-14 -44.5t-28 -32.5t-40.5 -12.5q-19 0 -26 5t-7.5 11t3 11t6.5 5zM423 311q-14 -52 -49 -90.5t-78 -72.5q29 -31 46.5 -69.5t18.5 -92.5
q0 -63 -30 -112q-25 -44 -72 -72q-46 -26 -93 -26q-49 0 -82 30.5t-33 83.5q0 82 58 152q11 14 24 26.5t27 24.5l-27.5 22.5l-30.5 24.5l-71.5 58t-66.5 72t-49.5 93.5t-19.5 122.5q0 44 18 79q9 18 22 32t28 24q28 17 59 17q38 2 62 -11.5t36 -37.5t14.5 -55t-2.5 -64
q-12 -73 -48 -139q23 -30 53 -54.5t62 -47.5l34.5 -26t33.5 -27q41 32 73 66t44 79q2 8 9.5 12t15.5 2t12 -9t2 -15zM92 476q5 29 4 53.5t-8 40.5q-5 9 -11.5 14.5t-16.5 -1.5q-2 -2 -6.5 -7t-8.5 -16t-7 -29t-3 -45q0 -35 6.5 -63t17.5 -52q12 26 20.5 52.5t12.5 52.5z
M188 64q-41 -35 -69 -76.5t-28 -97.5q0 -33 9.5 -45t24 -9.5t31.5 18t31.5 37t24 47t9.5 48.5t-8.5 42t-24.5 36z" />
    <glyph glyph-name="uni0163" unicode="&#x163;" horiz-adv-x="383" 
d="M822 910q6 16 28 24.5t43.5 8t36 -11.5t6.5 -35q-17 -50 -47.5 -85.5t-71 -58.5t-89 -35.5t-101.5 -15.5q-14 -1 -26.5 -1.5t-26.5 -0.5q-94 0 -197 15.5t-200 32.5q-5 0 -8.5 0.5t-7.5 1.5l-8 -130l-6.5 -123.5t-6.5 -131t-5 -133.5t-2 -130q0 -39 0.5 -85t3 -88.5
t7 -79t12 -57t18.5 -21.5t27 26q23 39 46.5 92t47.5 121q21 57 38 112.5t29 99.5t18.5 71l6.5 27q2 8 9 12.5t15 2.5t12.5 -9t2.5 -15l-7 -27.5l-19 -72t-29 -101t-38 -114.5q-25 -69 -49.5 -124t-47.5 -95q-65 -108 -127 -109h-1q-27 0 -48 21q-33 34 -49.5 128t-17.5 257
q0 67 1.5 138.5t4.5 144t7 142.5t7 134l8 140q-31 4 -67.5 7t-68.5 0.5t-55.5 -12.5t-28.5 -32q-2 -9 -15.5 -12t-28.5 -1.5t-26 7.5t-8 16q12 46 60 64q39 16 105 15q30 0 64 -3.5t71 -8.5q1 13 1.5 28l1 30t0.5 28v22q0 16 21 24.5t46.5 6.5t47 -15t23.5 -40q2 -20 1 -48
l-2 -58l116.5 -20.5t119 -18t117 -10.5t108.5 0q54 3 86.5 16.5t52.5 35t32.5 51.5zM60 -546q15 0 26.5 19t17 44t4 49.5t-13.5 35.5q-6 6 -9 12.5t1 14.5t11.5 10t15.5 -2q22 -12 35 -32.5t17.5 -44.5t1 -48.5t-14 -44.5t-28 -32.5t-40.5 -12.5q-19 0 -26 5t-7.5 11t3 11
t6.5 5z" />
    <glyph glyph-name="Agrave" unicode="&#xc0;" horiz-adv-x="1025" 
d="M1053 335q8 -2 13 -9t3 -15l-5.5 -27.5t-16 -72t-26 -101.5t-35.5 -115q-113 -328 -258 -328q-52 0 -83 37q-27 31 -38.5 87.5t-9.5 146.5q3 76 13.5 164t22.5 178l10 80l10 79q-57 -6 -118 -7.5t-123 -3.5l-91 -2t-83 -4q-7 -41 -11.5 -84.5t-7.5 -91.5
q-5 -75 -4.5 -143t2 -119.5t4 -82t2.5 -31.5q1 -8 -4.5 -14.5t-13.5 -7.5t-14.5 4.5t-7.5 13.5q0 1 -2.5 32t-4 83.5t-1.5 121t5 145.5q2 45 6.5 87.5t9.5 82.5q-12 -2 -24 -3.5t-23 -3.5q-34 -7 -53.5 -16t-30 -18.5t-13.5 -19.5t-3 -19q0 -8 -6 -14t-14 -6t-14 6t-6 14
q0 48 40 76q31 24 92 36q28 6 62 9q5 28 10.5 54.5t12.5 51.5q22 86 53.5 151.5t72.5 110.5q32 35 74.5 58t88 32t91.5 5t85 -23t67 -53t39 -84q12 -50 12.5 -114t-6.5 -136q41 16 67.5 40t35.5 59q2 8 9 12t15 2t12 -9t2 -15q-22 -93 -145 -133q-5 -52 -12 -105.5
t-15 -107.5q-13 -97 -23.5 -184.5t-11.5 -162.5q-1 -55 4 -97.5t18 -61.5t35.5 -10t55.5 57q52 78 98 212q20 57 35 112.5t25.5 99.5t15.5 71t5 28q2 8 9 13t15 3zM412 468q62 2 124.5 3.5t121.5 8.5q4 41 7 79.5t4 73.5q0 18 0.5 43.5t-2 53t-9 55t-18.5 49t-30.5 35
t-46.5 13.5q-106 0 -182 -82q-48 -52 -82 -137t-55 -201q39 3 81 4zM627 1003l9 -13t0 -14q-6 -11 -18 -11q-3 0 -9 2q-2 1 -21 9t-43 20.5t-46.5 28.5t-31.5 33q-9 18 2.5 36t30 30.5t38 16t25.5 -7.5q6 -10 14.5 -28l17.5 -37.5l17.5 -37.5t14.5 -27z" />
    <glyph glyph-name="Aacute" unicode="&#xc1;" horiz-adv-x="1025" 
d="M1053 335q8 -2 13 -9t3 -15l-5.5 -27.5t-16 -72t-26 -101.5t-35.5 -115q-113 -328 -258 -328q-52 0 -83 37q-27 31 -38.5 87.5t-9.5 146.5q3 76 13.5 164t22.5 178l10 80l10 79q-57 -6 -118 -7.5t-123 -3.5l-91 -2t-83 -4q-7 -41 -11.5 -84.5t-7.5 -91.5
q-5 -75 -4.5 -143t2 -119.5t4 -82t2.5 -31.5q1 -8 -4.5 -14.5t-13.5 -7.5t-14.5 4.5t-7.5 13.5q0 1 -2.5 32t-4 83.5t-1.5 121t5 145.5q2 45 6.5 87.5t9.5 82.5q-12 -2 -24 -3.5t-23 -3.5q-34 -7 -53.5 -16t-30 -18.5t-13.5 -19.5t-3 -19q0 -8 -6 -14t-14 -6t-14 6t-6 14
q0 48 40 76q31 24 92 36q28 6 62 9q5 28 10.5 54.5t12.5 51.5q22 86 53.5 151.5t72.5 110.5q32 35 74.5 58t88 32t91.5 5t85 -23t67 -53t39 -84q12 -50 12.5 -114t-6.5 -136q41 16 67.5 40t35.5 59q2 8 9 12t15 2t12 -9t2 -15q-22 -93 -145 -133q-5 -52 -12 -105.5
t-15 -107.5q-13 -97 -23.5 -184.5t-11.5 -162.5q-1 -55 4 -97.5t18 -61.5t35.5 -10t55.5 57q52 78 98 212q20 57 35 112.5t25.5 99.5t15.5 71t5 28q2 8 9 13t15 3zM412 468q62 2 124.5 3.5t121.5 8.5q4 41 7 79.5t4 73.5q0 18 0.5 43.5t-2 53t-9 55t-18.5 49t-30.5 35
t-46.5 13.5q-106 0 -182 -82q-48 -52 -82 -137t-55 -201q39 3 81 4zM512 994q6 9 14.5 27l17.5 37.5l17.5 37.5t14.5 28q6 11 25.5 7.5t38 -16t30 -30.5t2.5 -36q-9 -17 -31.5 -33t-46.5 -28.5t-43.5 -20.5t-20.5 -9q-6 -2 -9 -2q-12 0 -18 11q-4 8 0 14z" />
    <glyph glyph-name="Acircumflex" unicode="&#xc2;" horiz-adv-x="1025" 
d="M1053 335q-8 2 -15 -3t-9 -13q0 -1 -5 -28t-15.5 -71t-25.5 -99.5t-35 -112.5q-46 -134 -98 -212q-33 -48 -55.5 -57t-35.5 10t-18 61.5t-4 97.5q1 75 11.5 162.5t23.5 184.5q8 54 15 107.5t12 105.5q123 40 145 133q2 8 -2 15t-12 9t-15 -2t-9 -12q-9 -35 -35.5 -59
t-67.5 -40q7 72 6.5 136t-12.5 114q-11 50 -39 84t-67 53t-85 23t-91.5 -5t-88 -32t-74.5 -58q-41 -45 -72.5 -110.5t-53.5 -151.5q-7 -25 -12.5 -51.5t-10.5 -54.5q-34 -3 -62 -9q-61 -12 -92 -36q-40 -28 -40 -76q0 -8 6 -14t14 -6t14 6t6 14q0 9 3 19t13.5 19.5t30 18.5
t53.5 16q11 2 23 3.5t24 3.5q-5 -40 -9.5 -82.5t-6.5 -87.5q-5 -77 -5 -145.5t1.5 -121t4 -83.5t2.5 -32q1 -8 7.5 -13.5t14.5 -4.5t13.5 7.5t4.5 14.5q0 1 -2.5 31.5t-4 82t-2 119.5t4.5 143q3 48 7.5 91.5t11.5 84.5q39 3 83 4l91 2q62 2 123 3.5t118 7.5l-10 -79l-10 -80
q-12 -90 -22.5 -178t-13.5 -164q-2 -90 9.5 -146.5t38.5 -87.5q31 -37 83 -37q145 0 258 328q20 58 35.5 115t26 101.5t16 72l5.5 27.5q2 8 -3 15t-13 9zM412 468l-87 -2t-81 -4q21 116 55 201t82 137q76 82 182 82q28 0 46.5 -13.5t30.5 -35t18.5 -49t9 -55t2 -53
t-0.5 -43.5q-1 -35 -4 -73.5t-7 -79.5q-59 -7 -121.5 -8.5t-124.5 -3.5zM654 960q-10 0 -17 10l-8 5.5l-18.5 12.5t-21 13t-15.5 6q-6 0 -18.5 -5.5t-25 -12l-22 -11.5t-8.5 -4q-5 -7 -13 -8t-15 4t-8 13t4 15q1 1 11.5 14t25.5 29q23 24 40.5 34.5t33 9t30 -14.5t32.5 -35
q6 -8 11 -16t10 -14q4 -7 9 -14q5 -8 3 -15.5t-10 -12.5q-5 -3 -10 -3z" />
    <glyph glyph-name="Atilde" unicode="&#xc3;" horiz-adv-x="1025" 
d="M1053 335q8 -2 13 -9t3 -15l-5.5 -27.5t-16 -72t-26 -101.5t-35.5 -115q-113 -328 -258 -328q-52 0 -83 37q-27 31 -38.5 87.5t-9.5 146.5q3 76 13.5 164t22.5 178l10 80l10 79q-57 -6 -118 -7.5t-123 -3.5l-91 -2t-83 -4q-7 -41 -11.5 -84.5t-7.5 -91.5
q-5 -75 -4.5 -143t2 -119.5t4 -82t2.5 -31.5q1 -8 -4.5 -14.5t-13.5 -7.5t-14.5 4.5t-7.5 13.5q0 1 -2.5 32t-4 83.5t-1.5 121t5 145.5q2 45 6.5 87.5t9.5 82.5q-12 -2 -24 -3.5t-23 -3.5q-34 -7 -53.5 -16t-30 -18.5t-13.5 -19.5t-3 -19q0 -8 -6 -14t-14 -6t-14 6t-6 14
q0 48 40 76q31 24 92 36q28 6 62 9q5 28 10.5 54.5t12.5 51.5q22 86 53.5 151.5t72.5 110.5q32 35 74.5 58t88 32t91.5 5t85 -23t67 -53t39 -84q12 -50 12.5 -114t-6.5 -136q41 16 67.5 40t35.5 59q2 8 9 12t15 2t12 -9t2 -15q-22 -93 -145 -133q-5 -52 -12 -105.5
t-15 -107.5q-13 -97 -23.5 -184.5t-11.5 -162.5q-1 -55 4 -97.5t18 -61.5t35.5 -10t55.5 57q52 78 98 212q20 57 35 112.5t25.5 99.5t15.5 71t5 28q2 8 9 13t15 3zM412 468q62 2 124.5 3.5t121.5 8.5q4 41 7 79.5t4 73.5q0 18 0.5 43.5t-2 53t-9 55t-18.5 49t-30.5 35
t-46.5 13.5q-106 0 -182 -82q-48 -52 -82 -137t-55 -201q39 3 81 4zM690 1072q8 0 14 -6t6 -14q0 -44 -17.5 -65.5t-42 -25t-52.5 8t-49 32.5q-13 13 -28.5 16t-29.5 0t-23.5 -10.5t-9.5 -15.5t-7 -13.5t-15 -3.5q-8 1 -13 7.5t-5 14.5q0 35 17.5 58t43 31t54 1.5
t50.5 -30.5q10 -12 25 -18.5t29 -7.5t23.5 4t9.5 17q0 8 6 14t14 6z" />
    <glyph glyph-name="Adieresis" unicode="&#xc4;" horiz-adv-x="1025" 
d="M1053 335q-8 2 -15 -3t-9 -13q0 -1 -5 -28t-15.5 -71t-25.5 -99.5t-35 -112.5q-46 -134 -98 -212q-33 -48 -55.5 -57t-35.5 10t-18 61.5t-4 97.5q1 75 11.5 162.5t23.5 184.5q8 54 15 107.5t12 105.5q123 40 145 133q2 8 -2 15t-12 9t-15 -2t-9 -12q-9 -35 -35.5 -59
t-67.5 -40q7 72 6.5 136t-12.5 114q-11 50 -39 84t-67 53t-85 23t-91.5 -5t-88 -32t-74.5 -58q-41 -45 -72.5 -110.5t-53.5 -151.5q-7 -25 -12.5 -51.5t-10.5 -54.5q-34 -3 -62 -9q-61 -12 -92 -36q-40 -28 -40 -76q0 -8 6 -14t14 -6t14 6t6 14q0 9 3 19t13.5 19.5t30 18.5
t53.5 16q11 2 23 3.5t24 3.5q-5 -40 -9.5 -82.5t-6.5 -87.5q-5 -77 -5 -145.5t1.5 -121t4 -83.5t2.5 -32q1 -8 7.5 -13.5t14.5 -4.5t13.5 7.5t4.5 14.5q0 1 -2.5 31.5t-4 82t-2 119.5t4.5 143q3 48 7.5 91.5t11.5 84.5q39 3 83 4l91 2q62 2 123 3.5t118 7.5l-10 -79l-10 -80
q-12 -90 -22.5 -178t-13.5 -164q-2 -90 9.5 -146.5t38.5 -87.5q31 -37 83 -37q145 0 258 328q20 58 35.5 115t26 101.5t16 72l5.5 27.5q2 8 -3 15t-13 9zM412 468l-87 -2t-81 -4q21 116 55 201t82 137q76 82 182 82q28 0 46.5 -13.5t30.5 -35t18.5 -49t9 -55t2 -53
t-0.5 -43.5q-1 -35 -4 -73.5t-7 -79.5q-59 -7 -121.5 -8.5t-124.5 -3.5zM514 1004q0 -20 -14.5 -34t-36.5 -14q-20 0 -34.5 14t-14.5 34q0 21 14.5 35t34.5 14q22 0 36.5 -14t14.5 -35zM694 1004q0 -20 -14.5 -34t-36.5 -14q-20 0 -34.5 14t-14.5 34q0 21 14.5 35t34.5 14
q22 0 36.5 -14t14.5 -35z" />
    <glyph glyph-name="Aring" unicode="&#xc5;" horiz-adv-x="1025" 
d="M1053 335q8 -2 13 -9t3 -15l-5.5 -27.5t-16 -72t-26 -101.5t-35.5 -115q-113 -328 -258 -328q-52 0 -83 37q-27 31 -38.5 87.5t-9.5 146.5q3 76 13.5 164t22.5 178l10 80l10 79q-57 -6 -118 -7.5t-123 -3.5l-91 -2t-83 -4q-7 -41 -11.5 -84.5t-7.5 -91.5
q-5 -75 -4.5 -143t2 -119.5t4 -82t2.5 -31.5q1 -8 -4.5 -14.5t-13.5 -7.5t-14.5 4.5t-7.5 13.5q0 1 -2.5 32t-4 83.5t-1.5 121t5 145.5q2 45 6.5 87.5t9.5 82.5q-12 -2 -24 -3.5t-23 -3.5q-34 -7 -53.5 -16t-30 -18.5t-13.5 -19.5t-3 -19q0 -8 -6 -14t-14 -6t-14 6t-6 14
q0 48 40 76q31 24 92 36q28 6 62 9q5 28 10.5 54.5t12.5 51.5q22 86 53.5 151.5t72.5 110.5q32 35 74.5 58t88 32t91.5 5t85 -23t67 -53t39 -84q12 -50 12.5 -114t-6.5 -136q41 16 67.5 40t35.5 59q2 8 9 12t15 2t12 -9t2 -15q-22 -93 -145 -133q-5 -52 -12 -105.5
t-15 -107.5q-13 -97 -23.5 -184.5t-11.5 -162.5q-1 -55 4 -97.5t18 -61.5t35.5 -10t55.5 57q52 78 98 212q20 57 35 112.5t25.5 99.5t15.5 71t5 28q2 8 9 13t15 3zM412 468q62 2 124.5 3.5t121.5 8.5q4 41 7 79.5t4 73.5q0 18 0.5 43.5t-2 53t-9 55t-18.5 49t-30.5 35
t-46.5 13.5q-106 0 -182 -82q-48 -52 -82 -137t-55 -201q39 3 81 4zM658 1079q6 -34 -4 -64q-9 -29 -30 -49t-50 -26q-12 -3 -22 -3q-17 0 -29 5t-20 11q-26 18 -35 56q-5 21 -2.5 44.5t12.5 43.5q22 48 72 61q49 11 81 -22q10 -11 17 -25.5t10 -31.5zM616 1026q7 22 3 45
t-17 37q-13 13 -29 13q-4 0 -7 -0.5t-7 -1.5q-17 -5 -28.5 -16t-17.5 -25.5t-7.5 -30.5t1.5 -29q2 -7 5.5 -15.5t10.5 -14.5t17.5 -9t25.5 0q25 5 36 20.5t14 26.5z" />
    <glyph glyph-name="Ccedilla" unicode="&#xc7;" horiz-adv-x="1099" 
d="M1130 327q8 -2 12 -9.5t1 -15.5q0 -2 -7 -21.5t-20.5 -51t-33 -71t-44.5 -81.5q-63 -101 -129 -157q-88 -74 -181 -74h-4l-8 -28q31 1 48 -10t25 -21q15 -22 14 -50q0 -14 -4 -26.5t-11 -24.5q-19 -30 -47 -43q-24 -12 -53 -12q-5 0 -10.5 0.5t-10.5 1.5q-8 2 -13 8.5
t-4 14.5q2 8 8.5 13.5t14.5 3.5q13 -2 25.5 13.5t18 35t1.5 36.5t-25 17q-13 0 -19 6q-8 8 -5 19l14 52q-31 8 -55 25q-41 26 -79 79q-32 48 -57 111.5t-40 141.5q-17 85 -21.5 172.5t3.5 170.5q-65 -5 -127 -14t-113 -26q-71 -25 -106.5 -65.5t-39.5 -101.5q-1 -8 -7 -14
t-14 -5t-14 7t-5 14q4 77 54 131q43 46 119 71q57 20 123 29t136 15q8 56 24 111t45 106q47 79 115 108q51 23 104 15q49 -6 89 -37q40 -30 60 -79q11 -24 14 -51t-1 -54q-12 -89 -135 -123q-38 -11 -83.5 -16.5t-95.5 -10.5q-5 -34 -6.5 -70.5t-0.5 -74.5
q2 -91 17.5 -176.5t42.5 -157.5q38 -96 84 -133.5t95 -29.5t99 55t96 122q25 40 44 79t32 69.5t19.5 49.5l6.5 19q3 8 10 11.5t15 1.5zM851 718q6 44 -9.5 82.5t-48.5 63.5q-25 19 -49 16.5t-46 -20.5t-41.5 -48.5t-34.5 -65.5t-25.5 -72.5t-14.5 -70.5q52 4 99 11t83.5 20
t59 33t27.5 51z" />
    <glyph glyph-name="Egrave" unicode="&#xc8;" horiz-adv-x="820" 
d="M848 338q8 -2 13 -9t3 -15q-24 -124 -69 -220t-109 -160q-42 -42 -97.5 -68t-112.5 -29t-110.5 20.5t-92.5 79.5q-31 45 -44 101.5t-8 122.5q9 108 61 186q43 64 109 100l26 14q-13 5 -30 17q-50 35 -80 113q-41 -23 -79.5 -47.5t-71.5 -51.5q-113 -89 -107 -172
q1 -9 -4.5 -15t-13.5 -7t-14.5 4.5t-7.5 13.5q-7 104 122 208q36 29 78 55.5t86 50.5q-10 47 -1 103q12 67 49 117q29 41 67.5 62t81.5 21q37 0 72.5 -18.5t49.5 -56.5q3 -9 4.5 -21.5t-3 -27.5t-16 -32.5t-34.5 -35.5q-24 -19 -58 -39l-76 -43q1 -10 3 -19l4 -18
q14 -43 46 -78.5t66 -50.5q15 -7 12 -20t-11 -17q-32 -16 -64 -44t-58.5 -66t-45 -85.5t-22.5 -102.5q-6 -81 17 -143.5t65.5 -93.5t98.5 -23.5t116 65.5q60 60 102 150.5t65 208.5q2 8 8.5 13t14.5 3zM547 997l9 -13t0 -14q-6 -11 -18 -11q-3 0 -9 2q-2 1 -21 9t-43 20.5
t-46.5 28.5t-31.5 33q-9 18 2.5 36t30 30.5t38 16t25.5 -7.5q6 -10 14.5 -28l17.5 -37.5l17.5 -37.5t14.5 -27zM576 845q-14 30 -32.5 31t-37 -14.5t-34.5 -40t-24 -44.5q-13 -34 -18 -73l62 36t48 33q8 6 16 14.5t14 17.5t8 19t-2 21z" />
    <glyph glyph-name="Eacute" unicode="&#xc9;" horiz-adv-x="820" 
d="M848 338q8 -2 13 -9t3 -15q-24 -124 -69 -220t-109 -160q-42 -42 -97.5 -68t-112.5 -29t-110.5 20.5t-92.5 79.5q-31 45 -44 101.5t-8 122.5q9 108 61 186q43 64 109 100l26 14q-13 5 -30 17q-50 35 -80 113q-41 -23 -79.5 -47.5t-71.5 -51.5q-113 -89 -107 -172
q1 -9 -4.5 -15t-13.5 -7t-14.5 4.5t-7.5 13.5q-7 104 122 208q36 29 78 55.5t86 50.5q-10 47 -1 103q12 67 49 117q29 41 67.5 62t81.5 21q37 0 72.5 -18.5t49.5 -56.5q3 -9 4.5 -21.5t-3 -27.5t-16 -32.5t-34.5 -35.5q-24 -19 -58 -39l-76 -43q1 -10 3 -19l4 -18
q14 -43 46 -78.5t66 -50.5q15 -7 12 -20t-11 -17q-32 -16 -64 -44t-58.5 -66t-45 -85.5t-22.5 -102.5q-6 -81 17 -143.5t65.5 -93.5t98.5 -23.5t116 65.5q60 60 102 150.5t65 208.5q2 8 8.5 13t14.5 3zM435 998q6 9 14.5 27l17.5 37.5l17.5 37.5t14.5 28q6 11 25.5 7.5
t38 -16t30 -30.5t2.5 -36q-9 -17 -31.5 -33t-46.5 -28.5t-43.5 -20.5t-20.5 -9q-6 -2 -9 -2q-12 0 -18 11q-4 8 0 14zM576 845q-14 30 -32.5 31t-37 -14.5t-34.5 -40t-24 -44.5q-13 -34 -18 -73l62 36t48 33q8 6 16 14.5t14 17.5t8 19t-2 21z" />
    <glyph glyph-name="Ecircumflex" unicode="&#xca;" horiz-adv-x="820" 
d="M848 338q-8 2 -14.5 -3t-8.5 -13q-23 -118 -65 -208.5t-102 -150.5q-60 -58 -116 -65.5t-98.5 23.5t-65.5 93.5t-17 143.5q4 55 22.5 102.5t45 85.5t58.5 66t64 44q8 4 11 17t-12 20q-34 15 -66 50.5t-46 78.5l-4 18t-3 19l76 43t58 39q23 18 34.5 35.5t16 32.5t3 27.5
t-4.5 21.5q-14 38 -49.5 56.5t-72.5 18.5q-43 0 -81.5 -21t-67.5 -62q-37 -50 -49 -117q-9 -56 1 -103q-44 -24 -86 -50.5t-78 -55.5q-129 -104 -122 -208q1 -8 7.5 -13.5t14.5 -4.5t13.5 7t4.5 15q-6 83 107 172q33 27 71.5 51.5t79.5 47.5q30 -78 80 -113q17 -12 30 -17
l-26 -14q-66 -36 -109 -100q-52 -78 -61 -186q-5 -66 8 -122.5t44 -101.5q39 -56 92.5 -79.5t110.5 -20.5t112.5 29t97.5 68q64 64 109 160t69 220q2 8 -3 15t-13 9zM579 959q-10 0 -17 10l-8 5.5l-18.5 12.5t-21 13t-15.5 6q-6 0 -18.5 -5.5t-25 -12l-22 -11.5t-8.5 -4
q-5 -7 -13 -8t-15 4t-8 13t4 15q1 1 11.5 14t25.5 29q23 24 40.5 34.5t33 9t30 -14.5t32.5 -35q6 -8 11 -16t10 -14q4 -7 9 -14q5 -8 3 -15.5t-10 -12.5q-5 -3 -10 -3zM576 845q4 -11 2 -21t-8 -19t-14 -17.5t-16 -14.5q-20 -16 -48 -33l-62 -36q5 39 18 73q8 20 24 44.5
t34.5 40t37 14.5t32.5 -31z" />
    <glyph glyph-name="Edieresis" unicode="&#xcb;" horiz-adv-x="820" 
d="M848 338q-8 2 -14.5 -3t-8.5 -13q-23 -118 -65 -208.5t-102 -150.5q-60 -58 -116 -65.5t-98.5 23.5t-65.5 93.5t-17 143.5q4 55 22.5 102.5t45 85.5t58.5 66t64 44q8 4 11 17t-12 20q-34 15 -66 50.5t-46 78.5l-4 18t-3 19l76 43t58 39q23 18 34.5 35.5t16 32.5t3 27.5
t-4.5 21.5q-14 38 -49.5 56.5t-72.5 18.5q-43 0 -81.5 -21t-67.5 -62q-37 -50 -49 -117q-9 -56 1 -103q-44 -24 -86 -50.5t-78 -55.5q-129 -104 -122 -208q1 -8 7.5 -13.5t14.5 -4.5t13.5 7t4.5 15q-6 83 107 172q33 27 71.5 51.5t79.5 47.5q30 -78 80 -113q17 -12 30 -17
l-26 -14q-66 -36 -109 -100q-52 -78 -61 -186q-5 -66 8 -122.5t44 -101.5q39 -56 92.5 -79.5t110.5 -20.5t112.5 29t97.5 68q64 64 109 160t69 220q2 8 -3 15t-13 9zM576 845q4 -11 2 -21t-8 -19t-14 -17.5t-16 -14.5q-20 -16 -48 -33l-62 -36q5 39 18 73q8 20 24 44.5
t34.5 40t37 14.5t32.5 -31zM435 1005q0 -20 -14.5 -34t-36.5 -14q-20 0 -34.5 14t-14.5 34q0 21 14.5 35t34.5 14q22 0 36.5 -14t14.5 -35zM615 1005q0 -20 -14.5 -34t-36.5 -14q-20 0 -34.5 14t-14.5 34q0 21 14.5 35t34.5 14q22 0 36.5 -14t14.5 -35z" />
    <glyph glyph-name="Igrave" unicode="&#xcc;" horiz-adv-x="961" 
d="M982 333q8 0 13.5 -6.5t5.5 -14.5q-6 -100 -36 -172q-26 -67 -78 -113q-79 -70 -216 -83q-61 -8 -121.5 -5t-124.5 7q-65 5 -123.5 6.5t-106.5 -7.5q-49 -10 -76 -32.5t-36 -61.5q-5 -15 -20 -15h-5q-8 2 -12 9.5t-2 15.5q24 101 144 123q51 10 112 8.5t128 -6.5
q24 -2 48.5 -3l49.5 -2q-22 35 -32.5 98t-12.5 161q-1 94 5.5 199t13.5 204q5 68 9 130t5 110q-47 -3 -92 -9.5t-88 -20.5t-82 -36t-72 -55q-69 -69 -103 -180t-34 -269q0 -8 -6 -14t-14 -6t-14 6t-6 14q0 86 10 159.5t30 134.5q36 112 109 183q92 92 249 120q68 12 137 14
t133 1q74 0 135 2.5t102 20.5q8 4 15.5 1t10.5 -11q4 -8 1 -15t-11 -11q-46 -21 -110.5 -24t-142.5 -3h-17q-1 -49 -5 -112t-9 -133q-3 -48 -6.5 -98t-6.5 -100.5t-4.5 -100t-1.5 -94.5q3 -200 47 -247q12 -12 29 -12q48 7 89.5 23.5t74.5 45.5q90 79 100 257q1 9 7 14.5
t14 4.5zM654 1020l9 -13t0 -14q-6 -11 -18 -11q-3 0 -9 2q-2 1 -21 9t-43 20.5t-46.5 28.5t-31.5 33q-9 18 2.5 36t30 30.5t38 16t25.5 -7.5q6 -10 14.5 -28l17.5 -37.5l17.5 -37.5t14.5 -27z" />
    <glyph glyph-name="Iacute" unicode="&#xcd;" horiz-adv-x="961" 
d="M982 333q8 0 13.5 -6.5t5.5 -14.5q-6 -100 -36 -172q-26 -67 -78 -113q-79 -70 -216 -83q-61 -8 -121.5 -5t-124.5 7q-65 5 -123.5 6.5t-106.5 -7.5q-49 -10 -76 -32.5t-36 -61.5q-5 -15 -20 -15h-5q-8 2 -12 9.5t-2 15.5q24 101 144 123q51 10 112 8.5t128 -6.5
q24 -2 48.5 -3l49.5 -2q-22 35 -32.5 98t-12.5 161q-1 94 5.5 199t13.5 204q5 68 9 130t5 110q-47 -3 -92 -9.5t-88 -20.5t-82 -36t-72 -55q-69 -69 -103 -180t-34 -269q0 -8 -6 -14t-14 -6t-14 6t-6 14q0 86 10 159.5t30 134.5q36 112 109 183q92 92 249 120q68 12 137 14
t133 1q74 0 135 2.5t102 20.5q8 4 15.5 1t10.5 -11q4 -8 1 -15t-11 -11q-46 -21 -110.5 -24t-142.5 -3h-17q-1 -49 -5 -112t-9 -133q-3 -48 -6.5 -98t-6.5 -100.5t-4.5 -100t-1.5 -94.5q3 -200 47 -247q12 -12 29 -12q48 7 89.5 23.5t74.5 45.5q90 79 100 257q1 9 7 14.5
t14 4.5zM510 1005q6 9 14.5 27l17.5 37.5l17.5 37.5t14.5 28q6 11 25.5 7.5t38 -16t30 -30.5t2.5 -36q-9 -17 -31.5 -33t-46.5 -28.5t-43.5 -20.5t-20.5 -9q-6 -2 -9 -2q-12 0 -18 11q-4 8 0 14z" />
    <glyph glyph-name="Icircumflex" unicode="&#xce;" horiz-adv-x="961" 
d="M982 333q-8 1 -14 -4.5t-7 -14.5q-10 -178 -100 -257q-33 -29 -74.5 -45.5t-89.5 -23.5q-17 0 -29 12q-44 47 -47 247q0 45 1.5 94.5t4.5 100t6.5 100.5t6.5 98q5 70 9 133t5 112h17q78 0 142.5 3t110.5 24q8 4 11 11t-1 15q-3 8 -10.5 11t-15.5 -1q-41 -18 -102 -20.5
t-135 -2.5q-64 1 -133 -1t-137 -14q-157 -28 -249 -120q-73 -71 -109 -183q-20 -61 -30 -134.5t-10 -159.5q0 -8 6 -14t14 -6t14 6t6 14q0 158 34 269t103 180q33 33 72 55t82 36t88 20.5t92 9.5q-1 -48 -5 -110t-9 -130q-7 -99 -13.5 -204t-5.5 -199q2 -98 12.5 -161
t32.5 -98l-49.5 2t-48.5 3q-67 5 -128 6.5t-112 -8.5q-120 -22 -144 -123q-2 -8 2 -15.5t12 -9.5h5q15 0 20 15q9 39 36 61.5t76 32.5q48 9 106.5 7.5t123.5 -6.5q64 -4 124.5 -7t121.5 5q137 13 216 83q52 46 78 113q30 72 36 172q0 8 -5.5 14.5t-13.5 6.5zM662 981
q-10 0 -17 10l-8 5.5l-18.5 12.5t-21 13t-15.5 6q-6 0 -18.5 -5.5t-25 -12l-22 -11.5t-8.5 -4q-5 -7 -13 -8t-15 4t-8 13t4 15q1 1 11.5 14t25.5 29q23 24 40.5 34.5t33 9t30 -14.5t32.5 -35q6 -8 11 -16t10 -14q4 -7 9 -14q5 -8 3 -15.5t-10 -12.5q-5 -3 -10 -3z" />
    <glyph glyph-name="Idieresis" unicode="&#xcf;" horiz-adv-x="961" 
d="M982 333q-8 1 -14 -4.5t-7 -14.5q-10 -178 -100 -257q-33 -29 -74.5 -45.5t-89.5 -23.5q-17 0 -29 12q-44 47 -47 247q0 45 1.5 94.5t4.5 100t6.5 100.5t6.5 98q5 70 9 133t5 112h17q78 0 142.5 3t110.5 24q8 4 11 11t-1 15q-3 8 -10.5 11t-15.5 -1q-41 -18 -102 -20.5
t-135 -2.5q-64 1 -133 -1t-137 -14q-157 -28 -249 -120q-73 -71 -109 -183q-20 -61 -30 -134.5t-10 -159.5q0 -8 6 -14t14 -6t14 6t6 14q0 158 34 269t103 180q33 33 72 55t82 36t88 20.5t92 9.5q-1 -48 -5 -110t-9 -130q-7 -99 -13.5 -204t-5.5 -199q2 -98 12.5 -161
t32.5 -98l-49.5 2t-48.5 3q-67 5 -128 6.5t-112 -8.5q-120 -22 -144 -123q-2 -8 2 -15.5t12 -9.5h5q15 0 20 15q9 39 36 61.5t76 32.5q48 9 106.5 7.5t123.5 -6.5q64 -4 124.5 -7t121.5 5q137 13 216 83q52 46 78 113q30 72 36 172q0 8 -5.5 14.5t-13.5 6.5zM719 1018
q0 -20 -14.5 -34t-36.5 -14q-20 0 -34.5 14t-14.5 34q0 21 14.5 35t34.5 14q22 0 36.5 -14t14.5 -35zM539 1018q0 -20 -14.5 -34t-36.5 -14q-20 0 -34.5 14t-14.5 34q0 21 14.5 35t34.5 14q22 0 36.5 -14t14.5 -35z" />
    <glyph glyph-name="Ntilde" unicode="&#xd1;" horiz-adv-x="1387" 
d="M1412 322q8 -2 13.5 -8.5t3.5 -14.5q0 -1 -5.5 -27.5t-15.5 -69.5t-25.5 -97.5t-35.5 -111.5q-115 -315 -266 -315q-54 0 -84 38q-25 31 -32 87.5t4 144.5q9 75 27.5 161.5l38.5 174.5l39.5 181t28.5 168q10 85 4 138.5t-27 80.5q-22 28 -65 28q-110 0 -203 -129
q-77 -105 -139 -296q-23 -69 -39.5 -135.5t-28.5 -123.5t-18.5 -99.5l-9.5 -61.5q0 -1 -0.5 -2t-0.5 -2q-3 -19 -23.5 -31.5t-45 -15.5t-46 5t-25.5 31q0 1 -2 28t-5 72.5t-6.5 105t-5.5 125.5q-2 71 -2.5 132t1.5 113l-73 -23q-59 -18 -112 -37t-95 -46
q-45 -29 -65.5 -65.5t-20.5 -84.5q0 -8 -6 -14t-14 -6t-14 6t-6 14q0 116 104 184q45 29 102 49t115 38l44 13.5t43 14.5q8 125 27 185q17 49 50 79q33 28 70 34q31 5 58 -4.5t44 -30.5q5 -7 10.5 -18t7.5 -26.5t-1 -36t-14 -45.5q-17 -39 -45.5 -67.5t-65.5 -50.5
q-3 -53 -4 -113t0.5 -121t3.5 -120t5 -110q12 60 29.5 130t41.5 143q63 196 144 308q25 34 57.5 63t69 49.5t75.5 31t77 7.5t74 -20.5t66 -53.5q40 -49 49 -129q4 -47 -1 -103.5t-16 -119t-26 -129l-31 -132.5q-23 -94 -41.5 -178.5t-25.5 -155.5q-5 -55 -2 -94.5t15.5 -56
t34.5 -6t55 55.5q53 72 100 202q20 55 35 109t25 96t15 68l5 26q2 8 8.5 13.5t14.5 3.5zM1165 1089q8 0 14 -6t6 -14q0 -44 -17.5 -65.5t-42 -25t-52.5 8t-49 32.5q-13 13 -28.5 16t-29.5 0t-23.5 -10.5t-9.5 -15.5t-7 -13.5t-15 -3.5q-8 1 -13 7.5t-5 14.5q0 35 17.5 58
t43 31t54 1.5t50.5 -30.5q10 -12 25 -18.5t29 -7.5t23.5 4t9.5 17q0 8 6 14t14 6zM634 792q15 33 13 54t-12 25.5t-25 -9.5t-27 -50q-7 -20 -11.5 -45.5t-7.5 -57.5q23 17 41 37.5t29 45.5zM577 33l-1 -2q0 1 0.5 1t0.5 1z" />
    <glyph glyph-name="Ograve" unicode="&#xd2;" horiz-adv-x="1152" 
d="M1201 313q2 -8 -2 -15t-12 -9q-33 -10 -56.5 -15t-44 -7t-41 -1.5t-48.5 2.5q-19 -49 -47 -92q-53 -84 -122 -131q-78 -51 -168 -51q-81 0 -147 39.5t-112 116.5q-39 66 -60 152q-9 41 -14 82.5t-5 84.5q0 34 3 66l-28 -11q-50 -19 -96 -38.5t-81 -43.5t-56 -53.5
t-19 -69.5q1 -8 -5 -14.5t-14 -6.5q-8 -1 -14 5t-7 14q-3 91 88 155q39 27 88.5 48l100.5 41q12 5 24.5 9.5t24.5 9.5q12 77 41 135q27 52 63 82q43 32 91 32q26 0 44.5 -11.5t24.5 -31.5q5 -12 3.5 -32t-17.5 -47q-26 -45 -85 -87q-8 -7 -19 -13q-12 -53 -14.5 -114
t6.5 -124q11 -78 37 -139t62.5 -102.5t80 -60.5t89.5 -12t91.5 41.5t86.5 100.5q11 17 21 36t19 39l-21 4l-21 4q-63 15 -119 49q-25 16 -47 34.5t-42 41.5q-19 23 -35 48t-28 53q-24 52 -33 110q-8 55 -3 106.5t25 93.5q21 46 54 71q37 28 85 28q69 0 123 -29t92 -86
q33 -50 50 -118q16 -63 16 -139q0 -96 -26 -192l-8 -27q39 -12 77 -11t81 14q8 2 15.5 -2t9.5 -12zM952 778q-41 62 -79.5 75t-68 -10t-44.5 -75.5t-8 -120.5q4 -44 19.5 -89.5t43.5 -87t68.5 -76.5t96.5 -57q32 101 32 206q0 71 -15.5 131t-44.5 104zM760 967l9 -13t0 -14
q-6 -11 -18 -11q-3 0 -9 2q-2 1 -21 9t-43 20.5t-46.5 28.5t-31.5 33q-9 18 2.5 36t30 30.5t38 16t25.5 -7.5q6 -10 14.5 -28l17.5 -37.5l17.5 -37.5t14.5 -27zM496 671q16 14 31 29t24.5 28t12 23t-4.5 13q-11 5 -20 -3t-16.5 -23t-14 -33.5t-12.5 -33.5z" />
    <glyph glyph-name="Oacute" unicode="&#xd3;" horiz-adv-x="1152" 
d="M1201 313q2 -8 -2 -15t-12 -9q-33 -10 -56.5 -15t-44 -7t-41 -1.5t-48.5 2.5q-19 -49 -47 -92q-53 -84 -122 -131q-78 -51 -168 -51q-81 0 -147 39.5t-112 116.5q-39 66 -60 152q-9 41 -14 82.5t-5 84.5q0 34 3 66l-28 -11q-50 -19 -96 -38.5t-81 -43.5t-56 -53.5
t-19 -69.5q1 -8 -5 -14.5t-14 -6.5q-8 -1 -14 5t-7 14q-3 91 88 155q39 27 88.5 48l100.5 41q12 5 24.5 9.5t24.5 9.5q12 77 41 135q27 52 63 82q43 32 91 32q26 0 44.5 -11.5t24.5 -31.5q5 -12 3.5 -32t-17.5 -47q-26 -45 -85 -87q-8 -7 -19 -13q-12 -53 -14.5 -114
t6.5 -124q11 -78 37 -139t62.5 -102.5t80 -60.5t89.5 -12t91.5 41.5t86.5 100.5q11 17 21 36t19 39l-21 4l-21 4q-63 15 -119 49q-25 16 -47 34.5t-42 41.5q-19 23 -35 48t-28 53q-24 52 -33 110q-8 55 -3 106.5t25 93.5q21 46 54 71q37 28 85 28q69 0 123 -29t92 -86
q33 -50 50 -118q16 -63 16 -139q0 -96 -26 -192l-8 -27q39 -12 77 -11t81 14q8 2 15.5 -2t9.5 -12zM952 778q-41 62 -79.5 75t-68 -10t-44.5 -75.5t-8 -120.5q4 -44 19.5 -89.5t43.5 -87t68.5 -76.5t96.5 -57q32 101 32 206q0 71 -15.5 131t-44.5 104zM601 937q6 9 14.5 27
l17.5 37.5l17.5 37.5t14.5 28q6 11 25.5 7.5t38 -16t30 -30.5t2.5 -36q-9 -17 -31.5 -33t-46.5 -28.5t-43.5 -20.5t-20.5 -9q-6 -2 -9 -2q-12 0 -18 11q-4 8 0 14zM496 671q16 14 31 29t24.5 28t12 23t-4.5 13q-11 5 -20 -3t-16.5 -23t-14 -33.5t-12.5 -33.5z" />
    <glyph glyph-name="Ocircumflex" unicode="&#xd4;" horiz-adv-x="1152" 
d="M1201 313q-2 8 -9.5 12t-15.5 2q-43 -13 -81 -14t-77 11l8 27q26 96 26 192q0 76 -16 139q-17 68 -50 118q-38 57 -92 86t-123 29q-48 0 -85 -28q-33 -25 -54 -71q-20 -42 -25 -93.5t3 -106.5q9 -58 33 -110q12 -28 28 -53t35 -48q20 -23 42 -41.5t47 -34.5
q56 -34 119 -49l21 -4l21 -4q-9 -20 -19 -39t-21 -36q-41 -66 -86.5 -100.5t-91.5 -41.5t-89.5 12t-80 60.5t-62.5 102.5t-37 139q-9 63 -6.5 124t14.5 114q11 6 19 13q59 42 85 87q16 27 17.5 47t-3.5 32q-6 20 -24.5 31.5t-44.5 11.5q-48 0 -91 -32q-36 -30 -63 -82
q-29 -58 -41 -135q-12 -5 -24.5 -9.5t-24.5 -9.5l-100.5 -41t-88.5 -48q-91 -64 -88 -155q1 -8 7 -14t14 -5q8 0 14 6.5t5 14.5q-2 40 19 69.5t56 53.5t81 43.5t96 38.5l28 11q-3 -32 -3 -66q0 -43 5 -84.5t14 -82.5q21 -86 60 -152q46 -77 112 -116.5t147 -39.5
q90 0 168 51q69 47 122 131q28 43 47 92q28 -2 48.5 -2.5t41 1.5t44 7t56.5 15q8 2 12 9t2 15zM952 778q29 -44 44.5 -104t15.5 -131q0 -105 -32 -206q-56 22 -96.5 57t-68.5 76.5t-43.5 87t-19.5 89.5q-7 68 8 120.5t44.5 75.5t68 10t79.5 -75zM776 941q-10 0 -17 10
l-8 5.5l-18.5 12.5t-21 13t-15.5 6q-6 0 -18.5 -5.5t-25 -12l-22 -11.5t-8.5 -4q-5 -7 -13 -8t-15 4t-8 13t4 15q1 1 11.5 14t25.5 29q23 24 40.5 34.5t33 9t30 -14.5t32.5 -35q6 -8 11 -16t10 -14q4 -7 9 -14q5 -8 3 -15.5t-10 -12.5q-5 -3 -10 -3zM496 671q6 15 12.5 33.5
t14 33.5t16.5 23t20 3q7 -3 4.5 -13t-12 -23t-24.5 -28t-31 -29z" />
    <glyph glyph-name="Otilde" unicode="&#xd5;" horiz-adv-x="1152" 
d="M1201 313q2 -8 -2 -15t-12 -9q-33 -10 -56.5 -15t-44 -7t-41 -1.5t-48.5 2.5q-19 -49 -47 -92q-53 -84 -122 -131q-78 -51 -168 -51q-81 0 -147 39.5t-112 116.5q-39 66 -60 152q-9 41 -14 82.5t-5 84.5q0 34 3 66l-28 -11q-50 -19 -96 -38.5t-81 -43.5t-56 -53.5
t-19 -69.5q1 -8 -5 -14.5t-14 -6.5q-8 -1 -14 5t-7 14q-3 91 88 155q39 27 88.5 48l100.5 41q12 5 24.5 9.5t24.5 9.5q12 77 41 135q27 52 63 82q43 32 91 32q26 0 44.5 -11.5t24.5 -31.5q5 -12 3.5 -32t-17.5 -47q-26 -45 -85 -87q-8 -7 -19 -13q-12 -53 -14.5 -114
t6.5 -124q11 -78 37 -139t62.5 -102.5t80 -60.5t89.5 -12t91.5 41.5t86.5 100.5q11 17 21 36t19 39l-21 4l-21 4q-63 15 -119 49q-25 16 -47 34.5t-42 41.5q-19 23 -35 48t-28 53q-24 52 -33 110q-8 55 -3 106.5t25 93.5q21 46 54 71q37 28 85 28q69 0 123 -29t92 -86
q33 -50 50 -118q16 -63 16 -139q0 -96 -26 -192l-8 -27q39 -12 77 -11t81 14q8 2 15.5 -2t9.5 -12zM952 778q-41 62 -79.5 75t-68 -10t-44.5 -75.5t-8 -120.5q4 -44 19.5 -89.5t43.5 -87t68.5 -76.5t96.5 -57q32 101 32 206q0 71 -15.5 131t-44.5 104zM793 1057q8 0 14 -6
t6 -14q0 -44 -17.5 -65.5t-42 -25t-52.5 8t-49 32.5q-13 13 -28.5 16t-29.5 0t-23.5 -10.5t-9.5 -15.5t-7 -13.5t-15 -3.5q-8 1 -13 7.5t-5 14.5q0 35 17.5 58t43 31t54 1.5t50.5 -30.5q10 -12 25 -18.5t29 -7.5t23.5 4t9.5 17q0 8 6 14t14 6zM496 671q16 14 31 29t24.5 28
t12 23t-4.5 13q-11 5 -20 -3t-16.5 -23t-14 -33.5t-12.5 -33.5z" />
    <glyph glyph-name="Odieresis" unicode="&#xd6;" horiz-adv-x="1152" 
d="M1201 313q-2 8 -9.5 12t-15.5 2q-43 -13 -81 -14t-77 11l8 27q26 96 26 192q0 76 -16 139q-17 68 -50 118q-38 57 -92 86t-123 29q-48 0 -85 -28q-33 -25 -54 -71q-20 -42 -25 -93.5t3 -106.5q9 -58 33 -110q12 -28 28 -53t35 -48q20 -23 42 -41.5t47 -34.5
q56 -34 119 -49l21 -4l21 -4q-9 -20 -19 -39t-21 -36q-41 -66 -86.5 -100.5t-91.5 -41.5t-89.5 12t-80 60.5t-62.5 102.5t-37 139q-9 63 -6.5 124t14.5 114q11 6 19 13q59 42 85 87q16 27 17.5 47t-3.5 32q-6 20 -24.5 31.5t-44.5 11.5q-48 0 -91 -32q-36 -30 -63 -82
q-29 -58 -41 -135q-12 -5 -24.5 -9.5t-24.5 -9.5l-100.5 -41t-88.5 -48q-91 -64 -88 -155q1 -8 7 -14t14 -5q8 0 14 6.5t5 14.5q-2 40 19 69.5t56 53.5t81 43.5t96 38.5l28 11q-3 -32 -3 -66q0 -43 5 -84.5t14 -82.5q21 -86 60 -152q46 -77 112 -116.5t147 -39.5
q90 0 168 51q69 47 122 131q28 43 47 92q28 -2 48.5 -2.5t41 1.5t44 7t56.5 15q8 2 12 9t2 15zM952 778q29 -44 44.5 -104t15.5 -131q0 -105 -32 -206q-56 22 -96.5 57t-68.5 76.5t-43.5 87t-19.5 89.5q-7 68 8 120.5t44.5 75.5t68 10t79.5 -75zM639 994q0 -20 -14.5 -34
t-36.5 -14q-20 0 -34.5 14t-14.5 34q0 21 14.5 35t34.5 14q22 0 36.5 -14t14.5 -35zM819 994q0 -20 -14.5 -34t-36.5 -14q-20 0 -34.5 14t-14.5 34q0 21 14.5 35t34.5 14q22 0 36.5 -14t14.5 -35zM496 671q6 15 12.5 33.5t14 33.5t16.5 23t20 3q7 -3 4.5 -13t-12 -23
t-24.5 -28t-31 -29z" />
    <glyph glyph-name="Ugrave" unicode="&#xd9;" horiz-adv-x="1386" 
d="M1414 333q8 -2 13 -8.5t3 -14.5q0 -2 -3.5 -21.5t-11 -50t-19 -69.5t-27.5 -80q-20 -48 -41 -86.5t-45 -67.5q-62 -75 -137 -75q-41 0 -70 34q-52 59 -68 227q-12 131 -3 324q1 17 1.5 32.5t2.5 31.5l-10 -32l-10 -32q-61 -182 -142 -289q-104 -136 -235 -136
q-108 0 -175 82q-61 79 -80 227q-7 59 -7.5 127t5.5 146l5 48l-16 -39q-30 -68 -62 -122t-66 -93q-89 -103 -191 -103q-8 0 -14 6t-6 14t6 14t14 6q83 0 161 89q32 37 62 88t59 117q22 51 38.5 99.5t28 89t19 70t12.5 44.5v1q1 11 23.5 19.5t48.5 9.5t47 -7.5t20 -31.5
q0 -1 -7 -34t-16 -88t-18 -125.5t-12 -145.5q-8 -176 23 -290q21 -76 53.5 -116.5t72 -47t84.5 20t91 85.5q38 51 72 120t64 157q22 67 38.5 129.5t27.5 114.5t16.5 91t7.5 60q0 15 11 25t27.5 15.5t35.5 7t34.5 -2t25.5 -11t8 -19.5q0 -1 -5 -39.5t-11.5 -101t-13 -142.5
t-9.5 -164q-5 -114 -1.5 -205t13.5 -154.5t26.5 -96t38.5 -30t50 43.5t60 126q15 39 26.5 77t19 68t11 49l3.5 19q2 8 8.5 13t14.5 3zM865 977l9 -13t0 -14q-6 -11 -18 -11q-3 0 -9 2q-2 1 -21 9t-43 20.5t-46.5 28.5t-31.5 33q-9 18 2.5 36t30 30.5t38 16t25.5 -7.5
q6 -10 14.5 -28l17.5 -37.5l17.5 -37.5t14.5 -27z" />
    <glyph glyph-name="Uacute" unicode="&#xda;" horiz-adv-x="1386" 
d="M1414 333q8 -2 13 -8.5t3 -14.5q0 -2 -3.5 -21.5t-11 -50t-19 -69.5t-27.5 -80q-20 -48 -41 -86.5t-45 -67.5q-62 -75 -137 -75q-41 0 -70 34q-52 59 -68 227q-12 131 -3 324q1 17 1.5 32.5t2.5 31.5l-10 -32l-10 -32q-61 -182 -142 -289q-104 -136 -235 -136
q-108 0 -175 82q-61 79 -80 227q-7 59 -7.5 127t5.5 146l5 48l-16 -39q-30 -68 -62 -122t-66 -93q-89 -103 -191 -103q-8 0 -14 6t-6 14t6 14t14 6q83 0 161 89q32 37 62 88t59 117q22 51 38.5 99.5t28 89t19 70t12.5 44.5v1q1 11 23.5 19.5t48.5 9.5t47 -7.5t20 -31.5
q0 -1 -7 -34t-16 -88t-18 -125.5t-12 -145.5q-8 -176 23 -290q21 -76 53.5 -116.5t72 -47t84.5 20t91 85.5q38 51 72 120t64 157q22 67 38.5 129.5t27.5 114.5t16.5 91t7.5 60q0 15 11 25t27.5 15.5t35.5 7t34.5 -2t25.5 -11t8 -19.5q0 -1 -5 -39.5t-11.5 -101t-13 -142.5
t-9.5 -164q-5 -114 -1.5 -205t13.5 -154.5t26.5 -96t38.5 -30t50 43.5t60 126q15 39 26.5 77t19 68t11 49l3.5 19q2 8 8.5 13t14.5 3zM720 961q6 9 14.5 27l17.5 37.5l17.5 37.5t14.5 28q6 11 25.5 7.5t38 -16t30 -30.5t2.5 -36q-9 -17 -31.5 -33t-46.5 -28.5t-43.5 -20.5
t-20.5 -9q-6 -2 -9 -2q-12 0 -18 11q-4 8 0 14z" />
    <glyph glyph-name="Ucircumflex" unicode="&#xdb;" horiz-adv-x="1386" 
d="M1414 333q-8 2 -14.5 -3t-8.5 -13l-3.5 -19t-11 -49t-19 -68t-26.5 -77q-32 -85 -60 -126t-50 -43.5t-38.5 30t-26.5 96t-13.5 154.5t1.5 205q3 84 9.5 164t13 142.5t11.5 101t5 39.5q2 12 -8 19.5t-25.5 11t-34.5 2t-35.5 -7t-27.5 -15.5t-11 -25q-2 -21 -7.5 -60
t-16.5 -91t-27.5 -114.5t-38.5 -129.5q-30 -88 -64 -157t-72 -120q-46 -59 -91 -85.5t-84.5 -20t-72 47t-53.5 116.5q-31 114 -23 290q3 75 12 145.5t18 125.5t16 88t7 34q1 23 -20 31.5t-47 7.5t-48.5 -9.5t-23.5 -19.5v-1q-5 -15 -12.5 -44.5t-19 -70t-28 -89t-38.5 -99.5
q-29 -66 -59 -117t-62 -88q-78 -89 -161 -89q-8 0 -14 -6t-6 -14t6 -14t14 -6q102 0 191 103q34 39 66 93t62 122l16 39l-5 -48q-6 -78 -5.5 -146t7.5 -127q19 -148 80 -227q67 -82 175 -82q131 0 235 136q81 107 142 289l10 32l10 32q-2 -16 -2.5 -31.5t-1.5 -32.5
q-9 -193 3 -324q16 -168 68 -227q29 -34 70 -34q75 0 137 75q24 29 45 67.5t41 86.5q16 41 27.5 80t19 69.5t11 50t3.5 21.5q2 8 -3 14.5t-13 8.5zM871 920q-10 0 -17 10l-8 5.5l-18.5 12.5t-21 13t-15.5 6q-6 0 -18.5 -5.5t-25 -12l-22 -11.5t-8.5 -4q-5 -7 -13 -8t-15 4
t-8 13t4 15q1 1 11.5 14t25.5 29q23 24 40.5 34.5t33 9t30 -14.5t32.5 -35q6 -8 11 -16t10 -14q4 -7 9 -14q5 -8 3 -15.5t-10 -12.5q-5 -3 -10 -3z" />
    <glyph glyph-name="Udieresis" unicode="&#xdc;" horiz-adv-x="1386" 
d="M1414 333q-8 2 -14.5 -3t-8.5 -13l-3.5 -19t-11 -49t-19 -68t-26.5 -77q-32 -85 -60 -126t-50 -43.5t-38.5 30t-26.5 96t-13.5 154.5t1.5 205q3 84 9.5 164t13 142.5t11.5 101t5 39.5q2 12 -8 19.5t-25.5 11t-34.5 2t-35.5 -7t-27.5 -15.5t-11 -25q-2 -21 -7.5 -60
t-16.5 -91t-27.5 -114.5t-38.5 -129.5q-30 -88 -64 -157t-72 -120q-46 -59 -91 -85.5t-84.5 -20t-72 47t-53.5 116.5q-31 114 -23 290q3 75 12 145.5t18 125.5t16 88t7 34q1 23 -20 31.5t-47 7.5t-48.5 -9.5t-23.5 -19.5v-1q-5 -15 -12.5 -44.5t-19 -70t-28 -89t-38.5 -99.5
q-29 -66 -59 -117t-62 -88q-78 -89 -161 -89q-8 0 -14 -6t-6 -14t6 -14t14 -6q102 0 191 103q34 39 66 93t62 122l16 39l-5 -48q-6 -78 -5.5 -146t7.5 -127q19 -148 80 -227q67 -82 175 -82q131 0 235 136q81 107 142 289l10 32l10 32q-2 -16 -2.5 -31.5t-1.5 -32.5
q-9 -193 3 -324q16 -168 68 -227q29 -34 70 -34q75 0 137 75q24 29 45 67.5t41 86.5q16 41 27.5 80t19 69.5t11 50t3.5 21.5q2 8 -3 14.5t-13 8.5zM940 954q0 -20 -14.5 -34t-36.5 -14q-20 0 -34.5 14t-14.5 34q0 21 14.5 35t34.5 14q22 0 36.5 -14t14.5 -35zM760 954
q0 -20 -14.5 -34t-36.5 -14q-20 0 -34.5 14t-14.5 34q0 21 14.5 35t34.5 14q22 0 36.5 -14t14.5 -35z" />
    <glyph glyph-name="Yacute" unicode="&#xdd;" horiz-adv-x="1310" 
d="M1351 328q8 -5 10 -12.5t-2 -15.5q-28 -47 -67.5 -69.5t-86.5 -35.5q-7 -91 -18 -168.5t-26 -144.5q-26 -108 -63 -181q-42 -83 -98 -126q-85 -64 -166 -64h-3q-75 0 -129 57q-32 34 -49.5 82.5t-15.5 104.5q1 60 22.5 116.5t61.5 104.5q52 62 106.5 106.5t116.5 74.5
q32 16 62 26.5t59 18.5q4 58 6 123q4 106 2 203.5t-6 175.5q-12 -57 -28.5 -123.5t-39.5 -135.5q-61 -182 -142 -289q-104 -136 -235 -136q-108 0 -175 82q-61 79 -80 227q-7 59 -7.5 127t5.5 146l5 48l-16 -39q-30 -68 -62 -122t-66 -93q-89 -103 -191 -103q-8 0 -14 6
t-6 14t6 14t14 6q83 0 161 89q32 37 62 88t59 117q22 51 40 103t31 97t21.5 78.5t11.5 48.5q2 9 23.5 12t46.5 -2.5t44 -20t16 -39.5q0 -1 -6.5 -31.5t-15 -82t-17 -119.5t-11.5 -143q-8 -176 23 -290q21 -76 53.5 -116.5t72 -47t84.5 20t91 85.5q38 51 72 120t64 157
q28 85 46 161t28.5 136.5t14.5 102t5 56.5q0 5 9.5 8.5t24 5.5t32 2t32.5 -4t26 -11.5t14 -19.5q0 -1 4.5 -49t8.5 -127t6.5 -181.5t-1.5 -213.5q-1 -22 -1.5 -43.5t-2.5 -42.5q38 11 67.5 29.5t49.5 53.5q4 8 12 10t15 -2zM677 -246q-1 -48 13 -90t40 -66t63 -24.5t83 33.5
q74 55 120.5 194.5t65.5 358.5q-35 -11 -72.5 -26.5t-76.5 -39.5t-79.5 -59.5t-81.5 -84.5q-35 -42 -54.5 -92.5t-20.5 -103.5zM705 962q6 9 14.5 27l17.5 37.5l17.5 37.5t14.5 28q6 11 25.5 7.5t38 -16t30 -30.5t2.5 -36q-9 -17 -31.5 -33t-46.5 -28.5t-43.5 -20.5
t-20.5 -9q-6 -2 -9 -2q-12 0 -18 11q-4 8 0 14z" />
    <glyph glyph-name="Ydieresis" unicode="&#x178;" horiz-adv-x="1310" 
d="M1351 328q-7 4 -15 2t-12 -10q-20 -35 -49.5 -53.5t-67.5 -29.5q2 21 2.5 42.5t1.5 43.5q4 111 1.5 213.5t-6.5 181.5t-8.5 127t-4.5 49q-3 12 -14 19.5t-26 11.5t-32.5 4t-32 -2t-24 -5.5t-9.5 -8.5q-1 -15 -5 -56.5t-14.5 -102t-28.5 -136.5t-46 -161q-30 -88 -64 -157
t-72 -120q-46 -59 -91 -85.5t-84.5 -20t-72 47t-53.5 116.5q-31 114 -23 290q3 75 11.5 143t17 119.5t15 82t6.5 31.5q3 25 -16 39.5t-44 20t-46.5 2.5t-23.5 -12q-3 -15 -11.5 -48.5t-21.5 -78.5t-31 -97t-40 -103q-29 -66 -59 -117t-62 -88q-78 -89 -161 -89q-8 0 -14 -6
t-6 -14t6 -14t14 -6q102 0 191 103q34 39 66 93t62 122l16 39l-5 -48q-6 -78 -5.5 -146t7.5 -127q19 -148 80 -227q67 -82 175 -82q131 0 235 136q81 107 142 289q23 69 39.5 135.5t28.5 123.5q4 -78 6 -175.5t-2 -203.5q-2 -65 -6 -123q-29 -8 -59 -18.5t-62 -26.5
q-62 -30 -116.5 -74.5t-106.5 -106.5q-40 -48 -61.5 -104.5t-22.5 -116.5q-2 -56 15.5 -104.5t49.5 -82.5q54 -57 129 -57h3q81 0 166 64q56 43 98 126q37 73 63 181q15 67 26 144.5t18 168.5q47 13 86.5 35.5t67.5 69.5q4 8 2 15.5t-10 12.5zM677 -246q1 53 20.5 103.5
t54.5 92.5q41 49 81.5 84.5t79.5 59.5t76.5 39.5t72.5 26.5q-19 -219 -65.5 -358.5t-120.5 -194.5q-46 -34 -83 -33.5t-63 24.5t-40 66t-13 90zM752 1011q0 -20 -14.5 -34t-36.5 -14q-20 0 -34.5 14t-14.5 34q0 21 14.5 35t34.5 14q22 0 36.5 -14t14.5 -35zM932 1011
q0 -20 -14.5 -34t-36.5 -14q-20 0 -34.5 14t-14.5 34q0 21 14.5 35t34.5 14q22 0 36.5 -14t14.5 -35z" />
    <glyph glyph-name="Oslash" unicode="&#xd8;" horiz-adv-x="1152" 
d="M1201 313q2 -8 -2 -15t-12 -9q-33 -10 -56.5 -15t-44 -7t-41 -1.5t-48.5 2.5q-19 -49 -47 -92q-53 -84 -122 -131q-78 -51 -168 -51q-131 0 -218 99l-45.5 -58t-17.5 -22q-6 -2 -9 -2q-12 0 -18 11q-4 8 0 14l9 13l52 82l-12 19q-39 66 -60 152q-9 41 -14 82.5t-5 84.5
q0 34 3 66l-28 -11q-50 -19 -96 -38.5t-81 -43.5t-56 -53.5t-19 -69.5q1 -8 -5 -14.5t-14 -6.5q-8 -1 -14 5t-7 14q-3 91 88 155q39 27 88.5 48l100.5 41q12 5 24.5 9.5t24.5 9.5q12 77 41 135q27 52 63 82q43 32 91 32q26 0 44.5 -11.5t24.5 -31.5q5 -12 3.5 -32t-17.5 -47
q-26 -45 -85 -87q-8 -7 -19 -13q-12 -53 -14.5 -114t6.5 -124q4 -30 10.5 -57.5t14.5 -52.5l152 240l-3 7q-24 52 -33 110q-8 55 -3 106.5t25 93.5q21 46 54 71q37 28 85 28q65 0 119 -28l19 31q6 11 25.5 7.5t38 -16t30 -30.5t2.5 -36l-24 -36l5 -7q33 -50 50 -118
q16 -63 16 -139q0 -96 -26 -192l-8 -27q39 -12 77 -11t81 14q8 2 15.5 -2t9.5 -12zM521 197q34 -66 82 -103t101.5 -40t108.5 31t103 112q11 17 21 36t19 39l-21 4l-21 4q-63 15 -119 49q-25 16 -47 34.5t-42 41.5l-14 16zM955 772l-76 -104l-99 -131q26 -62 74 -115.5
t126 -84.5q32 101 32 206q0 69 -14.5 127.5t-42.5 101.5zM869 853q-27 9 -49.5 -1.5t-39 -36.5t-25 -64.5t-5.5 -85.5zM496 671q16 14 31 29t24.5 28t12 23t-4.5 13q-11 5 -20 -3t-16.5 -23t-14 -33.5t-12.5 -33.5z" />
    <glyph glyph-name="Scaron" unicode="&#x160;" horiz-adv-x="817" 
d="M845 331q-8 2 -15 -2t-9 -12q-12 -43 -43.5 -71t-76.5 -48q-29 38 -64 72l-70 67q-54 50 -104.5 102.5t-84.5 117.5q65 61 83 159q7 41 7.5 76.5t-5.5 64.5q-8 34 -29 56t-49 31t-59 5t-58 -21q-37 -25 -58 -70q-20 -48 -20 -105q0 -118 55 -228l-50 -18l-69 -27.5
t-59 -34.5q-61 -49 -61 -133q0 -8 6 -14t14 -6t14 6t6 14q0 37 12.5 61.5t34.5 41.5t52 29.5t64 24.5l55 21q4 -6 7.5 -12.5t8.5 -12.5q39 -60 87 -112l97 -101l51 -52.5t47 -51.5q-58 -18 -114.5 -39t-102.5 -55q-108 -80 -108 -224q0 -41 19 -72t51 -48q38 -23 83 -29
t90.5 -0.5t88.5 21t78 35.5q66 40 102 92q41 63 40 134q0 107 -64 202l26 13q86 49 108 128q2 8 -2 15.5t-12 9.5zM277 -170q0 64 22 110.5t70 81.5q43 32 98 52t112 38l10 3q28 -37 44 -74.5t16 -77.5q0 -37 -15 -72t-40.5 -65t-59 -53t-69 -35t-71.5 -11.5t-67 17.5
q-50 30 -50 86zM421 723q-8 -43 -23.5 -73.5t-37.5 -53.5q-14 35 -22 73.5t-8 83.5q0 37 4 62t10 41t12.5 24.5t10.5 11.5q11 9 20.5 7t17 -10t12 -19.5t6.5 -20.5q5 -25 5 -57.5t-7 -68.5zM256 1122q10 0 17 -10l8 -5.5l18.5 -12.5t21 -13t15.5 -6q6 0 18.5 5.5t25 12
l22 11.5t8.5 4q5 7 13 8t15 -4t8 -13t-4 -15q-1 -1 -11.5 -14t-25.5 -29q-23 -24 -40.5 -34.5t-33 -9t-30 14t-32.5 35.5l-11.5 16l-9.5 14q-5 7 -9 14q-5 8 -3 15.5t10 12.5q4 3 10 3z" />
    <glyph glyph-name="Zcaron" unicode="&#x17d;" horiz-adv-x="1258" 
d="M1285 315q-8 2 -15.5 -1.5t-9.5 -11.5q-18 -85 -61.5 -144.5t-103.5 -95t-132.5 -47.5t-148.5 -1.5t-151.5 42t-141.5 83.5q48 65 89 143.5l79 158.5l54 111.5t55.5 102t59.5 85.5t66 63q6 5 7.5 12t-2.5 14t-11 9.5t-14 -0.5q-40 -17 -111 -7q-34 5 -71 15l-78 22
l-78.5 22t-82 18.5t-83.5 11t-84 -0.5q-192 -19 -306 -215q-5 -7 -3 -15t10 -12q7 -5 15 -3t12 10q39 67 84 108t93.5 62t100 25t104 -2t105 -20l102.5 -28l63 -17.5t60 -14.5q-51 -46 -100 -130q-29 -49 -56.5 -104l-53.5 -111q-30 -66 -62 -129.5t-67 -119.5
q-39 20 -77 32.5t-76 12.5q-55 0 -98 -22t-65 -62q-17 -29 -16.5 -61.5t17.5 -58.5q22 -34 63 -51q45 -17 104 -14q74 5 140 48q44 29 88 81q142 -120 269 -167t231.5 -23t182 117.5t119.5 255.5q2 8 -2 15t-12 9zM136 65q-11 17 -11 38.5t11 41.5q17 29 50.5 46t77.5 17
q31 0 63.5 -10.5t66.5 -27.5q-12 -18 -31 -40.5t-42 -43t-48.5 -36.5t-50 -22t-47 2t-39.5 35zM445 1092q10 0 17 -10l8 -5.5l18.5 -12.5t21 -13t15.5 -6q6 0 18.5 5.5t25 12l22 11.5t8.5 4q5 7 13 8t15 -4t8 -13t-4 -15q-1 -1 -11.5 -14t-25.5 -29q-23 -24 -40.5 -34.5
t-33 -9t-30 14t-32.5 35.5l-11.5 16l-9.5 14q-5 7 -9 14q-5 8 -3 15.5t10 12.5q4 3 10 3z" />
    <glyph glyph-name="Racute" unicode="&#x154;" horiz-adv-x="1508" 
d="M1535 337q8 -1 13 -7.5t4 -14.5q0 -1 -4 -28t-12.5 -71.5t-22 -100t-31.5 -113.5q-22 -69 -47 -123.5t-52 -94.5q-47 -67 -102 -91l-1 -1q-29 -13 -62 -13q-38 0 -63 19q-23 17 -36 49q-12 28 -17.5 63t-10.5 73q-6 51 -16 105t-36 97q-57 94 -203 94q-8 0 -14 6t-6 14
t6 14t14 6q22 0 45 3q69 30 124 85t92 121.5t54.5 137t11.5 132.5q-7 73 -38.5 108t-75.5 37.5t-95 -24.5t-96 -78q-45 -52 -87 -124.5t-79 -165.5q-29 -70 -51 -140.5t-37.5 -130.5t-24.5 -103.5t-13 -59.5q-7 -30 -29 -36t-46 0t-42.5 18.5t-18.5 20.5q0 1 -2 28t-5 72.5
t-6.5 105t-5.5 125.5q-2 71 -2.5 132t1.5 113l-36.5 -12t-36.5 -11q-59 -18 -112 -37t-95 -46q-45 -29 -65.5 -65.5t-20.5 -84.5q0 -8 -6 -14t-14 -6t-14 6t-6 14q0 116 104 184q45 29 102 49t115 38l44 13.5t43 14.5q8 125 27 185q17 49 50 79q33 28 70 34q31 5 58 -4.5
t44 -30.5q5 -7 10.5 -18t7.5 -26.5t-1 -36t-14 -45.5q-17 -39 -45.5 -67.5t-65.5 -50.5q-4 -56 -4.5 -120t1 -128.5t4.5 -125.5t6 -112q15 61 38.5 137.5t55.5 156.5q79 192 174 301q21 24 53 49t69.5 45t78.5 33t81.5 12.5t77.5 -17t67 -54.5q51 -61 49 -160
q0 -82 -33 -166q-34 -88 -93 -159q-64 -77 -147 -121q-8 -5 -15 -8t-15 -7q24 -4 45 -10t40 -16q27 -14 49 -34.5t38 -47.5q16 -26 24 -62t11.5 -75.5t5.5 -78t7 -70.5t15.5 -53t30.5 -25t45 22.5t50 68t47 91t35 90.5q18 57 31 111.5t21 97.5t12 69.5t4 27.5q2 8 8.5 13
t14.5 4zM941 977q6 9 14.5 27l17.5 37.5l17.5 37.5t14.5 28q6 11 25.5 7.5t38 -16t30 -30.5t2.5 -36q-9 -17 -31.5 -33t-46.5 -28.5t-43.5 -20.5t-20.5 -9q-6 -2 -9 -2q-12 0 -18 11q-4 8 0 14zM628 792q15 33 13 54t-12 25.5t-25 -9.5t-27 -50q-7 -20 -11.5 -46t-7.5 -57
q23 17 41 37.5t29 45.5z" />
    <glyph glyph-name="Abreve" unicode="&#x102;" horiz-adv-x="1025" 
d="M1053 335q-8 2 -15 -3t-9 -13q0 -1 -5 -28t-15.5 -71t-25.5 -99.5t-35 -112.5q-46 -134 -98 -212q-33 -48 -55.5 -57t-35.5 10t-18 61.5t-4 97.5q1 75 11.5 162.5t23.5 184.5q8 54 15 107.5t12 105.5q123 40 145 133q2 8 -2 15t-12 9t-15 -2t-9 -12q-9 -35 -35.5 -59
t-67.5 -40q7 72 6.5 136t-12.5 114q-11 50 -39 84t-67 53t-85 23t-91.5 -5t-88 -32t-74.5 -58q-41 -45 -72.5 -110.5t-53.5 -151.5q-7 -25 -12.5 -51.5t-10.5 -54.5q-34 -3 -62 -9q-61 -12 -92 -36q-40 -28 -40 -76q0 -8 6 -14t14 -6t14 6t6 14q0 9 3 19t13.5 19.5t30 18.5
t53.5 16q11 2 23 3.5t24 3.5q-5 -40 -9.5 -82.5t-6.5 -87.5q-5 -77 -5 -145.5t1.5 -121t4 -83.5t2.5 -32q1 -8 7.5 -13.5t14.5 -4.5t13.5 7.5t4.5 14.5q0 1 -2.5 31.5t-4 82t-2 119.5t4.5 143q3 48 7.5 91.5t11.5 84.5q39 3 83 4l91 2q62 2 123 3.5t118 7.5l-10 -79l-10 -80
q-12 -90 -22.5 -178t-13.5 -164q-2 -90 9.5 -146.5t38.5 -87.5q31 -37 83 -37q145 0 258 328q20 58 35.5 115t26 101.5t16 72l5.5 27.5q2 8 -3 15t-13 9zM412 468l-87 -2t-81 -4q21 116 55 201t82 137q76 82 182 82q28 0 46.5 -13.5t30.5 -35t18.5 -49t9 -55t2 -53
t-0.5 -43.5q-1 -35 -4 -73.5t-7 -79.5q-59 -7 -121.5 -8.5t-124.5 -3.5zM446 1083q0 8 6 14t14 6t14 -6t6 -14q0 -12 11 -19.5t27.5 -11.5t36 -4t36 5t27.5 14t11 22q0 8 6 14t14 6t14 -6t6 -14q0 -55 -32 -91.5t-90 -36.5q-29 0 -49 10.5t-33 27.5t-19 39t-6 45z" />
    <glyph glyph-name="Lacute" unicode="&#x139;" horiz-adv-x="1298" 
d="M1326 333q8 -1 13 -7.5t4 -14.5q-26 -175 -93 -282q-14 -21 -31.5 -42t-39 -37.5t-47.5 -27t-56 -10.5q-37 0 -75.5 12t-78 31.5t-79.5 44l-79 50.5l-38 25q-17 -25 -38.5 -40.5t-48.5 -24t-58.5 -11.5t-66.5 -3q-43 0 -71.5 21t-37.5 51q-5 16 -3.5 35t11 36.5t28 32.5
t47.5 25q31 10 65 4t72 -23v6q4 60 -3.5 134.5t-17.5 149.5l-6 45.5t-5 44.5q-51 -17 -105.5 -28t-109.5 -21q-62 -11 -118 -22.5t-101 -31.5q-48 -22 -73.5 -52t-33.5 -73q-2 -8 -8.5 -13t-14.5 -3t-13 8.5t-3 14.5q18 103 130 154q48 22 106.5 34.5t121.5 23.5
q57 10 112 21t105 29q-6 66 -6 122t13 98q14 42 40.5 68.5t62.5 33.5q26 4 49 -3t44 -22l13 -14q22 -28 24 -64.5t-15 -76.5q-30 -68 -88 -114q3 -38 8 -77.5l10 -79.5q5 -39 13 -84t12 -91t1 -91t-19 -83q30 -21 70.5 -41t84.5 -36t89.5 -25t86.5 -7q54 2 93 33.5t65.5 77
t42 98t21.5 96.5q2 8 8.5 13t14.5 3zM477 43q30 -14 76 -1q33 9 51 45q10 20 16 49l-7 3q-51 24 -86 24q-7 0 -13.5 -1t-12.5 -3q-39 -14 -51.5 -37t-6.5 -43q8 -24 34 -36zM691 999q6 9 14.5 27l17.5 37.5l17.5 37.5t14.5 28q6 11 25.5 7.5t38 -16t30 -30.5t2.5 -36
q-9 -17 -31.5 -33t-46.5 -28.5t-43.5 -20.5t-20.5 -9q-6 -2 -9 -2q-12 0 -18 11q-4 8 0 14zM776 757q10 23 9.5 47t-7.5 35.5t-19.5 4t-25.5 -46.5q-7 -23 -9.5 -53.5t-1.5 -65.5q17 17 30.5 36.5t23.5 42.5z" />
    <glyph glyph-name="Cacute" unicode="&#x106;" horiz-adv-x="1099" 
d="M1130 327q8 -2 12 -9.5t1 -15.5q0 -2 -7 -21.5t-20.5 -51t-33 -71t-44.5 -81.5q-63 -101 -129 -157q-88 -74 -181 -74q-54 0 -100 31q-41 26 -79 79q-32 48 -57 111.5t-40 141.5q-17 85 -21.5 172.5t3.5 170.5q-65 -5 -127 -14t-113 -26q-71 -25 -106.5 -65.5
t-39.5 -101.5q-1 -8 -7 -14t-14 -5t-14 7t-5 14q4 77 54 131q43 46 119 71q57 20 123 29t136 15q8 56 24 111t45 106q47 79 115 108q51 23 104 15q49 -6 89 -37q40 -30 60 -79q11 -24 14 -51t-1 -54q-12 -89 -135 -123q-38 -11 -83.5 -16.5t-95.5 -10.5q-5 -34 -6.5 -70.5
t-0.5 -74.5q2 -91 17.5 -176.5t42.5 -157.5q38 -96 84 -133.5t95 -29.5t99 55t96 122q25 40 44 79t32 69.5t19.5 49.5l6.5 19q3 8 10 11.5t15 1.5zM851 718q6 44 -9.5 82.5t-48.5 63.5q-25 19 -49 16.5t-46 -20.5t-41.5 -48.5t-34.5 -65.5t-25.5 -72.5t-14.5 -70.5
q52 4 99 11t83.5 20t59 33t27.5 51zM642 1008q6 9 14.5 27l17.5 37.5l17.5 37.5t14.5 28q6 11 25.5 7.5t38 -16t30 -30.5t2.5 -36q-9 -17 -31.5 -33t-46.5 -28.5t-43.5 -20.5t-20.5 -9q-6 -2 -9 -2q-12 0 -18 11q-4 8 0 14z" />
    <glyph glyph-name="Ccaron" unicode="&#x10c;" horiz-adv-x="1099" 
d="M1130 327q-8 2 -15 -1.5t-10 -11.5l-6.5 -19t-19.5 -49.5t-32 -69.5t-44 -79q-46 -75 -96 -122t-99 -55t-95 29.5t-84 133.5q-27 72 -42.5 157.5t-17.5 176.5q-1 38 0.5 74.5t6.5 70.5q50 5 95.5 10.5t83.5 16.5q123 34 135 123q4 27 1 54t-14 51q-20 49 -60 79
q-40 31 -89 37q-53 8 -104 -15q-68 -29 -115 -108q-29 -51 -45 -106t-24 -111q-70 -6 -136 -15t-123 -29q-76 -25 -119 -71q-50 -54 -54 -131q-1 -8 5 -14t14 -7t14 5t7 14q4 61 39.5 101.5t106.5 65.5q51 17 113 26t127 14q-8 -83 -3.5 -170.5t21.5 -172.5
q15 -78 40 -141.5t57 -111.5q38 -53 79 -79q46 -31 100 -31q93 0 181 74q66 56 129 157q25 42 44.5 81.5t33 71t20.5 51t7 21.5q3 8 -1 15.5t-12 9.5zM851 718q-5 -31 -27.5 -51t-59 -33t-83.5 -20t-99 -11q4 33 14.5 70.5t25.5 72.5t34.5 65.5t41.5 48.5t46 20.5t49 -16.5
q33 -25 48.5 -63.5t9.5 -82.5zM605 1113q10 0 17 -10l8 -5.5l18.5 -12.5t21 -13t15.5 -6q6 0 18.5 5.5t25 12l22 11.5t8.5 4q5 7 13 8t15 -4t8 -13t-4 -15q-1 -1 -11.5 -14t-25.5 -29q-23 -24 -40.5 -34.5t-33 -9t-30 14t-32.5 35.5l-11.5 16l-9.5 14q-5 7 -9 14
q-5 8 -3 15.5t10 12.5q4 3 10 3z" />
    <glyph glyph-name="Eogonek" unicode="&#x118;" horiz-adv-x="820" 
d="M848 338q8 -2 13 -9t3 -15q-24 -124 -69 -220t-109 -160q-35 -35 -82 -60q-11 -14 -22 -37t-18 -47.5t-9.5 -47.5t3 -38t19.5 -19t40 10q8 4 15.5 4.5t13.5 -5.5q5 -6 5 -14t-6 -14q-10 -8 -33 -17.5t-50 -9.5q-12 0 -24 3q-42 9 -57 50q-21 56 38 142l7 11
q-35 -8 -69.5 -7.5t-67.5 11t-62.5 32.5t-53.5 56q-31 45 -44 101.5t-8 122.5q9 108 61 186q43 64 109 100l26 14q-13 5 -30 17q-50 35 -80 113q-41 -23 -79.5 -47.5t-71.5 -51.5q-113 -89 -107 -172q1 -9 -4.5 -15t-13.5 -7t-14.5 4.5t-7.5 13.5q-7 104 122 208
q36 29 78 55.5t86 50.5q-10 47 -1 103q12 67 49 117q29 41 67.5 62t81.5 21q37 0 72.5 -18.5t49.5 -56.5q3 -9 4.5 -21.5t-3 -27.5t-16 -32.5t-34.5 -35.5q-24 -19 -58 -39l-76 -43q1 -10 3 -19l4 -18q14 -43 46 -78.5t66 -50.5q15 -7 12 -20t-11 -17q-32 -16 -64 -44
t-58.5 -66t-45 -85.5t-22.5 -102.5q-6 -81 17 -143.5t65.5 -93.5t98.5 -23.5t116 65.5q60 60 102 150.5t65 208.5q2 8 8.5 13t14.5 3zM576 845q-14 30 -32.5 31t-37 -14.5t-34.5 -40t-24 -44.5q-13 -34 -18 -73l62 36t48 33q8 6 16 14.5t14 17.5t8 19t-2 21z" />
    <glyph glyph-name="Ecaron" unicode="&#x11a;" horiz-adv-x="820" 
d="M848 338q-8 2 -14.5 -3t-8.5 -13q-23 -118 -65 -208.5t-102 -150.5q-60 -58 -116 -65.5t-98.5 23.5t-65.5 93.5t-17 143.5q4 55 22.5 102.5t45 85.5t58.5 66t64 44q8 4 11 17t-12 20q-34 15 -66 50.5t-46 78.5l-4 18t-3 19l76 43t58 39q23 18 34.5 35.5t16 32.5t3 27.5
t-4.5 21.5q-14 38 -49.5 56.5t-72.5 18.5q-43 0 -81.5 -21t-67.5 -62q-37 -50 -49 -117q-9 -56 1 -103q-44 -24 -86 -50.5t-78 -55.5q-129 -104 -122 -208q1 -8 7.5 -13.5t14.5 -4.5t13.5 7t4.5 15q-6 83 107 172q33 27 71.5 51.5t79.5 47.5q30 -78 80 -113q17 -12 30 -17
l-26 -14q-66 -36 -109 -100q-52 -78 -61 -186q-5 -66 8 -122.5t44 -101.5q39 -56 92.5 -79.5t110.5 -20.5t112.5 29t97.5 68q64 64 109 160t69 220q2 8 -3 15t-13 9zM394 1090q10 0 17 -10l8 -5.5l18.5 -12.5t21 -13t15.5 -6q6 0 18.5 5.5t25 12l22 11.5t8.5 4q5 7 13 8
t15 -4t8 -13t-4 -15q-1 -1 -11.5 -14t-25.5 -29q-23 -24 -40.5 -34.5t-33 -9t-30 14t-32.5 35.5l-11.5 16l-9.5 14q-5 7 -9 14q-5 8 -3 15.5t10 12.5q4 3 10 3zM576 845q4 -11 2 -21t-8 -19t-14 -17.5t-16 -14.5q-20 -16 -48 -33l-62 -36q5 39 18 73q8 20 24 44.5t34.5 40
t37 14.5t32.5 -31z" />
    <glyph glyph-name="Dcaron" unicode="&#x10e;" horiz-adv-x="1447" 
d="M1485 332q-8 3 -15.5 0.5t-10.5 -10.5q-17 -37 -47 -64.5t-78 -47.5q-23 -10 -49.5 -18t-54.5 -15q18 108 18 222q0 100 -14.5 186.5t-42.5 152.5q-32 76 -79 115.5t-106 39.5q-36 0 -69 -12t-61.5 -32t-52.5 -45.5t-44 -52.5q-40 -55 -76 -130t-68 -170
q-23 -69 -40.5 -135t-30.5 -123q-3 51 -5.5 110t-3.5 120t-0.5 121.5t4.5 113.5q36 22 65 50.5t46 67.5q11 25 14 45.5t1 36t-7.5 26.5t-11.5 18q-17 21 -43.5 30.5t-57.5 4.5q-39 -6 -70 -34q-35 -30 -50 -79q-21 -60 -27 -185q-22 -8 -43.5 -14.5l-44.5 -13.5
q-58 -18 -114.5 -38t-101.5 -49q-104 -68 -104 -184q0 -8 6 -14t14 -6t14 6t6 14q0 48 20.5 84.5t65.5 65.5q41 27 94 46t112 37l37.5 11.5t36.5 11.5q-2 -52 -1.5 -113t2.5 -132q2 -66 5 -122.5t5.5 -98.5t4.5 -66.5t2 -25.5q2 -13 22 -24.5t44.5 -15t46 5t27.5 35.5
q4 22 12.5 63.5t20.5 95t28.5 115.5t37.5 125q62 184 138 289q86 116 151 103.5t110 -158.5q21 -68 30 -153t5 -178q-2 -51 -8 -99.5t-15 -95.5q-38 -8 -75.5 -17t-73.5 -21q-109 -36 -175 -92q-59 -48 -79 -112q-19 -61 2 -115q19 -52 65 -82t108 -30q96 0 176 68
q71 62 121 172q23 48 40 102.5t29 114.5q35 8 67 17.5t61 21.5q50 22 86 52q40 35 59 81q4 8 1 15t-11 11zM633 792q-11 -25 -29 -45.5t-41 -37.5q4 32 8.5 57.5t11.5 45.5q12 36 27 50t25 9.5t11.5 -25.5t-13.5 -54zM720 -197q-17 46 0.5 94.5t64.5 87.5q59 49 134 75
t155 43q-1 -34 -17.5 -81.5t-44 -95.5t-63 -89.5t-74.5 -64t-79 -18t-76 48.5zM903 1068q10 0 17 -10l8 -5.5l18.5 -12.5t21 -13t15.5 -6q6 0 18.5 5.5t25 12l22 11.5t8.5 4q5 7 13 8t15 -4t8 -13t-4 -15q-1 -1 -11.5 -14t-25.5 -29q-23 -24 -40.5 -34.5t-33 -9t-30 14
t-32.5 35.5l-11.5 16l-9.5 14q-5 7 -9 14q-5 8 -3 15.5t10 12.5q4 3 10 3z" />
    <glyph glyph-name="Nacute" unicode="&#x143;" horiz-adv-x="1387" 
d="M1412 322q8 -2 13.5 -8.5t3.5 -14.5q0 -1 -5.5 -27.5t-15.5 -69.5t-25.5 -97.5t-35.5 -111.5q-115 -315 -266 -315q-54 0 -84 38q-25 31 -32 87.5t4 144.5q9 75 27.5 161.5l38.5 174.5l39.5 181t28.5 168q10 85 4 138.5t-27 80.5q-22 28 -65 28q-110 0 -203 -129
q-77 -105 -139 -296q-23 -69 -39.5 -135.5t-28.5 -123.5t-18.5 -99.5l-9.5 -61.5v-1q-1 -1 -1 -2v-1q-3 -19 -23.5 -31.5t-45 -15.5t-46 5t-25.5 31q0 1 -2 28t-5 72.5t-6.5 105t-5.5 125.5q-2 71 -2.5 132t1.5 113l-73 -23q-59 -18 -112 -37t-95 -46q-45 -29 -65.5 -65.5
t-20.5 -84.5q0 -8 -6 -14t-14 -6t-14 6t-6 14q0 116 104 184q45 29 102 49t115 38l44 13.5t43 14.5q8 125 27 185q17 49 50 79q33 28 70 34q31 5 58 -4.5t44 -30.5q5 -7 10.5 -18t7.5 -26.5t-1 -36t-14 -45.5q-17 -39 -45.5 -67.5t-65.5 -50.5q-3 -53 -4 -113t0.5 -121
t3.5 -120t5 -110q12 60 29.5 130t41.5 143q63 196 144 308q25 34 57.5 63t69 49.5t75.5 31t77 7.5t74 -20.5t66 -53.5q40 -49 49 -129q4 -47 -1 -103.5t-16 -119t-26 -129l-31 -132.5q-23 -94 -41.5 -178.5t-25.5 -155.5q-5 -55 -2 -94.5t15.5 -56t34.5 -6t55 55.5
q53 72 100 202q20 55 35 109t25 96t15 68l5 26q2 8 8.5 13.5t14.5 3.5zM923 1006q6 9 14.5 27l17.5 37.5l17.5 37.5t14.5 28q6 11 25.5 7.5t38 -16t30 -30.5t2.5 -36q-9 -17 -31.5 -33t-46.5 -28.5t-43.5 -20.5t-20.5 -9q-6 -2 -9 -2q-12 0 -18 11q-4 8 0 14zM634 792
q15 33 13 54t-12 25.5t-25 -9.5t-27 -50q-7 -20 -11.5 -45.5t-7.5 -57.5q23 17 41 37.5t29 45.5zM577 33l-1 -2q0 1 0.5 1t0.5 1z" />
    <glyph glyph-name="Ncaron" unicode="&#x147;" horiz-adv-x="1387" 
d="M1412 322q-8 2 -14.5 -3.5t-8.5 -13.5l-5 -26t-15 -68t-25 -96t-35 -109q-47 -130 -100 -202q-33 -45 -55 -55.5t-34.5 6t-15.5 56t2 94.5q7 71 25.5 155.5t41.5 178.5l31 132.5t26 129t16 119t1 103.5q-9 80 -49 129q-30 36 -66 53.5t-74 20.5t-77 -7.5t-75.5 -31
t-69 -49.5t-57.5 -63q-81 -112 -144 -308q-24 -73 -41.5 -143t-29.5 -130q-3 51 -5 110t-3.5 120t-0.5 121t4 113q37 22 65.5 50.5t45.5 67.5q11 25 14 45.5t1 36t-7.5 26.5t-10.5 18q-17 21 -44 30.5t-58 4.5q-37 -6 -70 -34q-33 -30 -50 -79q-19 -60 -27 -185
q-21 -8 -43 -14.5l-44 -13.5q-58 -18 -115 -38t-102 -49q-104 -68 -104 -184q0 -8 6 -14t14 -6t14 6t6 14q0 48 20.5 84.5t65.5 65.5q42 27 95 46t112 37l73 23q-2 -52 -1.5 -113t2.5 -132q2 -66 5.5 -125.5t6.5 -105t5 -72.5t2 -28q4 -23 25.5 -31t46 -5t45 15.5t23.5 31.5
q0 1 0.5 2t0.5 2l9.5 61.5t18.5 99.5t28.5 123.5t39.5 135.5q62 191 139 296q93 129 203 129q43 0 65 -28q21 -27 27 -80.5t-4 -138.5q-9 -78 -28.5 -168l-39.5 -181l-38.5 -174.5t-27.5 -161.5q-11 -88 -4 -144.5t32 -87.5q30 -38 84 -38q151 0 266 315q20 57 35.5 111.5
t25.5 97.5t15.5 69.5t5.5 27.5q2 8 -3.5 14.5t-13.5 8.5zM958 1103q10 0 17 -10l8 -5.5l18.5 -12.5t21 -13t15.5 -6q6 0 18.5 5.5t25 12l22 11.5t8.5 4q5 7 13 8t15 -4t8 -13t-4 -15q-1 -1 -11.5 -14t-25.5 -29q-23 -24 -40.5 -34.5t-33 -9t-30 14t-32.5 35.5l-11.5 16
l-9.5 14q-5 7 -9 14q-5 8 -3 15.5t10 12.5q4 3 10 3zM634 792q-11 -25 -29 -45.5t-41 -37.5q3 32 7.5 57.5t11.5 45.5q12 36 27 50t25 9.5t12 -25.5t-13 -54zM577 33q0 -1 -0.5 -1t-0.5 -1z" />
    <glyph glyph-name="Ohungarumlaut" unicode="&#x150;" horiz-adv-x="1152" 
d="M1201 313q2 -8 -2 -15t-12 -9q-33 -10 -56.5 -15t-44 -7t-41 -1.5t-48.5 2.5q-19 -49 -47 -92q-53 -84 -122 -131q-78 -51 -168 -51q-81 0 -147 39.5t-112 116.5q-39 66 -60 152q-9 41 -14 82.5t-5 84.5q0 34 3 66l-28 -11q-50 -19 -96 -38.5t-81 -43.5t-56 -53.5
t-19 -69.5q1 -8 -5 -14.5t-14 -6.5q-8 -1 -14 5t-7 14q-3 91 88 155q39 27 88.5 48l100.5 41q12 5 24.5 9.5t24.5 9.5q12 77 41 135q27 52 63 82q43 32 91 32q26 0 44.5 -11.5t24.5 -31.5q5 -12 3.5 -32t-17.5 -47q-26 -45 -85 -87q-8 -7 -19 -13q-12 -53 -14.5 -114
t6.5 -124q11 -78 37 -139t62.5 -102.5t80 -60.5t89.5 -12t91.5 41.5t86.5 100.5q11 17 21 36t19 39l-21 4l-21 4q-63 15 -119 49q-25 16 -47 34.5t-42 41.5q-19 23 -35 48t-28 53q-24 52 -33 110q-8 55 -3 106.5t25 93.5q21 46 54 71q37 28 85 28q69 0 123 -29t92 -86
q33 -50 50 -118q16 -63 16 -139q0 -96 -26 -192l-8 -27q39 -12 77 -11t81 14q8 2 15.5 -2t9.5 -12zM952 778q-41 62 -79.5 75t-68 -10t-44.5 -75.5t-8 -120.5q4 -44 19.5 -89.5t43.5 -87t68.5 -76.5t96.5 -57q32 101 32 206q0 71 -15.5 131t-44.5 104zM511 973q6 9 14.5 27
l17.5 37.5l17.5 37.5t14.5 28q6 11 25.5 7.5t38 -16t30 -30.5t2.5 -36q-9 -17 -31.5 -33t-46.5 -28.5t-43.5 -20.5t-20.5 -9q-6 -2 -9 -2q-12 0 -18 11q-4 8 0 14zM683 973q6 9 14.5 27l17.5 37.5l17.5 37.5t14.5 28q6 11 25.5 7.5t38 -16t30 -30.5t2.5 -36
q-9 -17 -31.5 -33t-46.5 -28.5t-43.5 -20.5t-20.5 -9q-6 -2 -9 -2q-12 0 -18 11q-4 8 0 14zM496 671q16 14 31 29t24.5 28t12 23t-4.5 13q-11 5 -20 -3t-16.5 -23t-14 -33.5t-12.5 -33.5z" />
    <glyph glyph-name="Rcaron" unicode="&#x158;" horiz-adv-x="1508" 
d="M1535 337q-8 1 -14.5 -4t-8.5 -13q0 -1 -4 -27.5t-12 -69.5t-21 -97.5t-31 -111.5q-13 -41 -35 -90.5t-47 -91t-50 -68t-45 -22.5t-30.5 25t-15.5 53t-7 70.5t-5.5 78t-11.5 75.5t-24 62q-16 27 -38 47.5t-49 34.5q-19 10 -40 16t-45 10q8 4 15 7t15 8q83 44 147 121
q59 71 93 159q33 84 33 166q2 99 -49 160q-30 38 -67 54.5t-77.5 17t-81.5 -12.5t-78.5 -33t-69.5 -45t-53 -49q-95 -109 -174 -301q-32 -80 -55.5 -156.5t-38.5 -137.5q-3 51 -6 112t-4.5 125.5t-1 128.5t4.5 120q37 22 65.5 50.5t45.5 67.5q11 25 14 45.5t1 36t-7.5 26.5
t-10.5 18q-17 21 -44 30.5t-58 4.5q-37 -6 -70 -34q-33 -30 -50 -79q-19 -60 -27 -185q-21 -8 -43 -14.5l-44 -13.5q-58 -18 -115 -38t-102 -49q-104 -68 -104 -184q0 -8 6 -14t14 -6t14 6t6 14q0 48 20.5 84.5t65.5 65.5q42 27 95 46t112 37q18 5 36.5 11l36.5 12
q-2 -52 -1.5 -113t2.5 -132q2 -66 5.5 -125.5t6.5 -105t5 -72.5t2 -28q0 -8 18.5 -20.5t42.5 -18.5t46 0t29 36q4 16 13 59.5t24.5 103.5t37.5 130.5t51 140.5q37 93 79 165.5t87 124.5q45 51 96 78t95 24.5t75.5 -37.5t38.5 -108q6 -62 -11.5 -132.5t-54.5 -137t-92 -121.5
t-124 -85q-23 -3 -45 -3q-8 0 -14 -6t-6 -14t6 -14t14 -6q146 0 203 -94q26 -43 36 -97t16 -105q5 -38 10.5 -73t17.5 -63q13 -32 36 -49q25 -19 63 -19q33 0 62 13l1 1q55 24 102 91q27 40 52 94.5t47 123.5q18 58 31.5 113.5t22 100t12.5 71.5t4 28q1 8 -4 14.5t-13 7.5z
M971 1073q10 0 17 -10l8 -5.5l18.5 -12.5t21 -13t15.5 -6q6 0 18.5 5.5t25 12l22 11.5t8.5 4q5 7 13 8t15 -4t8 -13t-4 -15q-1 -1 -11.5 -14t-25.5 -29q-23 -24 -40.5 -34.5t-33 -9t-30 14t-32.5 35.5l-11.5 16l-9.5 14q-5 7 -9 14q-5 8 -3 15.5t10 12.5q4 3 10 3zM628 792
q-11 -25 -29 -45.5t-41 -37.5q3 31 7.5 57t11.5 46q12 36 27 50t25 9.5t12 -25.5t-13 -54z" />
    <glyph glyph-name="Uring" unicode="&#x16e;" horiz-adv-x="1386" 
d="M1414 333q8 -2 13 -8.5t3 -14.5q0 -2 -3.5 -21.5t-11 -50t-19 -69.5t-27.5 -80q-20 -48 -41 -86.5t-45 -67.5q-62 -75 -137 -75q-41 0 -70 34q-52 59 -68 227q-12 131 -3 324q1 17 1.5 32.5t2.5 31.5l-10 -32l-10 -32q-61 -182 -142 -289q-104 -136 -235 -136
q-108 0 -175 82q-61 79 -80 227q-7 59 -7.5 127t5.5 146l5 48l-16 -39q-30 -68 -62 -122t-66 -93q-89 -103 -191 -103q-8 0 -14 6t-6 14t6 14t14 6q83 0 161 89q32 37 62 88t59 117q22 51 38.5 99.5t28 89t19 70t12.5 44.5v1q1 11 23.5 19.5t48.5 9.5t47 -7.5t20 -31.5
q0 -1 -7 -34t-16 -88t-18 -125.5t-12 -145.5q-8 -176 23 -290q21 -76 53.5 -116.5t72 -47t84.5 20t91 85.5q38 51 72 120t64 157q22 67 38.5 129.5t27.5 114.5t16.5 91t7.5 60q0 15 11 25t27.5 15.5t35.5 7t34.5 -2t25.5 -11t8 -19.5q0 -1 -5 -39.5t-11.5 -101t-13 -142.5
t-9.5 -164q-5 -114 -1.5 -205t13.5 -154.5t26.5 -96t38.5 -30t50 43.5t60 126q15 39 26.5 77t19 68t11 49l3.5 19q2 8 8.5 13t14.5 3zM906 1037q6 -34 -4 -64q-9 -29 -30 -49t-50 -26q-12 -3 -22 -3q-17 0 -29 5t-20 11q-26 18 -35 56q-5 21 -2.5 44.5t12.5 43.5
q22 48 72 61q49 11 81 -22q10 -11 17 -25.5t10 -31.5zM864 984q7 22 3 45t-17 37q-13 13 -29 13q-4 0 -7 -0.5t-7 -1.5q-17 -5 -28.5 -16t-17.5 -25.5t-7.5 -30.5t1.5 -29q2 -7 5.5 -15.5t10.5 -14.5t17.5 -9t25.5 0q25 5 36 20.5t14 26.5z" />
    <glyph glyph-name="Uhungarumlaut" unicode="&#x170;" horiz-adv-x="1386" 
d="M1414 333q8 -2 13 -8.5t3 -14.5q0 -2 -3.5 -21.5t-11 -50t-19 -69.5t-27.5 -80q-20 -48 -41 -86.5t-45 -67.5q-62 -75 -137 -75q-41 0 -70 34q-52 59 -68 227q-12 131 -3 324q1 17 1.5 32.5t2.5 31.5l-10 -32l-10 -32q-61 -182 -142 -289q-104 -136 -235 -136
q-108 0 -175 82q-61 79 -80 227q-7 59 -7.5 127t5.5 146l5 48l-16 -39q-30 -68 -62 -122t-66 -93q-89 -103 -191 -103q-8 0 -14 6t-6 14t6 14t14 6q83 0 161 89q32 37 62 88t59 117q22 51 38.5 99.5t28 89t19 70t12.5 44.5v1q1 11 23.5 19.5t48.5 9.5t47 -7.5t20 -31.5
q0 -1 -7 -34t-16 -88t-18 -125.5t-12 -145.5q-8 -176 23 -290q21 -76 53.5 -116.5t72 -47t84.5 20t91 85.5q38 51 72 120t64 157q22 67 38.5 129.5t27.5 114.5t16.5 91t7.5 60q0 15 11 25t27.5 15.5t35.5 7t34.5 -2t25.5 -11t8 -19.5q0 -1 -5 -39.5t-11.5 -101t-13 -142.5
t-9.5 -164q-5 -114 -1.5 -205t13.5 -154.5t26.5 -96t38.5 -30t50 43.5t60 126q15 39 26.5 77t19 68t11 49l3.5 19q2 8 8.5 13t14.5 3zM859 942q6 9 14.5 27l17.5 37.5l17.5 37.5t14.5 28q6 11 25.5 7.5t38 -16t30 -30.5t2.5 -36q-9 -17 -31.5 -33t-46.5 -28.5t-43.5 -20.5
t-20.5 -9q-6 -2 -9 -2q-12 0 -18 11q-4 8 0 14zM687 942q6 9 14.5 27l17.5 37.5l17.5 37.5t14.5 28q6 11 25.5 7.5t38 -16t30 -30.5t2.5 -36q-9 -17 -31.5 -33t-46.5 -28.5t-43.5 -20.5t-20.5 -9q-6 -2 -9 -2q-12 0 -18 11q-4 8 0 14z" />
    <glyph glyph-name="Zdotaccent" unicode="&#x17b;" horiz-adv-x="1258" 
d="M1285 315q-8 2 -15.5 -1.5t-9.5 -11.5q-18 -85 -61.5 -144.5t-103.5 -95t-132.5 -47.5t-148.5 -1.5t-151.5 42t-141.5 83.5q48 65 89 143.5l79 158.5l54 111.5t55.5 102t59.5 85.5t66 63q6 5 7.5 12t-2.5 14t-11 9.5t-14 -0.5q-40 -17 -111 -7q-34 5 -71 15l-78 22
l-78.5 22t-82 18.5t-83.5 11t-84 -0.5q-192 -19 -306 -215q-5 -7 -3 -15t10 -12q7 -5 15 -3t12 10q39 67 84 108t93.5 62t100 25t104 -2t105 -20l102.5 -28l63 -17.5t60 -14.5q-51 -46 -100 -130q-29 -49 -56.5 -104l-53.5 -111q-30 -66 -62 -129.5t-67 -119.5
q-39 20 -77 32.5t-76 12.5q-55 0 -98 -22t-65 -62q-17 -29 -16.5 -61.5t17.5 -58.5q22 -34 63 -51q45 -17 104 -14q74 5 140 48q44 29 88 81q142 -120 269 -167t231.5 -23t182 117.5t119.5 255.5q2 8 -2 15t-12 9zM136 65q-11 17 -11 38.5t11 41.5q17 29 50.5 46t77.5 17
q31 0 63.5 -10.5t66.5 -27.5q-12 -18 -31 -40.5t-42 -43t-48.5 -36.5t-50 -22t-47 2t-39.5 35zM592 1002q0 -20 -14.5 -34t-36.5 -14q-20 0 -34.5 14t-14.5 34q0 21 14.5 35t34.5 14q22 0 36.5 -14t14.5 -35z" />
    <glyph glyph-name="Sacute" unicode="&#x15a;" horiz-adv-x="817" 
d="M845 331q8 -2 12 -9.5t2 -15.5q-22 -79 -108 -128l-26 -13q64 -95 64 -202q1 -71 -40 -134q-36 -52 -102 -92q-35 -20 -78 -35.5t-88.5 -21t-90.5 0.5t-83 29q-32 17 -51 48t-19 72q0 144 108 224q46 34 102.5 55t114.5 39q-22 26 -47 51.5l-51 52.5l-97 101t-87 112
q-5 6 -8.5 12.5t-7.5 12.5l-55 -21q-34 -12 -64 -24.5t-52 -29.5t-34.5 -41.5t-12.5 -61.5q0 -8 -6 -14t-14 -6t-14 6t-6 14q0 84 61 133q26 21 59 34.5l69 27.5l50 18q-55 110 -55 228q0 57 20 105q21 45 58 70q27 17 58 21t59 -5t49 -31t29 -56q6 -29 5.5 -64.5
t-7.5 -76.5q-18 -98 -83 -159q34 -65 84.5 -117.5t104.5 -102.5l70 -67t64 -72q45 20 76.5 48t43.5 71q2 8 9 12t15 2zM277 -170q0 -56 50 -86q31 -17 67 -17.5t71.5 11.5t69 35t59 53t40.5 65t15 72q0 40 -16 77.5t-44 74.5l-10 -3q-57 -18 -112 -38t-98 -52
q-48 -35 -70 -81.5t-22 -110.5zM421 723q7 36 7 68.5t-5 57.5q-2 9 -6.5 20.5t-12 19.5t-17 10t-20.5 -7q-4 -3 -10.5 -11.5t-12.5 -24.5t-10 -41t-4 -62q0 -45 8 -83.5t22 -73.5q22 23 37.5 53.5t23.5 73.5zM304 1025q6 9 14.5 27l17.5 37.5l17.5 37.5t14.5 28
q6 11 25.5 7.5t38 -16t30 -30.5t2.5 -36q-9 -17 -31.5 -33t-46.5 -28.5t-43.5 -20.5t-20.5 -9q-6 -2 -9 -2q-12 0 -18 11q-4 8 0 14z" />
    <glyph glyph-name="Tcaron" unicode="&#x164;" horiz-adv-x="864" 
d="M1296 942q-8 2 -14.5 -2.5t-9.5 -12.5q-15 -39 -52.5 -68t-89.5 -49t-114.5 -33t-125.5 -21t-122.5 -12t-107.5 -6q2 22 2.5 41.5t-0.5 36.5q-2 34 -24.5 45t-48 6.5t-46.5 -19.5t-21 -32v-39t-2 -45q-50 -3 -97 -8t-91 -13q-89 -15 -149 -40q-70 -29 -114 -76
q-34 -37 -49 -83q-17 -49 -14 -108q0 -8 6 -14t14 -6h1q19 2 19 21q-4 101 53 163q30 32 74 54t98.5 36t117 21.5t129.5 11.5q-3 -63 -9 -138q-7 -115 -13.5 -238t-5.5 -235q2 -135 17 -214t46 -111q21 -24 51 -24h2q62 1 126 109q48 82 98 220q42 118 58 177.5t16 61.5
q2 8 -2.5 15t-12.5 9t-15 -2.5t-9 -12.5q0 -2 -15.5 -60.5t-57.5 -174.5q-24 -68 -47.5 -121t-46.5 -91q-15 -26 -26 -26.5t-18.5 15.5t-12 45.5t-7 65t-3.5 73.5t-1 70q-1 108 5.5 224.5t13.5 225.5q3 39 5 75.5t4 68.5q8 1 14.5 1h14.5q105 5 208 11.5t188 26.5
q89 22 146 62q65 48 81 119q2 8 -2 15t-12 9zM505 1043q10 0 17 -10l8 -5.5l18.5 -12.5t21 -13t15.5 -6q6 0 18.5 5.5t25 12l22 11.5t8.5 4q5 7 13 8t15 -4t8 -13t-4 -15q-1 -1 -11.5 -14t-25.5 -29q-23 -24 -40.5 -34.5t-33 -9t-30 14t-32.5 35.5l-11.5 16l-9.5 14
q-5 7 -9 14q-5 8 -3 15.5t10 12.5q4 3 10 3z" />
    <glyph glyph-name="Zacute" unicode="&#x179;" horiz-adv-x="1258" 
d="M1285 315q8 -2 12 -9t2 -15q-42 -162 -119.5 -255.5t-182 -117.5t-231.5 23t-269 167q-44 -52 -88 -81q-66 -43 -140 -48q-59 -3 -104 14q-41 17 -63 51q-17 26 -17.5 58.5t16.5 61.5q22 40 65 62t98 22q38 0 76 -12.5t77 -32.5q35 56 67 119.5t62 129.5l53.5 111
t56.5 104q49 84 100 130q-29 6 -60 14.5l-63 17.5l-102.5 28t-105 20t-104 2t-100 -25t-93.5 -62t-84 -108q-4 -8 -12 -10t-15 3q-8 4 -10 12t3 15q114 196 306 215q42 4 84 0.5t83.5 -11t82 -18.5l78.5 -22l78 -22t71 -15q71 -10 111 7q7 3 14 0.5t11 -9.5t2.5 -14
t-7.5 -12q-35 -25 -66 -63t-59.5 -85.5t-55.5 -102l-54 -111.5l-79 -158.5t-89 -143.5q66 -52 141.5 -83.5t151.5 -42t148.5 1.5t132.5 47.5t103.5 95t61.5 144.5q2 8 9.5 11.5t15.5 1.5zM136 65q17 -27 39.5 -35t47 -2t50 22t48.5 36.5t42 43t31 40.5q-34 17 -66.5 27.5
t-63.5 10.5q-44 0 -77.5 -17t-50.5 -46q-11 -20 -11 -41.5t11 -38.5zM511 994q6 9 14.5 27l17.5 37.5l17.5 37.5t14.5 28q6 11 25.5 7.5t38 -16t30 -30.5t2.5 -36q-9 -17 -31.5 -33t-46.5 -28.5t-43.5 -20.5t-20.5 -9q-6 -2 -9 -2q-12 0 -18 11q-4 8 0 14z" />
    <glyph glyph-name="Aogonek" unicode="&#x104;" horiz-adv-x="1025" 
d="M843 -484q5 -6 5 -14t-6 -14q-10 -8 -33 -17.5t-50 -9.5q-12 0 -24 3q-42 9 -57 50q-21 56 38 142l7 11q-48 2 -78 37q-27 31 -38.5 87.5t-9.5 146.5q3 76 13.5 164t22.5 178l10 80l10 79q-57 -6 -118 -7.5t-123 -3.5l-91 -2t-83 -4q-7 -41 -11.5 -84.5t-7.5 -91.5
q-5 -75 -4.5 -143t2 -119.5t4 -82t2.5 -31.5q1 -8 -4.5 -14.5t-13.5 -7.5t-14.5 4.5t-7.5 13.5q0 1 -2.5 32t-4 83.5t-1.5 121t5 145.5q2 45 6.5 87.5t9.5 82.5q-12 -2 -24 -3.5t-23 -3.5q-34 -7 -53.5 -16t-30 -18.5t-13.5 -19.5t-3 -19q0 -8 -6 -14t-14 -6t-14 6t-6 14
q0 48 40 76q31 24 92 36q28 6 62 9q5 28 10.5 54.5t12.5 51.5q22 86 53.5 151.5t72.5 110.5q32 35 74.5 58t88 32t91.5 5t85 -23t67 -53t39 -84q12 -50 12.5 -114t-6.5 -136q41 16 67.5 40t35.5 59q2 8 9 12t15 2t12 -9t2 -15q-22 -93 -145 -133q-5 -52 -12 -105.5
t-15 -107.5q-13 -97 -23.5 -184.5t-11.5 -162.5q-1 -55 4 -97.5t18 -61.5t35.5 -10t55.5 57q52 78 98 212q20 57 35 112.5t25.5 99.5t15.5 71t5 28q2 8 9 13t15 3t13 -9t3 -15l-5.5 -27.5t-16 -72t-26 -101.5t-35.5 -115q-87 -251 -193 -310q-11 -16 -20 -38.5t-15 -45.5
t-7 -44t5 -34t20 -16t38 10q8 4 15.5 4.5t13.5 -5.5zM412 468q62 2 124.5 3.5t121.5 8.5q4 41 7 79.5t4 73.5q0 18 0.5 43.5t-2 53t-9 55t-18.5 49t-30.5 35t-46.5 13.5q-106 0 -182 -82q-48 -52 -82 -137t-55 -201q39 3 81 4z" />
    <glyph glyph-name="Scedilla" unicode="&#x15e;" horiz-adv-x="817" 
d="M845 331q8 -2 12 -9.5t2 -15.5q-22 -79 -108 -128l-26 -13q64 -95 64 -202q1 -71 -40 -134q-36 -52 -102 -92q-35 -20 -78 -35.5t-88.5 -21t-90.5 0.5t-83 29q-32 17 -51 48t-19 72q0 144 108 224q46 34 102.5 55t114.5 39q-22 26 -47 51.5l-51 52.5l-97 101t-87 112
q-5 6 -8.5 12.5t-7.5 12.5l-55 -21q-34 -12 -64 -24.5t-52 -29.5t-34.5 -41.5t-12.5 -61.5q0 -8 -6 -14t-14 -6t-14 6t-6 14q0 84 61 133q26 21 59 34.5l69 27.5l50 18q-55 110 -55 228q0 57 20 105q21 45 58 70q27 17 58 21t59 -5t49 -31t29 -56q6 -29 5.5 -64.5
t-7.5 -76.5q-18 -98 -83 -159q34 -65 84.5 -117.5t104.5 -102.5l70 -67t64 -72q45 20 76.5 48t43.5 71q2 8 9 12t15 2zM277 -170q0 -56 50 -86q31 -17 67 -17.5t71.5 11.5t69 35t59 53t40.5 65t15 72q0 40 -16 77.5t-44 74.5l-10 -3q-57 -18 -112 -38t-98 -52
q-48 -35 -70 -81.5t-22 -110.5zM421 723q7 36 7 68.5t-5 57.5q-2 9 -6.5 20.5t-12 19.5t-17 10t-20.5 -7q-4 -3 -10.5 -11.5t-12.5 -24.5t-10 -41t-4 -62q0 -45 8 -83.5t22 -73.5q22 23 37.5 53.5t23.5 73.5zM306 -517q15 0 26.5 19t17 44t4 49.5t-13.5 35.5q-6 6 -9 12.5
t1 14.5t11.5 10t15.5 -2q22 -12 35 -32.5t17.5 -44.5t1 -48.5t-14 -44.5t-28 -32.5t-40.5 -12.5q-19 0 -26 5t-7.5 11t3 11t6.5 5z" />
    <glyph glyph-name="uni0162" unicode="&#x162;" horiz-adv-x="864" 
d="M1296 942q8 -2 12 -9t2 -15q-16 -71 -81 -119q-57 -40 -146 -62q-85 -20 -188 -26.5t-208 -11.5h-14.5t-14.5 -1q-2 -32 -4 -68.5t-5 -75.5q-7 -109 -13.5 -225.5t-5.5 -224.5q0 -32 1 -70t3.5 -73.5t7 -65t12 -45.5t18.5 -15.5t26 26.5q23 38 46.5 91t47.5 121
q42 116 57.5 174.5t15.5 60.5q2 8 9 12.5t15 2.5t12.5 -9t2.5 -15q0 -2 -16 -61.5t-58 -177.5q-50 -138 -98 -220q-64 -108 -126 -109h-2q-30 0 -51 24q-31 32 -46 111t-17 214q-1 112 5.5 235t13.5 238q6 75 9 138q-67 -4 -129.5 -11.5t-117 -21.5t-98.5 -36t-74 -54
q-57 -62 -53 -163q0 -19 -19 -21h-1q-8 0 -14 6t-6 14q-3 59 14 108q15 46 49 83q44 47 114 76q60 25 149 40q44 8 91 13t97 8q2 24 2 45v39q0 17 21 32t46.5 19.5t48 -6.5t24.5 -45q1 -17 0.5 -36.5t-2.5 -41.5q48 2 107.5 6t122.5 12t125.5 21t114.5 33t89.5 49t52.5 68
q3 8 9.5 12.5t14.5 2.5zM556 -517q15 0 26.5 19t17 44t4 49.5t-13.5 35.5q-6 6 -9 12.5t1 14.5t11.5 10t15.5 -2q22 -12 35 -32.5t17.5 -44.5t1 -48.5t-14 -44.5t-28 -32.5t-40.5 -12.5q-19 0 -26 5t-7.5 11t3 11t6.5 5z" />
    <glyph glyph-name="Lslash" unicode="&#x141;" horiz-adv-x="1298" 
d="M1326 333q8 -1 13 -7.5t4 -14.5q-26 -175 -93 -282q-14 -21 -31.5 -42t-39 -37.5t-47.5 -27t-56 -10.5q-37 0 -75.5 12t-78 31.5t-79.5 44l-79 50.5l-38 25q-17 -25 -38.5 -40.5t-48.5 -24t-58.5 -11.5t-66.5 -3q-43 0 -71.5 21t-37.5 51q-5 16 -3.5 35t11 36.5t28 32.5
t47.5 25q31 10 65 4t72 -23v6q2 37 0 79.5t-7 88.5q-45 -8 -75.5 -12.5t-31.5 -4.5q-5 0 -9 2q-12 5 -12 17q-1 8 5.5 12.5t13.5 8.5q7 5 35 18l66 31l-6 44l-6 45.5t-5 44.5q-51 -17 -105.5 -28t-109.5 -21q-62 -11 -118 -22.5t-101 -31.5q-48 -22 -73.5 -52t-33.5 -73
q-2 -8 -8.5 -13t-14.5 -3t-13 8.5t-3 14.5q18 103 130 154q48 22 106.5 34.5t121.5 23.5q57 10 112 21t105 29q-6 66 -6 122t13 98q14 42 40.5 68.5t62.5 33.5q26 4 49 -3t44 -22l13 -14q22 -28 24 -64.5t-15 -76.5q-30 -68 -88 -114q2 -35 6.5 -70.5l9.5 -71.5q31 14 53 25
t28 16q10 7 26 -4t28 -30t15 -40t-12 -34q-11 -9 -44.5 -18.5t-77.5 -19.5q5 -33 9 -67t4.5 -67.5t-4 -65t-16.5 -59.5q30 -21 70.5 -41t84.5 -36t89.5 -25t86.5 -7q54 2 93 33.5t65.5 77t42 98t21.5 96.5q2 8 8.5 13t14.5 3zM477 43q30 -14 76 -1q33 9 51 45q10 20 16 49
l-7 3q-51 24 -86 24q-7 0 -13.5 -1t-12.5 -3q-39 -14 -51.5 -37t-6.5 -43q8 -24 34 -36zM776 757q10 23 9.5 47t-7.5 35.5t-19.5 4t-25.5 -46.5q-7 -23 -9.5 -53.5t-1.5 -65.5q17 17 30.5 36.5t23.5 42.5z" />
    <glyph glyph-name="lslash" unicode="&#x142;" horiz-adv-x="503" 
d="M532 335q8 -2 13 -9t3 -15q0 -1 -7 -28.5l-19 -72t-29.5 -101t-38.5 -115.5q-51 -139 -104 -220q-11 -17 -25.5 -36t-32 -35t-38.5 -26t-45 -10q-57 0 -101 55q-37 48 -63 134q-1 1 -1 4l-55 -28l-24 -12q-4 -1 -9 -1q-13 2 -17 13q-3 8 2 14l10 12t26 26l50 46
q-14 69 -20.5 150.5t-6.5 172.5q0 122 12.5 238.5t35.5 209.5q24 98 58 154q39 67 91 67q27 0 48.5 -10.5t37 -28.5t25.5 -41.5t15 -48.5q11 -62 -2 -134.5t-48 -141.5q-19 -38 -43 -70t-53 -60q-8 -8 -17 -15.5l-18 -15.5q-6 -133 3 -257l2 -28.5t3 -28.5l35.5 34l19.5 19
q7 10 26 4t36 -20t26.5 -33.5t-1.5 -36.5q-8 -12 -43.5 -35t-81.5 -48q10 -53 24 -96t33 -65t42 -17.5t51 48.5q49 76 99 212q21 58 38 113.5t29 99.5t18.5 71l6.5 27q2 8 9 13t15 3zM283 786q-6 42 -16 50.5t-22 -5t-24.5 -44.5t-23.5 -69t-20 -77.5t-14 -70.5
q-6 -38 -10.5 -77.5t-7.5 -80.5q55 51 92 123q32 62 44 129t2 122z" />
    <glyph glyph-name="dcroat" unicode="&#x111;" horiz-adv-x="713" 
d="M746 334q18 -7 13 -26q-1 -2 -8 -21.5t-20 -51t-31 -71.5t-41 -82q-99 -185 -197 -224h-1q-25 -11 -49 -11h-2q-37 0 -64 24q-26 23 -44 63q-27 61 -36 165l-39.5 -34.5t-39.5 -29.5t-42 -21.5t-47 -10.5q-42 -1 -73 28q-47 45 -47 160q0 85 31 137q31 53 82 64
q29 6 58.5 -3t58.5 -32q30 -24 55 -61q4 69 12.5 140t22.5 139q-23 5 -36.5 8.5t-14.5 4.5q-5 2 -7 5q-9 11 -5 20q3 8 10.5 9.5t15.5 2.5q5 1 17.5 1.5t31.5 2.5l1 2q29 124 67 197q45 88 98 94q33 3 52 -8t29 -23q40 -55 9 -202q-3 -13 -5.5 -25t-6.5 -25q20 2 34.5 2.5
t19.5 2.5q12 3 22.5 -13.5t14.5 -38.5t-1.5 -43t-24.5 -27q-11 -3 -37.5 -1t-61.5 8l-21.5 -57.5t-20.5 -50.5q-14 -33 -33 -69.5t-42 -73.5q0 -9 -1 -13q-2 -44 -1.5 -93.5t4 -95t11.5 -83t22 -57.5t34.5 -18.5t49.5 34.5q50 53 102 149q22 41 40 80.5t30.5 70t19.5 50
l7 19.5q3 8 10 11.5t15 1.5zM118 176q0 -60 10 -85t29 -23.5t45.5 25t59.5 60.5q-1 16 -1 32.5v33.5q-12 18 -26 44t-30 42.5t-33.5 14.5t-35.5 -40q-18 -42 -18 -104zM527 698q13 58 15.5 86t-2.5 32.5t-15.5 -10t-22.5 -41t-24.5 -61t-21.5 -69.5l56 2zM435 545
q-8 -42 -14 -86t-11 -88q9 17 16.5 33l14.5 32q9 21 18.5 46.5l19.5 53.5z" />
    <glyph glyph-name="Dcroat" unicode="&#x110;" horiz-adv-x="1447" 
d="M1485 332q8 -4 11 -11t-1 -15q-19 -46 -59 -81q-36 -30 -86 -52q-29 -12 -61 -21.5t-67 -17.5q-12 -60 -29 -114.5t-40 -102.5q-50 -110 -121 -172q-80 -68 -176 -68q-62 0 -108 30t-65 82q-21 54 -2 115q20 64 79 112q66 56 175 92q36 12 73.5 21t75.5 17q9 47 15 95.5
t8 99.5q4 93 -5 178t-30 153q-45 146 -110 158.5t-151 -103.5q-76 -105 -138 -289q-14 -42 -26 -83.5l-23 -80.5q40 -2 68.5 -3t35.5 -3q8 -1 15.5 -2.5t10.5 -9.5q4 -9 -5 -20q-2 -3 -7 -5q-2 -1 -40.5 -9l-94.5 -19q-13 -56 -20.5 -99t-12.5 -65q-6 -27 -27.5 -35.5
t-46 -5t-44.5 15t-22 24.5q0 1 -3 37t-7 96q-38 -5 -65.5 -7t-38.5 1q-19 6 -24.5 27t-1.5 43t14.5 38.5t22.5 13.5q6 -2 30 -3t58 -3q-1 17 -1.5 34.5t-0.5 35.5q-2 71 -2.5 132t1.5 113q-18 -6 -36.5 -11.5l-37.5 -11.5q-59 -18 -112 -37t-94 -46q-45 -29 -65.5 -65.5
t-20.5 -84.5q0 -8 -6 -14t-14 -6t-14 6t-6 14q0 116 104 184q45 29 101.5 49t114.5 38l44.5 13.5t43.5 14.5q6 125 27 185q15 49 50 79q31 28 70 34q31 5 57.5 -4.5t43.5 -30.5q6 -7 11.5 -18t7.5 -26.5t-1 -36t-14 -45.5q-17 -39 -46 -67.5t-65 -50.5q-3 -43 -4 -91
t-1 -97.5t1.5 -98.5t3.5 -95q6 -1 12 -0.5t12 -0.5l23.5 86.5t28.5 89.5q32 95 68 170t76 130q20 27 44 52.5t52.5 45.5t61.5 32t69 12q59 0 106 -39.5t79 -115.5q28 -66 42.5 -152.5t14.5 -186.5q0 -114 -18 -222q28 7 54.5 15t49.5 18q48 20 78 47.5t47 64.5
q3 8 10.5 10.5t15.5 -0.5zM720 -197q36 -44 76 -48.5t79 18t74.5 64t63 89.5t44 95.5t17.5 81.5q-80 -17 -155 -43t-134 -75q-47 -39 -64.5 -87.5t-0.5 -94.5zM633 792q15 33 13.5 54t-11.5 25.5t-25 -9.5t-27 -50q-7 -20 -11.5 -45.5t-8.5 -57.5q23 17 41 37.5t29 45.5z
" />
    <glyph glyph-name="Eth" unicode="&#xd0;" horiz-adv-x="1447" 
d="M1485 332q8 -4 11 -11t-1 -15q-19 -46 -59 -81q-36 -30 -86 -52q-29 -12 -61 -21.5t-67 -17.5q-12 -60 -29 -114.5t-40 -102.5q-50 -110 -121 -172q-80 -68 -176 -68q-62 0 -108 30t-65 82q-21 54 -2 115q20 64 79 112q66 56 175 92q36 12 73.5 21t75.5 17q9 47 15 95.5
t8 99.5q4 93 -5 178t-30 153q-45 146 -110 158.5t-151 -103.5q-76 -105 -138 -289q-14 -42 -26 -83.5l-23 -80.5q40 -2 68.5 -3t35.5 -3q8 -1 15.5 -2.5t10.5 -9.5q4 -9 -5 -20q-2 -3 -7 -5q-2 -1 -40.5 -9l-94.5 -19q-13 -56 -20.5 -99t-12.5 -65q-6 -27 -27.5 -35.5
t-46 -5t-44.5 15t-22 24.5q0 1 -3 37t-7 96q-38 -5 -65.5 -7t-38.5 1q-19 6 -24.5 27t-1.5 43t14.5 38.5t22.5 13.5q6 -2 30 -3t58 -3q-1 17 -1.5 34.5t-0.5 35.5q-2 71 -2.5 132t1.5 113q-18 -6 -36.5 -11.5l-37.5 -11.5q-59 -18 -112 -37t-94 -46q-45 -29 -65.5 -65.5
t-20.5 -84.5q0 -8 -6 -14t-14 -6t-14 6t-6 14q0 116 104 184q45 29 101.5 49t114.5 38l44.5 13.5t43.5 14.5q6 125 27 185q15 49 50 79q31 28 70 34q31 5 57.5 -4.5t43.5 -30.5q6 -7 11.5 -18t7.5 -26.5t-1 -36t-14 -45.5q-17 -39 -46 -67.5t-65 -50.5q-3 -43 -4 -91
t-1 -97.5t1.5 -98.5t3.5 -95q6 -1 12 -0.5t12 -0.5l23.5 86.5t28.5 89.5q32 95 68 170t76 130q20 27 44 52.5t52.5 45.5t61.5 32t69 12q59 0 106 -39.5t79 -115.5q28 -66 42.5 -152.5t14.5 -186.5q0 -114 -18 -222q28 7 54.5 15t49.5 18q48 20 78 47.5t47 64.5
q3 8 10.5 10.5t15.5 -0.5zM720 -197q36 -44 76 -48.5t79 18t74.5 64t63 89.5t44 95.5t17.5 81.5q-80 -17 -155 -43t-134 -75q-47 -39 -64.5 -87.5t-0.5 -94.5zM633 792q15 33 13.5 54t-11.5 25.5t-25 -9.5t-27 -50q-7 -20 -11.5 -45.5t-8.5 -57.5q23 17 41 37.5t29 45.5z
" />
    <glyph glyph-name="AE" unicode="&#xc6;" horiz-adv-x="1216" 
d="M1243 338q8 -2 13 -9t3 -15q-24 -124 -69 -220t-109 -160q-42 -42 -97.5 -68t-112.5 -29t-110.5 20.5t-92.5 79.5q-31 45 -44 101.5t-8 122.5q5 68 17 136t20 142q-57 -6 -118 -7.5t-123 -3.5l-91 -2t-83 -4q-7 -41 -11.5 -84.5t-7.5 -91.5q-5 -75 -4.5 -143t2 -119.5
t4 -82t2.5 -31.5q1 -8 -4.5 -14.5t-13.5 -7.5t-14.5 4.5t-7.5 13.5q0 1 -2.5 32t-4 83.5t-1.5 121t5 145.5q2 45 6.5 87.5t9.5 82.5q-12 -2 -24 -3.5t-23 -3.5q-34 -7 -53.5 -16t-30 -18.5t-13.5 -19.5t-3 -19q0 -8 -6 -14t-14 -6t-14 6t-6 14q0 48 40 76q31 24 92 36
q28 6 62 9q5 28 10.5 54.5t12.5 51.5q22 86 53.5 151.5t72.5 110.5q38 42 90.5 66t108 29t107 -10.5t87.5 -51.5q29 35 65 54t77 19q37 0 72.5 -18.5t49.5 -56.5q3 -9 4.5 -21.5t-3 -27.5t-16 -32.5t-34.5 -35.5q-24 -19 -58 -39l-76 -43q1 -10 3 -19l4 -18q14 -43 46 -78.5
t66 -50.5q15 -7 12 -20t-11 -17q-38 -19 -71 -52t-58.5 -73.5t-41.5 -85.5t-19 -87q-6 -81 17 -143.5t65.5 -93.5t98.5 -23.5t116 65.5q60 60 102 150.5t65 208.5q2 8 8.5 13t14.5 3zM412 468q62 2 124.5 3.5t121.5 8.5q4 41 7 79.5t4 73.5q0 18 0.5 43.5t-2 53t-9 55
t-18.5 49t-30.5 35t-46.5 13.5q-106 0 -182 -82q-48 -52 -82 -137t-55 -201q39 3 81 4zM971 845q-14 30 -32.5 31t-37 -14.5t-34.5 -40t-24 -44.5q-13 -34 -18 -73l62 36t48 33q8 6 16 14.5t14 17.5t8 19t-2 21z" />
    <glyph glyph-name="ae" unicode="&#xe6;" horiz-adv-x="597" 
d="M636 329q8 -4 10 -11.5t-2 -15.5q-29 -57 -60.5 -112t-63.5 -98l-29 -34t-33 -30.5t-38.5 -22.5t-44.5 -9q-35 0 -63 28.5t-47 82.5q-7 18 -11.5 37.5t-7.5 39.5q-14 -27 -34 -56t-44.5 -53.5t-52 -40t-57.5 -15.5q-12 1 -27 8t-27.5 26t-21.5 52t-9 86q0 83 29 135
q30 51 78 63q42 11 86.5 -6.5t78.5 -59.5q3 19 8 37t12 36q10 23 22 40.5t28 29.5q30 24 66 30q36 5 62 -8q20 -10 31.5 -27.5t11.5 -40.5q0 -58 -109 -106q2 -24 3.5 -57.5t5 -66.5t10.5 -61t19 -41.5t29.5 -9t43.5 37.5q31 42 61.5 95.5l59.5 108.5q4 8 11.5 10.5
t15.5 -1.5zM166 137q20 28 37 62t31 72q-2 2 -2 3q-26 43 -48 51.5t-37.5 -7t-24.5 -50t-9 -78.5q0 -29 2 -51.5t8 -32.5t16 -4t27 35zM386 362q20 10 32 19.5t18 17t8 13t2 8.5q0 12 -1.5 13.5t-9.5 -1.5q-33 -14 -49 -70z" />
    <glyph glyph-name="OE" unicode="&#x152;" horiz-adv-x="1462" 
d="M1490 338q8 -2 13 -9t3 -15q-24 -124 -69 -220t-109 -160q-42 -42 -97.5 -68t-112.5 -29t-110.5 20.5t-92.5 79.5q-40 58 -51 137q-8 -8 -17.5 -15.5t-18.5 -13.5q-78 -51 -168 -51q-81 0 -147 39.5t-112 116.5q-39 66 -60 152q-9 41 -14 82.5t-5 84.5q0 34 3 66l-28 -11
q-50 -19 -96 -38.5t-81 -43.5t-56 -53.5t-19 -69.5q1 -8 -5 -14.5t-14 -6.5q-8 -1 -14 5t-7 14q-3 91 88 155q39 27 88.5 48l100.5 41q12 5 24.5 9.5t24.5 9.5q12 77 41 135q27 52 63 82q43 32 91 32q26 0 44.5 -11.5t24.5 -31.5q5 -12 3.5 -32t-17.5 -47q-26 -45 -85 -87
q-8 -7 -19 -13q-12 -53 -14.5 -114t6.5 -124q15 -104 56 -178t96 -109t118 -26.5t122 69.5q0 9 0.5 18t1.5 18q3 34 10 65t19 60q-26 8 -50 18.5t-47 24.5q-25 16 -47 34.5t-42 41.5q-19 23 -35 48t-28 53q-24 52 -33 110q-8 55 -3 106.5t25 93.5q21 46 54 71q37 28 85 28
q61 0 110.5 -23t86.5 -68q4 7 8 13l9 13q29 41 67.5 62t81.5 21q37 0 72.5 -18.5t49.5 -56.5q3 -9 4.5 -21.5t-3 -27.5t-16 -32.5t-34.5 -35.5q-24 -19 -58 -39l-76 -43q1 -10 3 -19l4 -18q14 -43 46 -78.5t66 -50.5q15 -7 12 -20t-11 -17q-32 -16 -64 -44t-58.5 -66
t-45 -85.5t-22.5 -102.5q-6 -81 17 -143.5t65.5 -93.5t98.5 -23.5t116 65.5q60 60 102 150.5t65 208.5q2 8 8.5 13t14.5 3zM752 647q4 -39 16.5 -79.5t34.5 -78t54.5 -71t75.5 -58.5q41 53 100 87l26 14q-13 5 -30 17q-27 19 -47 48.5t-32 64t-16 71.5t2 71q5 27 13 49
q-40 60 -78.5 71.5t-67 -12t-43.5 -75.5t-8 -119zM1218 845q-14 30 -32.5 31t-37 -14.5t-34.5 -40t-24 -44.5q-13 -34 -18 -73l62 36t48 33q8 6 16 14.5t14 17.5t8 19t-2 21zM496 671q16 14 31 29t24.5 28t12 23t-4.5 13q-11 5 -20 -3t-16.5 -23t-14 -33.5t-12.5 -33.5z" />
    <glyph glyph-name="oe" unicode="&#x153;" horiz-adv-x="585" 
d="M623 329q8 -4 10 -11.5t-2 -15.5q-29 -57 -60.5 -112t-63.5 -98l-29 -34t-33 -30.5t-38.5 -22.5t-44.5 -9q-35 0 -63 28.5t-47 82.5q-4 9 -7 20q-2 -5 -5 -8.5t-5 -7.5q-20 -26 -47.5 -40.5t-59.5 -14.5q-38 0 -68.5 13t-53.5 37q-20 21 -30 49t-10 60t11 62t31 53
q47 53 126 53q30 0 54 -10.5t49 -27.5q3 13 6.5 25.5t8.5 25.5q10 23 22 40.5t28 29.5q30 24 66 30q36 5 62 -8q20 -10 31.5 -27.5t11.5 -40.5q0 -58 -109 -106q1 -24 3 -57.5t5.5 -66.5t10.5 -61t19 -41.5t29.5 -9t43.5 37.5q31 42 61.5 95.5l59.5 108.5q4 8 11.5 10.5
t15.5 -1.5zM109 204q4 -42 22.5 -60.5t39.5 -15.5t38.5 25.5t19.5 62.5q-1 9 -1.5 18t-0.5 19q-6 34 -22 55q-12 15 -27 24q-20 -9 -34 -23.5t-22.5 -31.5t-11.5 -36t-1 -37zM373 362q20 10 32 19.5t18 17t8 13t2 8.5q0 12 -1.5 13.5t-9.5 -1.5q-33 -14 -49 -70z" />
    <glyph glyph-name="germandbls" unicode="&#xdf;" horiz-adv-x="632" 
d="M587 322q19 -39 19 -99q0 -68 -34 -115q-31 -44 -85 -70q-63 -29 -140 -29h-14t-14 1q-45 4 -82 17t-63 33q-6 5 -6.5 13.5t4.5 15.5q5 6 13 6.5t15 -4.5q39 -30 85 -35.5t86.5 11.5t67.5 56.5t27 99.5q0 51 -14 81t-37.5 46.5t-52.5 23t-59 11.5q-21 3 -40 6.5t-35 11.5
q-40 20 -40 63q0 26 14 52t33 56l26 42t23.5 46t17 50.5t6.5 56.5q0 19 -4 39t-13 36t-23.5 26t-34.5 10q-33 0 -67.5 -16t-62.5 -44.5t-45.5 -68t-17.5 -87.5v-963q0 -8 -6 -14t-14 -6t-14 6t-6 14v963q0 58 25 113q25 48 66 82q38 32 85.5 49.5t96.5 17.5q74 0 121 -38
q54 -43 54 -119q0 -34 -7.5 -64t-19 -57t-25.5 -50.5l-27 -44.5q-17 -26 -29 -48t-12 -39q0 -19 17 -27t64 -15q32 -5 66 -13t63 -28q33 -25 49 -61z" />
    <glyph glyph-name="l" unicode="l" horiz-adv-x="503" 
d="M532 335q8 -2 13 -9t3 -15q0 -1 -7 -28.5l-19 -72t-29.5 -101t-38.5 -115.5q-51 -139 -104 -220q-11 -17 -25.5 -36t-32 -35t-38.5 -26t-45 -10q-57 0 -101 55q-37 48 -63 134q-22 76 -33.5 178t-11.5 219q0 122 12.5 238.5t35.5 209.5q24 98 58 154q39 67 91 67
q27 0 48.5 -10.5t37 -28.5t25.5 -41.5t15 -48.5q11 -62 -2 -134.5t-48 -141.5q-19 -38 -43 -70t-53 -60q-8 -8 -17 -15.5l-18 -15.5q-6 -133 3 -257q4 -49 11 -101.5t17.5 -99.5t24.5 -84t31.5 -54.5t39.5 -11t48 47.5q49 76 99 212q21 58 38 113.5t29 99.5t18.5 71l6.5 27
q2 8 9 13t15 3zM283 786q-6 42 -16 50.5t-22 -5t-24.5 -44.5t-23.5 -69t-20 -77.5t-14 -70.5q-6 -38 -10.5 -77.5t-7.5 -80.5q55 51 92 123q32 62 44 129t2 122z" />
    <glyph glyph-name="c" unicode="c" horiz-adv-x="375" 
d="M413 329q8 -4 10 -11.5t-2 -15.5l-28 -56l-55 -104t-60 -92q-73 -94 -156 -94q-56 0 -94 50q-17 20 -28.5 48t-18.5 61q-8 41 -7.5 82.5t10.5 78.5q9 39 29 68q22 31 53 45q30 13 51 7.5t34 -15.5q20 -16 30.5 -38.5t15.5 -41.5q6 -23 7 -49t-2 -49q-2 -8 -8.5 -13
t-14.5 -4q-8 2 -13 8.5t-4 14.5q3 20 2 46.5t-6.5 42t-14.5 11.5t-21 -43q-12 -44 -9 -99q3 -45 13 -80t26.5 -51t40 -8.5t54.5 47.5q29 38 55.5 87l54.5 103l29 55q4 8 11.5 10.5t15.5 -1.5z" />
    <glyph glyph-name="i" unicode="i" horiz-adv-x="274" 
d="M299 329q-8 2 -14.5 -3.5t-8.5 -13.5l-3.5 -20t-10 -51.5t-16.5 -71.5t-22 -81q-43 -141 -68 -132.5t-25 181.5q1 67 4.5 106t3.5 40q1 27 -20 41t-46.5 18t-47.5 -1.5t-24 -18.5q0 -2 -2 -22.5t-4 -52.5t-3 -72t0 -80q3 -98 21 -156q12 -43 35 -65t49.5 -24t53.5 16
t47 54q17 28 33 67t32 90q13 42 22.5 83t16 73t10 52.5l3.5 20.5q2 8 -3 14.5t-13 8.5zM128 499q0 -20 -14.5 -34t-36.5 -14q-20 0 -34.5 14t-14.5 34q0 21 14.5 35t34.5 14q22 0 36.5 -14t14.5 -35z" />
    <glyph glyph-name="period" unicode="." horiz-adv-x="215" 
d="M158 49q0 -20 -14.5 -34t-36.5 -14q-20 0 -34.5 14t-14.5 34q0 21 14.5 35t34.5 14q22 0 36.5 -14t14.5 -35z" />
    <glyph glyph-name="colon" unicode=":" horiz-adv-x="232" 
d="M166 49q0 -20 -14.5 -34t-36.5 -14q-20 0 -34.5 14t-14.5 34q0 21 14.5 35t34.5 14q22 0 36.5 -14t14.5 -35zM166 389q0 -20 -14.5 -34t-36.5 -14q-20 0 -34.5 14t-14.5 34q0 21 14.5 35t34.5 14q22 0 36.5 -14t14.5 -35z" />
    <glyph glyph-name="semicolon" unicode=";" horiz-adv-x="213" 
d="M54 -54q15 0 26.5 19t17 44t4 49.5t-13.5 35.5q-6 6 -9 12.5t1 14.5t11.5 10t15.5 -2q22 -12 35 -32.5t17.5 -44.5t1 -48.5t-14 -44.5t-28 -32.5t-40.5 -12.5q-19 0 -26 5t-7.5 11t3 11t6.5 5zM166 389q0 -20 -14.5 -34t-36.5 -14q-20 0 -34.5 14t-14.5 34q0 21 14.5 35
t34.5 14q22 0 36.5 -14t14.5 -35z" />
    <glyph glyph-name="hyphen" unicode="-" horiz-adv-x="373" 
d="M62 308q10 2 40 5l63.5 6.5t63 7t40.5 6.5q13 3 24 -13t15 -38t-1 -43t-24 -27q-12 -4 -33.5 -4t-47.5 1.5t-52.5 5l-48.5 6.5t-36.5 5.5t-15.5 3.5q-5 1 -8 5q-7 7 -7 18.5t4 23.5t11 21t13 10z" />
    <glyph glyph-name="quotesingle" unicode="'" horiz-adv-x="214" 
d="M65 388q-2 10 -5 40l-6.5 63.5t-7 63t-6.5 40.5q-3 13 13 24t38 15t43 -1t27 -24q4 -12 4 -33.5t-1.5 -47.5t-5 -52.5l-6.5 -48.5t-6 -36.5t-3 -15.5q-2 -5 -5 -8q-7 -7 -18.5 -7t-23.5 4t-21 11t-10 13z" />
    <glyph glyph-name="quotedbl" unicode="&#x22;" horiz-adv-x="429" 
d="M84 388q-2 10 -5 40l-6.5 63.5t-7 63t-6.5 40.5q-3 13 13 24t38 15t43 -1t27 -24q4 -12 4 -33.5t-1.5 -47.5t-5 -52.5l-6.5 -48.5t-6 -36.5t-3 -15.5q-2 -5 -5 -8q-7 -7 -18.5 -7t-23.5 4t-21 11t-10 13zM264 388q-2 10 -5 40l-6.5 63.5t-7 63t-6.5 40.5q-3 13 13 24
t38 15t43 -1t27 -24q4 -12 4 -33.5t-1.5 -47.5t-5 -52.5l-6.5 -48.5t-6 -36.5t-3 -15.5q-2 -5 -5 -8q-7 -7 -18.5 -7t-23.5 4t-21 11t-10 13z" />
    <glyph glyph-name="equal" unicode="=" horiz-adv-x="541" 
d="M76 485q7 1 33.5 3t62.5 4l77 4.5t77.5 5t63 4.5t33.5 4q13 3 24 -13t15 -38t-1 -43t-24 -27q-12 -4 -44 -4t-73.5 1.5t-86 5l-82 6.5t-62.5 5.5t-26 3.5q-5 1 -8 5q-7 7 -7 18.5t4 23.5t11 21t13 10zM76 315q7 1 33.5 3t62.5 4l77 4.5t77.5 5t63 4.5t33.5 4q13 3 24 -13
t15 -38t-1 -43t-24 -27q-12 -4 -44 -4t-73.5 1.5t-86 5l-82 6.5t-62.5 5.5t-26 3.5q-5 1 -8 5q-7 7 -7 18.5t4 23.5t11 21t13 10z" />
    <glyph glyph-name="exclam" unicode="!" horiz-adv-x="215" 
d="M68 228q-1 7 -3 44t-4 88.5l-4.5 110.5t-5 111t-4.5 89t-4 44q-3 13 13 24t38 15t43 -1t27 -24q4 -12 4 -54.5t-1.5 -99t-5 -120l-6.5 -116.5t-6 -88t-3 -36q-2 -5 -5 -8q-7 -7 -18.5 -7t-23.5 4t-21 11t-10 13zM152 49q0 -20 -14.5 -34t-36.5 -14q-20 0 -34.5 14
t-14.5 34q0 21 14.5 35t34.5 14q22 0 36.5 -14t14.5 -35z" />
    <glyph glyph-name="exclamdown" unicode="&#xa1;" horiz-adv-x="215" 
d="M145 273q-1 6 -10 13t-21 11t-23.5 4t-18.5 -7q-4 -4 -5 -8q-1 -1 -3.5 -36t-5.5 -88l-6.5 -116.5t-5 -120t-1.5 -99t4 -54.5q6 -19 27 -24t43 -1t38 15t13 24q-2 7 -4 44t-4.5 89t-5 111l-4.5 110.5t-4 88.5t-3 44zM61 452q0 20 14.5 34t36.5 14q20 0 34.5 -14t14.5 -34
q0 -21 -14.5 -35t-34.5 -14q-22 0 -36.5 14t-14.5 35z" />
    <glyph glyph-name="underscore" unicode="_" horiz-adv-x="666" 
d="M64 -132q7 1 44 3t88.5 4l110.5 4.5t111 5t89 4.5t44 4q13 3 24 -13t15 -38t-1 -43t-24 -27q-12 -4 -54.5 -4t-99 1.5t-120 5l-116.5 6.5t-88 5.5t-36 3.5q-5 1 -8 5q-7 7 -7 18.5t4 23.5t11 21t13 10z" />
    <glyph glyph-name="bar" unicode="|" horiz-adv-x="229" 
d="M73 -121q-1 5 -2.5 37.5t-3 82t-3 111.5t-3.5 126.5t-3.5 126.5t-3.5 112t-3.5 82.5t-2.5 37.5q-3 13 13 24t38 15t43 -1t27 -24q3 -9 3.5 -45.5t0 -90t-2 -119.5t-4 -133l-5 -130.5l-4.5 -113.5t-4 -80t-2 -31q-2 -5 -5 -8q-7 -7 -18.5 -7t-23.5 4t-21 11t-10 13z" />
    <glyph glyph-name="plus" unicode="+" horiz-adv-x="441" 
d="M180 143q-2 8 -4.5 39.5t-4.5 73.5q-26 2 -49.5 4.5l-41.5 4.5t-28.5 3.5t-11.5 1.5q-5 1 -8 5q-7 7 -7 18.5t4 23.5t11 21t13 10q8 2 39 4t72 5q-3 34 -5 59.5t-4 33.5q-3 13 13 24t38 15t43 -1t27 -24q3 -11 3.5 -38t-1.5 -61q30 2 52 4t30 4q13 3 24 -13t15 -38
t-1 -43t-24 -27q-12 -4 -40 -4.5t-63 1.5q-2 -24 -4.5 -45.5t-4 -37.5t-3 -26l-1.5 -10q-2 -5 -5 -8q-7 -7 -18.5 -7t-23.5 4t-21 11t-10 13z" />
    <glyph glyph-name="numbersign" unicode="#" horiz-adv-x="613" 
d="M302 136q0 5 3.5 28l8.5 55l-105 7l-23.5 -86.5t-10.5 -35.5l-3.5 -3.5t-3.5 -2.5q-8 -5 -19.5 -2t-22 9.5t-17.5 15.5t-7 15t4 32l10 64q-20 2 -32.5 3t-13.5 2q-5 1 -8 5q-7 7 -7 18.5t4 23.5t11 21t13 10q4 1 16 1.5t30 1.5l13 82q-32 2 -51.5 4t-20.5 3q-5 1 -8 5
q-7 7 -7 18.5t4 23.5t11 21t13 10q5 1 24.5 2t48.5 3l17 121q0 13 18 19.5t40.5 5.5t41.5 -11t20 -30q1 -10 -4 -36t-13 -63l81 3q7 44 11 74.5t5 37.5q0 13 18 19.5t40.5 5.5t41.5 -11t20 -30q0 -9 -3.5 -32.5t-11.5 -56.5q12 1 20.5 2t11.5 2q13 3 24 -13t15 -38t-1 -43
t-24 -27q-8 -2 -28 -3.5t-47 -0.5l-12 -51q29 2 48.5 3t24.5 3q13 3 24 -13t15 -38t-1 -43t-24 -27q-11 -4 -43 -4.5t-75 1.5l-21.5 -79.5t-9.5 -32.5l-3.5 -3.5t-3.5 -2.5q-8 -5 -19.5 -2t-22 9.5t-17.5 15.5t-7 15zM234 324q23 1 47.5 1.5t48.5 2.5l10 60l-88 5z" />
    <glyph glyph-name="quotesinglbase" unicode="&#x201a;" horiz-adv-x="212" 
d="M54 -54q15 0 26.5 19t17 44t4 49.5t-13.5 35.5q-6 6 -9 12.5t1 14.5t11.5 10t15.5 -2q22 -12 35 -32.5t17.5 -44.5t1 -48.5t-14 -44.5t-28 -32.5t-40.5 -12.5q-19 0 -26 5t-7.5 11t3 11t6.5 5z" />
    <glyph glyph-name="quotedblbase" unicode="&#x201e;" horiz-adv-x="370" 
d="M71 -54q15 0 26.5 19t17 44t4 49.5t-13.5 35.5q-6 6 -9 12.5t1 14.5t11.5 10t15.5 -2q22 -12 35 -32.5t17.5 -44.5t1 -48.5t-14 -44.5t-28 -32.5t-40.5 -12.5q-19 0 -26 5t-7.5 11t3 11t6.5 5zM191 -54q15 0 26.5 19t17 44t4 49.5t-13.5 35.5q-6 6 -9 12.5t1 14.5
t11.5 10t15.5 -2q22 -12 35 -32.5t17.5 -44.5t1 -48.5t-14 -44.5t-28 -32.5t-40.5 -12.5q-19 0 -26 5t-7.5 11t3 11t6.5 5z" />
    <glyph glyph-name="quotedblright" unicode="&#x201d;" horiz-adv-x="375" 
d="M75 447q15 0 26.5 19t17 44t4 49.5t-13.5 35.5q-14 14 -8 27q4 8 11.5 10t15.5 -2q22 -12 35 -32.5t17.5 -44.5t1 -48.5t-14 -44.5t-28 -32.5t-40.5 -12.5q-19 0 -26 5t-7.5 11t3 11t6.5 5zM195 447q15 0 26.5 19t17 44t4 49.5t-13.5 35.5q-14 14 -8 27q4 8 11.5 10
t15.5 -2q22 -12 35 -32.5t17.5 -44.5t1 -48.5t-14 -44.5t-28 -32.5t-40.5 -12.5q-19 0 -26 5t-7.5 11t3 11t6.5 5z" />
    <glyph glyph-name="quotedblleft" unicode="&#x201c;" horiz-adv-x="366" 
d="M299 603q-15 0 -26.5 -19t-17 -44t-4 -49.5t13.5 -35.5q6 -6 9 -12.5t-1 -14.5t-11.5 -10t-15.5 2q-22 12 -35 32.5t-17.5 44.5t-1 48.5t14 44.5t28 32.5t40.5 12.5q19 0 26 -5t7.5 -11t-3 -11t-6.5 -5zM179 603q-15 0 -26.5 -19t-17 -44t-4 -49.5t13.5 -35.5
q6 -6 9 -12.5t-1 -14.5t-11.5 -10t-15.5 2q-22 12 -35 32.5t-17.5 44.5t-1 48.5t14 44.5t28 32.5t40.5 12.5q19 0 26 -5t7.5 -11t-3 -11t-6.5 -5z" />
    <glyph glyph-name="quoteright" unicode="&#x2019;" horiz-adv-x="216" 
d="M57 447q15 0 26.5 19t17 44t4 49.5t-13.5 35.5q-14 14 -8 27q4 8 11.5 10t15.5 -2q22 -12 35 -32.5t17.5 -44.5t1 -48.5t-14 -44.5t-28 -32.5t-40.5 -12.5q-19 0 -26 5t-7.5 11t3 11t6.5 5z" />
    <glyph glyph-name="quoteleft" unicode="&#x2018;" horiz-adv-x="209" 
d="M158 603q-15 0 -26.5 -19t-17 -44t-4 -49.5t13.5 -35.5q6 -6 9 -12.5t-1 -14.5t-11.5 -10t-15.5 2q-22 12 -35 32.5t-17.5 44.5t-1 48.5t14 44.5t28 32.5t40.5 12.5q19 0 26 -5t7.5 -11t-3 -11t-6.5 -5z" />
    <glyph glyph-name="slash" unicode="/" horiz-adv-x="504" 
d="M12 60q1 5 17 43.5l41.5 98l58 133.5l66 151l65.5 151.5l57.5 133.5l41.5 97.5t17 44.5q1 13 20.5 16.5t41.5 -1.5t39 -18t15 -32q-1 -10 -19 -51.5t-47.5 -104l-66 -138.5l-75 -154l-75 -152l-65 -132l-46.5 -93t-19 -36q-2 -2 -4 -3l-4 -2q-9 -3 -20 1.5t-20 13
t-14.5 18t-4.5 15.5z" />
    <glyph glyph-name="Euro" unicode="&#x20ac;" horiz-adv-x="618" 
d="M70 315q5 1 30 3v19v33t2 32q-20 2 -32 3t-13 2q-5 1 -8 5q-7 7 -7 18.5t4 23.5t11 21t13 10l47 4q14 56 34.5 95t40.5 65q39 51 88.5 79.5t99.5 28.5q30 0 56 -11t45 -32q41 -44 41 -122q0 -8 -6 -14t-14 -6t-14 6t-6 14q-3 68 -24.5 89t-50 11.5t-59 -40t-50.5 -66.5
q-11 -20 -20.5 -42.5t-16.5 -46.5l53 4l47 3.5t36 3t20 2.5q13 3 24 -13t15 -38t-1 -43t-24 -27q-9 -3 -28 -3.5t-44.5 -0.5t-55.5 1.5t-61 3.5q-1 -13 -1.5 -26t-0.5 -27v-11l59.5 4l53.5 3.5t41 3t23 3.5q13 3 24 -13t15 -38t-1 -43t-24 -27q-8 -3 -26 -3.5t-42.5 -0.5
t-53 1.5t-58.5 3.5q8 -38 21.5 -69.5t33 -54.5t44.5 -36t56 -13q24 0 47 10.5t41 28.5t28.5 42t10.5 50q0 8 6 14t14 6t14 -6t6 -14q0 -38 -16.5 -71.5t-47.5 -58.5q-29 -23 -65.5 -35t-77.5 -12q-53 0 -99.5 21t-82.5 59q-40 43 -61 105q-4 11 -7 22l-6 23q-23 2 -37.5 3.5
t-15.5 2.5q-5 1 -8 5q-7 7 -7 18.5t4 23.5t11 21t13 10z" />
    <glyph glyph-name="sterling" unicode="&#xa3;" horiz-adv-x="612" 
d="M565 101q8 0 14 -6t6 -14q0 -50 -28 -69q-16 -10 -37 -10q-25 0 -55.5 11.5t-62.5 25.5l-37 15t-36 13.5t-31.5 7t-23.5 -4.5q-8 -6 -11 -19.5t-4 -26.5q0 -7 -10.5 -13.5t-26 -10.5t-33.5 -6t-33.5 0.5t-26 9t-10.5 18.5v28.5t0.5 72t1 100.5t0.5 113q-23 2 -37 4t-15 3
q-5 1 -8 5q-7 7 -7 18.5t4 23.5t11 21t13 10l40 4q1 52 1 95v66q0 82 50 129q22 20 50.5 30.5t60.5 10.5t62.5 -10t54.5 -30q26 -21 40.5 -50t14.5 -63q0 -8 -6 -14t-14 -6q-9 0 -14 6t-6 14q-7 52 -32 75t-52 19.5t-48 -32t-21 -79.5v-62.5t-1 -88.5q38 3 68 6t39 5
q13 3 24 -13t15 -38t-1 -43t-24 -27q-14 -5 -47 -4.5t-74 2.5q-1 -59 -1.5 -115.5t-0.5 -99.5q20 22 49 24.5t61 -6t63.5 -23t56.5 -25t40.5 -12t14.5 14.5q-1 8 5.5 14t14.5 6z" />
    <glyph glyph-name="dollar" unicode="$" horiz-adv-x="486" 
d="M399 361q56 -69 56 -171q0 -88 -60 -140q-52 -46 -128 -46q-1 -20 -1.5 -32t-0.5 -13q-2 -5 -5 -8q-7 -7 -15.5 -7t-16.5 4t-14 11t-7 13q-1 3 -1.5 14.5t-1.5 26.5q-32 11 -55 30q-54 45 -54 117q0 8 6 14t14 6t13.5 -6t6.5 -14q4 -45 23 -68t45 -28l-8 297q-6 4 -9 7
q-29 20 -56.5 42t-50.5 50q-52 64 -52 147q0 69 56 114q38 29 93 38q4 0 7 1q-1 4 -1 8q-3 13 10 24t31 15t36 -1t24 -24q2 -8 2 -25q21 -5 40 -14.5t33 -24.5q39 -42 39 -111q0 -8 -6 -14t-14 -6t-14 6t-6 14q0 53 -28 83q-17 17 -42 22q0 -46 -1 -113.5t-3 -144.5
q1 -1 2 -1l59.5 -41t54.5 -51zM278 290q-2 -58 -3.5 -110.5t-3.5 -95.5q19 16 31.5 42.5t12.5 63.5q0 31 -10 55.5t-27 44.5zM191 530q-2 40 -2.5 76t-1.5 66q-20 -26 -20 -65q0 -24 6.5 -42.5t17.5 -34.5z" />
    <glyph glyph-name="question" unicode="?" horiz-adv-x="367" 
d="M335 645q2 -47 -6 -108t-24.5 -122.5t-40.5 -117t-52 -91.5q-13 -17 -35.5 -23t-42 -5.5t-31 7.5t-2.5 18q20 23 39 65.5t34.5 92.5t27 103t15.5 98t0.5 76.5t-17.5 38.5q-9 4 -26 -8t-38.5 -33.5t-45.5 -49l-45 -53.5q-5 -6 -13 -6.5t-15 4.5q-6 5 -7 13t4 15l61 72
t73 74t76 48t71 -6q37 -24 40 -102zM182 49q0 -20 -14.5 -34t-36.5 -14q-20 0 -34.5 14t-14.5 34q0 21 14.5 35t34.5 14q22 0 36.5 -14t14.5 -35z" />
    <glyph glyph-name="questiondown" unicode="&#xbf;" horiz-adv-x="367" 
d="M10 -125q3 -78 40 -102q33 -21 71 -6t76 48t73 74l61 72q5 7 4 15t-7 13q-7 5 -15 4.5t-13 -6.5l-45 -53.5t-45.5 -49t-38.5 -34t-26 -7.5q-14 7 -17.5 38.5t0.5 76.5t15.5 98t27 103t34.5 92.5t39 65.5q9 10 -2.5 17.5t-31 8t-42 -6t-35.5 -22.5q-29 -36 -52.5 -91.5
t-40 -117t-24.5 -122.5t-6 -108zM163 471q0 20 14.5 34t36.5 14q20 0 34.5 -14t14.5 -34q0 -21 -14.5 -35t-34.5 -14q-22 0 -36.5 14t-14.5 35z" />
    <glyph glyph-name="at" unicode="@" horiz-adv-x="752" 
d="M638 636q40 -51 60.5 -118t20.5 -148q0 -44 -5.5 -80t-16.5 -64q-20 -53 -57 -73q-47 -25 -96 6q-33 22 -51 61l-7 -15q-27 -48 -72 -73q-1 -1 -2 -1l-1 -1q-29 -16 -61 -16t-57 16q-37 23 -55 73q-9 26 -13 58.5t-2 70.5q2 45 11 75.5t20 50t23.5 30t22.5 15.5
q44 22 88 -8q40 -27 61 -87q23 -64 15 -145q-1 -8 -7.5 -13.5t-14.5 -4.5t-13.5 7.5t-4.5 14.5q3 33 0 63t-9 52t-14 33.5t-16 7.5t-14 -26t-8 -67q-3 -68 12 -112q13 -37 28.5 -38t30 17.5t26 49t14.5 57.5q-1 13 9.5 24.5t26 19t33.5 10.5t34 0.5t26.5 -12t11.5 -26.5
q1 -52 11.5 -72.5t22.5 -13t21 42t9 93.5q-1 108 -37.5 180t-91 106t-118 30.5t-117.5 -47t-90 -126.5t-36 -206q0 -99 29 -182.5t81 -136t123 -68t155 20.5q8 4 15.5 1t10.5 -11q4 -8 1 -15.5t-11 -11.5q-43 -17 -89.5 -29.5t-98.5 -12.5h-14q-92 5 -163 52
q-42 28 -75.5 68.5t-56.5 91t-35 109.5t-12 124q1 88 20 166.5t54 138.5q43 72 109.5 107t139 36t143 -30t123.5 -89z" />
    <glyph glyph-name="parenleft" unicode="(" horiz-adv-x="448" 
d="M391 -164q8 -4 9.5 -12t-3.5 -15q-5 -9 -17 -9q-6 0 -10 3q-138 87 -199.5 202.5t-59.5 246t61 268t161 269.5q5 7 13 8t15 -4q6 -5 7.5 -13t-3.5 -15q-42 -56 -68 -139t-37 -176t-8 -189.5t20 -181t47 -149t72 -94.5z" />
    <glyph glyph-name="parenright" unicode=")" horiz-adv-x="448" 
d="M57 -164q31 22 56 64.5t42.5 99t28 123t12.5 137.5t-3.5 143t-19 138.5t-36.5 124t-54 99.5q-5 7 -3.5 15t7.5 13q7 5 15 4t13 -8q102 -132 161 -269.5t61 -268t-59.5 -246t-199.5 -202.5q-5 -3 -10 -3q-13 0 -17 9q-5 7 -3.5 15t9.5 12z" />
    <glyph glyph-name="one" unicode="1" horiz-adv-x="333" 
d="M238 755q15 -5 15 -20q0 -180 5 -359t-5 -361q-1 -14 -22 -21.5t-46.5 -4.5t-47.5 20t-24 52q2 118 2 233.5t-2 233.5l-12 -13q-44 -44 -78 -44q-8 0 -14 6t-6 14t6 14t14 6q17 0 36.5 15t39 38.5t38 52l34.5 54.5l27.5 46t17.5 28q4 5 9.5 8.5t12.5 1.5z" />
    <glyph glyph-name="two" unicode="2" horiz-adv-x="584" 
d="M525 64q20 -15 20 -41q0 -8 -6 -14t-14 -6t-14 6t-6 14q0 5 -5 10q-4 3 -14.5 7t-32.5 5.5t-58 -0.5t-90 -10q-32 -5 -60.5 -10t-50.5 -10l-35.5 -8t-14.5 -3q-13 -3 -31.5 -6t-36.5 -3t-33 4.5t-21 16.5q-5 11 4 22l15.5 16t40 43.5l56 64.5t64.5 80q86 111 129.5 198
t43.5 147q0 55 -20.5 82.5t-53 36t-73.5 3t-82 -17.5q-8 -2 -15.5 1.5t-9.5 11.5t2 15.5t12 9.5q34 10 76.5 16.5t86 5.5t85 -12t74.5 -36q58 -44 58 -116q0 -133 -181 -370l-73 -90l-61 -70q21 5 46.5 9.5t52.5 8.5q38 6 70 8.5t58 2.5q70 0 98 -22z" />
    <glyph glyph-name="three" unicode="3" horiz-adv-x="486" 
d="M316 388q67 -31 101.5 -80t34.5 -113q0 -55 -27.5 -98.5t-80.5 -69.5q-32 -15 -70.5 -23.5t-78.5 -7.5t-78 12.5t-70 35.5q-7 5 -8 13t4 15t13 8t15 -4q17 -13 41 -20.5t51 -8t53.5 7.5t48 25.5t34.5 45.5t13 69q0 105 -113 156q-22 10 -43 16.5t-37.5 10t-27 4.5
l-10.5 1q-11 2 -15 10q-6 9 -1 18l122 271q-35 -3 -57 -3q-34 0 -49.5 5.5t-23.5 11.5q-17 12 -17 33q0 8 6 14t14 6t14 -6t6 -14v-1q3 -3 9 -5q5 -2 15 -3t26 -1q12 0 44 4.5t66 10l59.5 10l25.5 4.5q11 3 20 -6q8 -10 3 -21l-136 -302q19 -3 46.5 -10t57.5 -21z" />
    <glyph glyph-name="four" unicode="4" horiz-adv-x="604" 
d="M555 299q2 -8 -2.5 -14.5t-12.5 -8.5q-1 0 -13 -2.5t-33 -6.5q-2 -63 -2.5 -124.5t1.5 -122.5q-2 -15 -23.5 -21t-47 -3t-47 14.5t-22.5 32.5q0 51 0.5 102t0.5 102l-39 -5q-65 -6 -115 -6q-14 0 -27.5 0.5t-25.5 1.5q-90 7 -111 48q-23 43 12 113t129 173
q73 80 132 130.5t100.5 71t64 11t22.5 -48.5l-2 -428q17 3 27 5t11 2q8 2 14.5 -3t8.5 -13zM170 277q45 -6 90.5 -1t93.5 11l2 379q-28 -38 -60 -88t-61 -103t-43 -88.5t-19.5 -58.5t-5 -35t2.5 -16z" />
    <glyph glyph-name="five" unicode="5" horiz-adv-x="488" 
d="M385 392q63 -53 63 -144q0 -53 -28 -106q-14 -25 -33 -47.5t-43 -40.5q-55 -41 -124 -53q-14 -2 -27.5 -3.5t-27.5 -1.5q-53 0 -105 16q-8 2 -11.5 9t-1.5 15t9 12t15 2q34 -10 65 -5t57.5 20.5t47.5 38t36 47.5t23 50.5t8 46.5q0 44 -17 74t-47 48.5t-70.5 26.5t-88.5 8
q-9 -2 -16 5q-7 6 -7 16l13 299q0 9 8 14q6 6 16 4l10.5 -2t28 -5t40 -6t46.5 -5q43 -4 71.5 -4t45.5 2.5t25 6t10 5.5q3 2 3 5q0 8 6 14t14 6t14 -6t6 -14q0 -23 -18 -36q-22 -19 -79 -22q-42 -3 -102 3q-2 0 -3.5 0.5t-3.5 0.5l-10 -235q120 -6 182 -59z" />
    <glyph glyph-name="six" unicode="6" horiz-adv-x="467" 
d="M434 241q5 -38 -0.5 -76t-21.5 -70q-24 -50 -68.5 -74t-93 -23.5t-94.5 26t-73 74.5q-21 39 -31.5 89t-10.5 109q1 78 19.5 156.5t53.5 144.5q36 69 85 112q55 47 117 53q7 1 12.5 -3t7.5 -10q3 -7 0.5 -13.5t-7.5 -10.5q-42 -27 -74.5 -79.5t-53.5 -124.5
q-6 -21 -11 -42t-8 -43q20 4 38.5 4t36.5 -2q70 -11 116 -60q25 -26 40.5 -61t20.5 -76zM376 113q14 28 18.5 60.5t0 64.5t-17 61.5t-33.5 51.5q-62 64 -168 44q-8 -82 3 -156q3 -20 12.5 -48.5t24 -56.5t33 -50.5t39 -30t43 5t45.5 54.5z" />
    <glyph glyph-name="nine" unicode="9" horiz-adv-x="468" 
d="M33 518q-5 38 0.5 76t21.5 70q24 50 68.5 74t93 23.5t94.5 -26t73 -74.5q21 -39 31.5 -89t10.5 -109q-1 -78 -19.5 -156.5t-53.5 -144.5q-36 -69 -85 -112q-55 -47 -117 -53q-7 -1 -12.5 3t-7.5 10q-3 7 -0.5 13.5t7.5 10.5q42 27 74.5 79.5t53.5 124.5q6 21 11 42t8 43
q-20 -4 -38.5 -4t-36.5 2q-70 11 -116 60q-25 26 -40.5 61t-20.5 76zM91 646q-14 -28 -18.5 -60.5t0 -64.5t17 -61.5t33.5 -51.5q62 -64 168 -44q8 82 -3 156q-3 20 -12.5 48.5t-24 56.5t-33 50.5t-39 30t-43.5 -5t-45 -54.5z" />
    <glyph glyph-name="seven" unicode="7" horiz-adv-x="436" 
d="M417 704q0 -1 -21 -52t-53 -142l-17.5 -52l-19.5 -60q22 1 39 -1.5t28 -12.5q14 -12 14 -30q0 -8 -6 -14t-14 -6t-14 6t-6 14q-2 1 -8.5 3t-25.5 1h-9.5t-9.5 -1q-44 -146 -87 -345q-4 -17 -27.5 -24t-49.5 -3.5t-45 17.5t-13 39l38.5 159.5t36.5 141.5q-29 1 -42 13
q-13 10 -13 29q0 8 6 14t14 6t13.5 -5.5t6.5 -13.5q2 -1 7.5 -2.5t19.5 -0.5q30 100 57.5 173.5l44.5 116.5h-3q-160 -15 -202 20q-19 16 -19 39q0 8 6 14t14 6t14 -6t6 -14q0 -4 4 -8q23 -16 67 -18.5t92 2t91 12.5l64 12q12 3 20 -7q7 -10 2 -20z" />
    <glyph glyph-name="eight" unicode="8" horiz-adv-x="523" 
d="M445 294q26 -43 26 -96t-26 -97q-26 -46 -72 -72q-50 -28 -117 -28h-1q-41 0 -82 10.5t-73 41.5q-24 23 -37.5 54.5t-13.5 66.5q0 38 14.5 75.5t41.5 66.5q33 36 77 52q-29 15 -50 42q-22 26 -33 59.5t-11 70.5q-1 37 10.5 69.5t32.5 58.5q45 54 122 60q-1 2 -1 7
q0 8 6 14t14 7q38 0 70 -18q31 -17 51 -46q19 -27 29 -62t11 -73q0 -40 -10.5 -75.5t-30.5 -64.5q-10 -13 -20.5 -23.5t-22.5 -18.5l25 -12q44 -24 71 -69zM89 174q0 -41 17.5 -67t44 -37t57.5 -8t57.5 19t45 44.5t20.5 68.5q1 50 -16 80t-43 42t-57 7.5t-58 -23t-46.5 -51
t-21.5 -75.5zM393 557q0 27 -6.5 53.5t-19.5 48.5t-32.5 37t-46.5 18q1 -1 1 -6q0 -3 -1 -4q7 -4 10 -8q5 -8 3 -15.5t-9 -12.5q-34 -20 -51 -58.5t-13 -85.5q4 -44 26 -77.5t56 -47.5q21 9 37 26t26 38.5t15 45.5t5 48z" />
    <glyph glyph-name="zero" unicode="0" horiz-adv-x="523" 
d="M430 607q26 -45 39 -105t13 -127q0 -70 -15 -134q-15 -69 -43 -120q-32 -56 -76 -88q-49 -35 -109 -35q-48 0 -88 32q-36 29 -60 79q-23 46 -34.5 106t-11.5 128q0 78 15.5 150t44.5 128q35 70 79 95t89 17.5t86 -42t71 -84.5zM389 141q25 46 39 107t14 127
q0 59 -13 112.5t-33.5 93t-47 60t-53 14.5t-51 -44t-42.5 -116q-13 -57 -16.5 -117.5t4.5 -118.5q11 -78 37 -132q18 -38 39.5 -53t43.5 -11t42 24.5t37 53.5z" />
    <glyph glyph-name="eth" unicode="&#xf0;" horiz-adv-x="422" 
d="M88 624q5 6 20.5 20.5l34.5 32.5q-24 30 -51 48q-5 4 -7.5 10.5t0.5 13.5q2 6 7.5 10t12.5 3q47 -4 92 -34l25 24.5t16 16.5q8 10 26.5 4t35 -21t25.5 -35t-3 -36q-6 -8 -17.5 -17.5l-25.5 -20.5q8 -11 14.5 -22.5l13.5 -23.5q35 -66 53.5 -144.5t19.5 -156.5
q0 -59 -10.5 -109t-31.5 -89q-27 -49 -73 -74.5t-94.5 -26t-93 23.5t-68.5 74q-16 32 -21.5 70t-0.5 76q5 41 20.5 76t40.5 61q46 49 116 60q18 2 36.5 2t38.5 -4q-3 22 -8 43t-11 42q-6 19 -12 36t-14 34l-48 -26.5t-21 -10.5q-3 -1 -10 -1q-9 1 -16.5 11t-11 21.5t-4 22.5
t4.5 16zM45 113q22 -42 45 -54.5t43.5 -5t39 30t33 50.5t24 56.5t12.5 48.5q11 74 3 156q-106 20 -168 -44q-21 -22 -33.5 -51.5t-17 -61.5t0 -64.5t18.5 -60.5z" />
    <glyph glyph-name="Thorn" unicode="&#xde;" horiz-adv-x="861" 
d="M374 205q-13 7 -10 22t19 15q6 1 12 1h12q56 20 109 67.5t97 115.5q45 69 69 142t22 135q-2 48 -15 76t-34 40.5t-47.5 10t-55 -16.5t-57 -37t-52.5 -53q-83 -103 -156 -286q-17 -44 -32 -95.5t-27.5 -104t-22.5 -102.5t-17.5 -91.5l-12.5 -71.5t-7 -41q-5 -22 -28.5 -31
t-50.5 -9t-48.5 8.5t-22.5 20.5q-4 91 -7 170t-4 151t0 140.5t5 138.5t10 144.5t15 159.5q5 46 31 75.5t60 41t70 2.5t61 -41q5 -7 10.5 -18t8 -26.5t-0.5 -36t-15 -45.5q-17 -39 -45.5 -67.5t-64.5 -50.5q-4 -57 -4.5 -122t1 -130.5t4 -127.5t5.5 -113q16 60 39 134.5
t53 152.5q76 190 162 297q90 111 191 134h1q13 3 25.5 4t25.5 1q51 0 90 -16t64 -45q48 -55 50 -147q0 -75 -34 -158q-17 -42 -41 -81t-54 -73q-32 -38 -70 -67t-80 -50q-14 -7 -29 -13t-38 -11.5t-56.5 -11t-82.5 -10.5zM226 792q15 33 13 53.5t-12.5 25t-25.5 -9
t-26 -49.5q-6 -20 -11 -45.5t-8 -57.5q23 17 41 37.5t29 45.5z" />
    <glyph glyph-name="thorn" unicode="&#xfe;" horiz-adv-x="223" 
d="M506 329q8 -2 13 -8.5t3 -14.5q-21 -128 -63.5 -218t-109.5 -148q-51 -44 -106.5 -67t-109.5 -38l-3 -19q-21 -125 -64 -188q-39 -58 -82.5 -89t-85.5 -31q-3 0 -5.5 0.5t-5.5 0.5q-26 2 -46 17.5t-31 40.5q-16 37 -5 83q12 50 49 95q28 34 63 55t75 35q7 45 10.5 96
t3.5 110q0 36 -1 90t-2.5 114t-4 120.5t-4 109t-3 79l-1.5 30.5q0 15 20.5 29t46 18.5t47.5 -4t25 -38.5l0.5 -24t1.5 -60.5t2.5 -80.5t2.5 -85t2 -74t2 -47q8 27 18.5 51.5t24.5 46.5q11 19 23.5 33t25.5 25q30 24 58 24q61 0 91 -57q27 -48 27 -131q0 -45 -9 -83t-27 -67
q-17 -27 -40 -42t-48 -15q-26 0 -47.5 10t-38.5 25t-30 32.5t-22 32.5v-62q0 -45 -2 -85.5t-6 -77.5q56 16 109.5 41.5t99 72.5t81 123.5t55.5 196.5q2 8 8.5 13.5t14.5 3.5zM217 295q-19 -30 -32 -67.5t-19 -78.5q17 -45 35 -58.5t33 -2.5t24.5 43t9.5 79q0 20 -3 46.5
t-9 45t-15.5 20.5t-23.5 -27zM-114 -281q-17 -21 -27 -44.5t-13 -43.5t1 -33t14.5 -13.5t28.5 14.5t42 51q34 51 52 139q-29 -12 -53.5 -28.5t-44.5 -41.5z" />
    <glyph glyph-name="ampersand" unicode="&#x26;" horiz-adv-x="631" 
d="M612 -114q8 0 14 -6t6 -14t-6 -14t-14 -6q-80 0 -171 93q-47 47 -93 116q-31 -20 -62 -36t-60 -27q-73 -26 -124 -20q-37 5 -59 24q-25 20 -34 57q-12 54 44 134q23 34 54 69.5l66 73.5l14 15.5l14 15.5q-40 123 -38 219q1 46 12 81t29 58.5t41 36t46 12.5q40 0 79 -11.5
t71 -40.5q55 -51 57 -127q0 -38 -17 -75.5t-44.5 -75.5t-63 -76l-72.5 -75l-21 -22q17 -40 37 -79t43 -75q63 45 111.5 97.5t73.5 103.5q4 9 12 10.5t14.5 -2t10 -10.5t-0.5 -16q-15 -30 -37.5 -61t-53.5 -63q-23 -25 -51 -48.5t-57 -44.5q40 -62 88 -110q79 -81 142 -81z
M203 580q-1 -40 7 -86.5t23 -97.5l36.5 44t32.5 43q56 81 56 136q-1 37 -13 61t-30 34.5t-38 7.5t-37 -20t-28 -47.5t-9 -74.5zM212 30q28 10 57 24.5t58 33.5q-21 34 -40.5 71t-36.5 75q-23 -24 -43.5 -48t-34.5 -46t-21 -42t-3 -36q8 -33 21.5 -38t42.5 6z" />
    <glyph glyph-name="bracketleft" unicode="[" horiz-adv-x="338" 
d="M322 -169q1 -8 -4.5 -14.5t-14.5 -6.5l-196 -10h-1q-9 0 -14 5q-6 6 -6 14l-13 958q0 18 19 20l178 10q8 1 14 -5t7 -14q0 -19 -19 -21l-59 -9l13 -917l75 9q8 0 14.5 -5.5t6.5 -13.5z" />
    <glyph glyph-name="bracketright" unicode="]" horiz-adv-x="338" 
d="M17 777q-1 8 4.5 14.5t14.5 6.5l196 10h1q9 0 14 -5q6 -6 6 -14l13 -958q0 -18 -19 -20l-178 -10q-8 -1 -14 5t-7 14q0 19 19 21l59 9l-13 917l-75 -9q-8 0 -14.5 5.5t-6.5 13.5z" />
    <glyph glyph-name="braceleft" unicode="{" horiz-adv-x="343" 
d="M300 -152q5 -7 3.5 -15t-8.5 -13q-14 -11 -34.5 -18.5t-43.5 -12.5q-20 -5 -43 -5q-13 0 -26 1.5t-25 6.5q-46 17 -57 63q-8 34 7 74.5t37 85.5q11 22 21 44.5t16.5 43t7.5 38t-6 29.5q-3 5 -15.5 17.5l-22.5 22.5l-20.5 21t-14.5 16v1q-19 33 -3 67q7 13 17.5 24.5
l21.5 22.5t21.5 23t15.5 24q2 8 1 19t-16 28q-18 20 -32.5 58.5t-22.5 86.5t-6 90q3 48 18 78q19 35 42 47t42 13q18 2 33 -3.5t26 -10.5q12 -6 22 -15t16 -18q5 -7 3.5 -15t-8.5 -13q-8 -5 -15.5 -3t-12.5 9q-5 5 -7.5 1t-4.5 -10q-11 -26 -12 -65t5 -79t18 -74t26 -50
q38 -45 22 -88q-7 -18 -19.5 -32.5t-26.5 -28.5q-24 -25 -31.5 -38t0.5 -26q4 -5 12.5 -14t17.5 -17l28 -28.5t16 -19.5q12 -20 12.5 -42t-6.5 -46t-18.5 -49.5t-24.5 -50.5q-18 -36 -32.5 -70.5t-9.5 -57.5q7 -27 27 -32.5t41 9.5q7 5 15 4t13 -8z" />
    <glyph glyph-name="braceright" unicode="}" horiz-adv-x="343" 
d="M43 -152q5 7 13 8t15 -4q21 -15 41 -9.5t27 32.5q5 23 -9.5 57.5t-32.5 70.5q-13 25 -24.5 50.5t-18.5 49.5t-6.5 46t12.5 42q5 8 16 19.5l28 28.5q9 8 17.5 17t12.5 14q8 13 0.5 26t-31.5 38q-14 14 -26.5 28.5t-19.5 32.5q-16 43 22 88q14 16 26 50t18 74t5 79t-12 65
q-2 6 -4.5 10t-7.5 -1q-5 -7 -12.5 -9t-15.5 3q-7 5 -8.5 13t3.5 15q6 9 16 18t22 15q11 5 26 10.5t33 3.5q19 -1 42 -13t42 -47q15 -30 18 -78q2 -42 -6 -90t-22.5 -86.5t-32.5 -58.5q-15 -17 -16 -28t1 -19q5 -12 15.5 -24t21.5 -23l21.5 -22.5t17.5 -24.5q16 -34 -3 -67
v-1q-5 -6 -14.5 -16l-20.5 -21l-22.5 -22.5t-15.5 -17.5q-8 -12 -6.5 -29.5t8 -38t16.5 -43t21 -44.5q22 -45 37 -85.5t7 -74.5q-11 -46 -57 -63q-12 -5 -25 -6.5t-26 -1.5q-23 0 -43 5q-23 5 -43.5 12.5t-34.5 18.5q-7 5 -8.5 13t3.5 15z" />
    <glyph glyph-name="percent" unicode="%" horiz-adv-x="579" 
d="M53 60q1 5 17 43.5l41.5 98l58 133.5l66 151l65.5 151.5l57.5 133.5l41.5 97.5t17 44.5q1 13 20.5 16.5t41.5 -1.5t39 -18t15 -32q-1 -10 -19 -51.5t-47.5 -104l-66 -138.5l-75 -154l-75 -152l-65 -132l-46.5 -93t-19 -36q-2 -2 -4 -3l-4 -2q-9 -3 -20 1.5t-20 13
t-14.5 18t-4.5 15.5zM139 880q0 -20 -14.5 -34t-36.5 -14q-20 0 -34.5 14t-14.5 34q0 21 14.5 35t34.5 14q22 0 36.5 -14t14.5 -35zM539 49q0 -20 -14.5 -34t-36.5 -14q-20 0 -34.5 14t-14.5 34q0 21 14.5 35t34.5 14q22 0 36.5 -14t14.5 -35z" />
    </font>
</defs>
</svg>
